<svg xmlns="http://www.w3.org/2000/svg" 
 fill="#808080" viewBox="0 0 1280 461.13">
<path d="M9.58 233.65c-.92-2.57-4.11-3.86-6.33-5.73-1.3-.15-2.17-2.57-3.25-3.65.42-1.09.86-1.53 1.93-.72 2.62-2.14-.06-3.18 3.25-2.92-.24-1.12 0-1.6 1-2.19-.34-.48-.69-.96-1.03-1.43 1.48.17 1 .99 2.52-.04-1.11-.35-1.17-1.71-2.17-2.15-.65 1.95-1.81-.25-1.1-1.05-1.66.6-4.17.45-2.89-1.83.79-.44 1.92-.47 2.29-1.57.95-.12 1.77-.47 2.81-1.13-1.13-.34-1.75-1.24-2.81-.67 1.41 1.05-1.02 3.74-1.26-.51.91-.76 1.99-1.65 3.18-2.64.87.62 1.02.41.93-.69 2.95-.67 1.12-.91 2.75-1.7 1.96-.91 4.12-.98 6.12-1.69-1.26-.76 1.47-1.49-.1-1.72-.75.06-1.41-.04-1.91-.94 1.33.22 1.56-.52 2.02-1.64.58-1.03.87-1.06 2.37-.33.87-.24 2.48-1.95 2.57-.2 1.21.01 1.16-1.81 2.47-2.07-1.22-1.43.08-2.02 1.31-2.98-.32-.06-.89-.13-.75-.54q1.27-1.24 2.56-.56c.78-1.14 1.57-2.31 3.14-1.95 2.3-2.09 3.01-3.7 5.52-5.63.44 2.25 1.93.02 3.19-.46-1.25-1.01 1.19-2.34 1.11-.9 3.18-.81 5.65-2.78 8.04-4.73 1.43-.93 3.76-1.26 2.58-3.73 1.53-.37 2.57-1.56 4.1-1.65 1.16-.85 2.09-2.05 3.58-2.52 2.15-.67 3.44-3.01 5.55-2.8 1.49-2.03 3.82-2.38 5.61-3.91 3.45-.47 5.51-3.22 8.45-4.89 3.59.91 4.68-3.67 7.8-2.86-.21-2.26 2.52-2.06 3.78-3.13 3.36-2.57 7.86-3.02 11.11-5.62.63-.78 1.65-.81 2.49-1.01.88-.21 1.11-.71 1.39-1.49 1.2.13 1.11-.35 1.65-.97 2.12-.99 4.64-.94 6.67-2.39 1.53-.98 2.87-2.31 4.8-2.54 1.27-.5 1.85-2.35 3.54-1.94.6-1.18 2.17-.79 2.91-1.86.61-.89 1.93-.77 2.74-1.69.63-.72 1.86-.9 2.82-1.34 1.51-1.17 3.42-1.7 5.04-2.49 1.03-.63 1.98-2.27 3.29-2.13.81.31.78-.58 1.23-.67 2.61-.84 4.77-2.59 7.22-3.78.89-.67 2.66-.24 3.03-1.69 1.47.69 2.29-.82 3.58-1.12 2.25-.63 4.15-2.29 6.08-3.54 4.42-1.12 7.17-4.53 11.8-5.32.17-.17 1.22-1.85 1.97-.84 1.7-2.12 6.87-4.58 9.36-3.27 1.23-2.42 4.05-2.55 5.98-4.12.49-.46.59.19.88.14.78-1.17 1.84-.36 2.83-.34.23-1.11 1.43-1.15 1.88-1.93 3.72-.25 7.41-3.26 11.01-4.66 8.89-4.2 17.57-8.95 26.68-12.81 3.62-2.12 8.19-2.59 11.61-4.92.75-.37 1.52-.18 2.18.36 1.44-.43 2.58-1.71 4.28-1.51.25.03.57-.53.97-.93 1.27 0 2.74.21 3.78-.85 1.36.65 2.14-.2 2.99-1.04.22.14.51.46.68.4 1.96-.63 3.96-1.08 5.98-1.48.72-.14 1.39-.72 1.49-1.66.01-.12.49-.19 1.07-.41-1.32 1.68.85 1.16 2.2-.3.15 1.77 2.67-.5 4.01-.09.97-.27.97-1.78 2.59-.76-.33-.51-.45-.71-.79-1.23 1.22.42 1.45.74 2.29-.34 1.88.29 3.11-.45 4.53-1.57 1.74.65 3.15-.8 4.84-.96.97-1.03 1.89.18 2.94-1.47 1.41.71 2.45-.52 3.6-1 1.49-.62 3-1.01 4.54-1.41 2.19-1.56.4 2.18 3.1-1.59.36.21.62.36.98.58.4-.75 1.49-.64 1.99-1.14.76-.76 1.6-.54 2.39-.81 3.87.27 1.59-.85 4.68-1.93.77.93 1.45.28 2.14-.42.58.74.56.24.8-.44 4.51.88 4.16-2.52 7.88-2.52 3.54.74 2.85-2.3 5.58-1.1-.05-1.01.74-.79 1.54-.88 1.51-1.13 3.44-1.04 5.22-1.54 1.48-1.55 4.07-.57 6.08-1.8 3.89-1.14 8.3-1 12.03-2.44.61-.52 2.21.61 2.16-.92.81.43 3.17.87 1.82-.6.82 0 1.75.28 2.2-.06.69-.53 1.54-.11 1.99-.5.69-.59 1.4-.22 2.04-.44.64-.22 1.2-.31 1.8.02.31-.76.92.04 1.44-.29.53-.33 1.57.07 2.04-.29 1.38-.77 2.79-.27 4.28-.4 1.8-1.45 4.27-2.37 5.92-.13.05-2.76 3.33-2.25 5.4-3.28.35.32.69.73 1.17.29.61-.69 1.51-.39 2.23-.73.77-.36 1.55-.71 2.46-.57 1.31-.28 2.56-1.14 3.99-.96 1.05.24 1.84-.64 2.77-.95.57-.21 1.06.6 1.83.04.97-.69 2.61.95 3.59.03.61.41.61.43.84-.39 1.83-.15 3.49-.89 5.19-1.61.65-.2 1.42.13 2.01-.49.07-.07.52.23.88.4.87-1.57 3.29-.62 4.73-.86 1.36-2.12 3.28-1.29 5.41-1.96 2.78-.98 2.82-.87 3.52-.53.94-.48 1.84-1.09 2.83-1.41.94-.3 2.06.23 3.02-.45.75.82 1.04 1.23 1.34-.17 1.76.2 2.92-.05 3.98-.88 1.02-1.15 3.43.37 4.01-1.43 1.57-.15 2.88.11 4.11-.79.85-.41 6.12-1.92 5.94-.22.71-.64 1.31-1.56 2.33-.86 1.48-1.99 3.98-.53 5.95-1.97 1.48-.38 3.28.36 4.46-1.09.79 0 1.61-.08 2.4.02 1.79.26 3.52-1.03 5.19-.95 1.88.97 2.65-1.32 3.46-.71 5.33-.76 11.37-2.11 16.85-1.6.99.71.77-1.11 1.94.33.13-1.52 1.59-.8 2.72-1.01.67-.07 1.6-.66 1.94-.4.84.63 1.36-.37 2.1-.12 2.45.31 4.94-.03 7.35-.49.89.11 1.87.31 2.79-.29.77-.5 1.9.22 2.68-.61 1.34-.11 3 .13 4.36-.4.24.93.96-.64 1.21.23.99-.31 1.79-1.27 2.91-.24 2.15-2.35.42.86 3.56-.19 1.97-1.3 1.87 1.47 3.36-1.29.82-.26 1.06 1.02 1.71.22.52-.65.7.49 1.43-.02.49-.84 1.67-1.24 2.87-1.67 1.51 1.35 1.72 1.33 2.63-.34 1.65-.53 3.33-.8 5.08-.73 2.09-.84 4.38-.87 6.58-1.17 4.48-1.6 9.54-1.26 14.09-2.16.48-.34 1.3-.07 1.99-.49.6-.37 1.55.22 2.23-.49.59-.63 1.09.61 1.85.15 2.83-.55 6.12-.05 8.96-.77 2.45-.46 4.8-.18 7.18-.87.89-.08 1.89.23 2.65-.09.64-.27 1.39.29 1.88-.4.05-.08.31-.02.47 0 4.91.24 9.77-.81 14.68-.52 1.24.23 2.52.21 3.7-.45.85-.12 1.52 1.06 2.6.1.55-.48 1.83-.28 2.65.38.52-.48 1-.17 1.56-.04.69.16 1.46.07 2.19.03.61-.04 1.31.29 1.78-.4 3.06.91 6.19.2 9.28.38.82.05 1.74.36 2.53-.4.14-.13 1.02.52 1.18.38.99-.88 1.88.08 2.8.09 4.65-.72 9.04-.36 14.17-.7-.86-.24-1.49-.23-1.73-.53-.43-.54-.89.64-1.31-.17-.13-.26-1.03-.12-1.6-.28 1.62-1.39 15.77-1.12 7.33.43 6.83.67 13.45-.05 20.2.23.55-1.06-.38-.87-.91-1.3 3.21-1.3 9.28-.86 12.71.02-.44.32-.91.66-1.74 1.28 5.69-.21 10.76.56 16.05.68 1.53.63 3.76.16 5.47.3.77-.18 2.4.41 2.68-.3-1.98-.39-3.83-.15-5.85-.3-1.82.26-3.84-.99-5.67-.87-.69-.18-1.26.67-1.99.18-.09-.06-.46.35-.57.29-2.49-1.31-5.44.44-7.8-1.19.65-.46 4.15-1.25 4.7-.25.92-.59 1.84.08 2.77.04.82-.03 1.77-.4 2.52.38.5-.01 1.66-.66 2.18-.39 2.72 1.1 5.63-.06 8.41.91 1.28.34 2.72-.4 3.98.42.7-1.07 1.68.31 2.57-.33.6-.43 1.36.06 1.72.97-.98.79.24 1.78 1.26 1.35.54-.95-.31-.84-.73-1.07.56-.75 2.27-1.29 3.18-.34.58.58 1.18-.86 1.81-.05 1.29-1.49 2.41 1.28 3.75.5 3.78-1.43 7.56.52 11.32-.03.72-.06 1.36.93 2.05.09.61.79 1.47.4 2.23.46 2.07-.18 3.95.48 5.88.54 4.99.74 10.01.31 14.82 1.91 3.31.1 6.66-.11 9.37 1.82-3.51.16-1.91.72.32 1.24.35-.59.61-1.04.9-1.54 1.08.11 2.56-.5 3.07 1.01 1.35-.68 2.52-.9 3.76-.27.91.46 2.08-.19 2.89.67 3.56.34 7.11 1.21 10.47 2.42 1.07-.11 9.7 1.09 9.55 2.23 1.36-.11 2.65-.5 4.15.15 2.2 1.13 5.22.22 6.82 2.55.16-.94.55-1.02 1.52-.93.11.18.14.76.43.85 1.19-1.32 2.35.36 3.52.05.88 1.03 2.36-.04 3.29.94.16.16.62.06.95.03 1.78-.13 3.12.75 4.19 1.7.96-.09 1.93-.47 2.58-.18 2.67 1.21 5.72.93 8.31 2.32 3.94.49 7.74 1.87 11.54 2.76 3.65.75 7.54 1.26 11.2 2.4 2.43.37 4.78 1.17 7.22 1.43 1.18.32 2.31.72 3.56.86 1 .11 1.84 1.13 3.02.91.89.96 2.35.04 3.26.98 1.78-.24 3.21.95 4.99 1.09-.26.28-.41.45-.69.76.4 0 .82.11.93-.02 1.3-1.14 5.37.79 7.06 1.12 5.69 1.66 11.43 3.09 17.23 4.33 5.73 1.44 11.27 3.09 16.96 4.43 5.77 2.6 11.81 2.12 16.55 7.04-.28-.7-.94-.86-2.58-.27-.85-.26-1.38-1.04-2.61-.81 5.46 3.9 4.64-1.05 7.45.3 4.08 2.08 8.63 3.03 12.73 5.14 2.35.26 3.95 2.14 6.38 2.31 6.98 2.81 14.38 5.33 21.61 7.77 9.29 3.25 18.12 7.55 27.07 11.71 3.43 2.02 7.26 3.22 10.84 5 3.03 1.4 6.59 2.15 8.86 4.72-.71-.27-2.53-.96-1.49.37-1.62.05-2.83-1.97-4.33-2.79-3.42 1.55-2.72-3.47-5.53-1.37q-.99-1.72-2.11-1.13c-1.11-.79-2.22-1.77-3.95-1.46-.48-2.11-1.01.46-3.24-1.45-.56-.41-1.47-.5-1.56-1.43-.99.49-2.65-.25-4.39-1.95-.63.97-1.56-.82-2.16.25.54.54 1.55.36 1.96 1.26.68 1.18 2.19.37 3.07 1.31 1.62.74 2.95 1.84 4.89 1.53.95.86 4.14 4.07 5.13 2.91.99.92 1.66 2.7 3 1.51 1.39.94 2.06 1.56 3.37.87-.22 1.91 3.3 1.78 4.69 3.05.65 2.33 3.05 1.44 4.64 2.22 2.02 1.11 3.81 2.75 6.12 3.22 2.05-2.94-2.14-2.47-3.75-3.72-.97-.31-.97-1.43-1.9-1.79-.85-.33-1.87-.53-2.44-1.41 2.58.15 5.3 2.52 7.81 3.55 3.67 2.17 7.54 4.02 10.87 6.69 6.97 3.98 14.5 6.68 21.45 10.6 3.26 1.96 6.86 3.17 9.64 5.91.05.04-.06.28-.13.56-3.97-1.95-7.33-4.86-11.54-6.18.14.2.28.4.56.78-1.54.03-1.44-1.33-3.29-.92.18 1.69 3.1 2.8 4.62 2.98 2.13.3 1.8 3.03 4.12 3.29 1.39.15 2.54.75 3.47 1.61.7.64 2.1.3 2.22 1.65.99.03 1.69.69 2.42 1.21 2.57 2.29 5.83 2.94 8 5.79 1.05-.3 1.47.91 2.27 1.19.85.3 1.39.9 2.25 1.64 1.14-4.66-4.11-2.84-4.28-5-2.32-.28-3.43-1.77-5.34-2.96.32-.11.6-.21 1-.35-1.1-.77-2.4-1.22-2.88-2.56.87-.74 1.64.11 2.25.47 7.15 4.47 13.74 9.67 20.99 14.04 12.6 7.21 24.64 15.43 37.02 23.01 1.64 1.16 3.03 2.72 4.83 3.69.72.39.42 1.44 1.49 1.64.56.11.87 1.21 1.41 1.76 3.54 3.24 7.12 6.07 10.02 9.98 0-.22-2.18-1.82-2.05-.16-.68-.57-1.31-1.08-1.91-1.58-.86.74-.2 1.12.18 1.42 6.08 4.08 10.87 9.83 17.06 13.83 1.59 1.99 3.16 3.56 5.77 4.52-1.38-3.68-4.76-5.15-7.91-7.12.84-.64-.48-1.1-.82-1.84h-1.48c-1.16-1.79-2.62-3.51-4.26-4.78-.9 1.12-1.95-.34-1.17-.87-.71-.52-1.34-.97-1.95-1.43-.57-.42-1.64.05-1.83-1.03.28-.1.56-.21.38-.97-.46-1.87 3.1 2.36 3.94 2.26 1.31.63 2.05 1.89 3.25 2.69 6.94 5.88 13.57 12.03 20.7 17.69 5.55 4.73 11.5 9.01 16.45 14.4 2.22 2.08 4.43 4.18 6.71 6.19 1.36.99 4.77 2.8.98 3.08 1.66 1.49 3.32 2.08 4.61 3.73.7.73 1.46 1.6 2.37 1.89 1 .33.99 1.39 1.9 1.79.85.38 1.36 1.49 2.07 2.24.64.67 1.41 1.24 1.56 2.24 1.21.26 2.58 1.15 3.01 2.04 1.19 2.32 3.56 3.72 4.97 5.95.18.22.2.76.36.79 1.3.23 1.63 1.7 2.8 2.1.63.21.75 1.36 1.72.98.59 1.27 1.24 2.46 2.65 2.9 1.13.35 1 1.76 1.96 2.22.44 2.47 3.16 3.22 4.02 5.41 2.18 1.37 3.67 4.65 6.34 5.08-.98-1.32-1.82-2.45-2.86-3.84 1.82.29 2.84 1.37 3.45 2.45.4 1.41 2.52 1.13 2.19 2.12-1.02.56-1.53-.07-2.23-.79-.49.68 1.06 2.48 1.81 2.81 1.22.92 1.63 3.3 3.26 3.71.19.03.45.3.51.5.2 2.24 4.25 3.8 3.11 5.95.69.36 1.68.63 1.37 1.74-.24.85 1.26 0 .78.93-.47 1.06 2.77 2.51 3.56 3.37.11-4.01.93-.13 2.41.19.49 1.77 2.61 2.31 3.11 4.08.82.38 1.63.78 2.45 1.14.79.34 1.02.93.82 1.99-.78-.54-4.54-3.27-2.65-1.06 1.45 1.26 2.55 3.15 3.95 4.35 1.29.51 1.53 1.6 1.76 2.77 1.81 1.09 3.21 2.53 3.45 4.99 1.23.96 3.61 4.49-.04 1.89.86 1.47-.05 3.3-1.35 2.15-.55.97.54 1.16.78 1.73-1.84 2.27-3.13 4.89-5.59 6.73-.96.6-1.19 2.13-.05 3.38-1.84.8-2.83 2.28-3.8 3.79-1.39-1.12-1.78 1.55-2.15 2.4.81-.2 1.51-.36 2.46-.59-1.04 1.92-3.58 1.07-4.25 3.06-.47-.67-.42-1.26.23-1.89-1.02.11-1.82.42-2.43 1.15.98.58-.73 1.65-.96 2.42 2.31 1.51-1.79 2.05-3.21 2.25-.92.04-3.16 1.27-2.3 2.52-.47.33-.09 1.14-.87 1.36-4.9 1.49-4.32 3.71-8.21 4.78-1.44.54-2.88 1.02-4.39 1.21-1.99 1.6-4.92 1.78-7.13 2.79-1.72 1.72-4.07 1.98-6.14 2.89-.87.15-2.42 1.54-2.61.06-1.12-.21-.99.98-1.54 1.36-1.21.69-2.14.91-2.54-.64-.66.57-1.25 1.08-1.93 1.67-1.93-.37-3.53.94-5.31 1.56-2.05.72-3.86 2.11-5.92 2.76-7.21 3.18-15.4 4.18-22.33 7.9-9.88 5.25-20.77 9.12-31.42 13.15-14.49 6.96-29.21 14.06-44.97 18.13-8.54 2.18-17.16 4.5-25.48 6.82-9.49 2.95-18.54 7.52-28.15 10.28-1.67.48-3.26 1.3-5.07 1.36-1.45.04-2.72 1.84-4.05.48-.7.7-1.39 1.39-2.54 1.47-3.17.11-5.54 2.15-8.77 1.94-.12.22-.35.64-.43.79-5.51 1.12-10.08 2.6-15.21 4.26-6.22 2.16-12.49 4.22-18.88 5.66-.84.11-1.76-.35-2.51.46-.14.16-.76.14-.92-.02-.78-.82-1.11.46-1.71.31-.14 1.21-1.36 1.02-2.06 1.46-1.69 1.06-4.11.31-5.63 1.67-5.24.61-9.97 3.1-15.07 4.32-5.86 1.58-11.96 2.88-17.59 5.41-13.39 4.25-26.94 9.47-40.43 12.62-4.39.75.36-2.31-6.97.36.89.18 1.39.27 1.88.37-2.29.96-4.77.51-6.88 1.78-2.87.66-1.74-1.11-3.76-.88 1.53 2.69-3.39.57-4.73 1.91-.16-.33-.32-.66-.5-1.04-.33.96-.63 1.32-1.52.58-.77 1.2-1.43.58-2.46-.01-.32 1.93-2.66.44-3.95.77-.08-.2-.18-.48-.33-.87-.45 1.05-.46 1.15-1.42.33-.32 1.48-2.86 2.11-4.35 1.37 2.93-.34 1.11-1.2-.62-1.15-.27.46-.53.92-.96 1.67-.29-.55-.51-.95-.78-1.47-1.03 2.76-2.05 2.14-4.72 2.26-.02-1.02-.49-1.01-1.54-1.03.36 2.57-1.63.69-2.72 1.96-.35-.33-.69-.65-1.1-1.04-.64.32-1.28.65-1.91.98-.55-.78-.58.11-.94.71-.94-.8-2-.72-3.33-.49l1.37.66c-3.26 1.21-6.37 1.4-9.6 2.49-1.04.25-2.15.7-3.15.54-1.06-.17-1.96 1.12-3.07.13-.21-.19-1.07.36-1.7.59-.25-1.76-2.19-.96-3.65-1.39.07.42.15.97.25 1.61-2.3.13-3.22.26-4.42-2.26-.94.12-2.46-.43-3.15.66 1.23.47-.4 1.49.78 2.3-4.16-.84-1.62.47-4.02.34-.37-1.75-1.28.65-3.66.07-1.79-.08-3.58-.03-5.37 0-.76.3-1.02.76-.91-.51.77-.38 1.88-.07 1.88-1.28 1.09 1.53 1.31.57 2.42-.5.59.72 1.26.23 1.97-.11.7 1.88 1.19.88 2.85.66-.5-.58-.79-.91-1.08-1.24-1.05.67-2.02-.09-3.03-.01-1.86-.44-5.6 3.72-5.67-.07-1 1.2-2.46.39-3.75.61-2.51.12-4.28.03-6.85.79 1.56.28 1.94-.07 2.21 1.27.35-2.33 1.83.4 2.95-1.02.29.48.57.94.73 1.2 2.1.22 4.7-1.96 4.89.43-.47 1-1-.57-1.54.07-.41.49-1.34-.14-1.69.67-1.75-.57-3.9-.87-5.67.01-2.24-.97-4.32.92-6.47.46-1.14-.08-2.15.31-3.22.51-1.06.2-2.18-.3-3.25.44-1.52.44-3.34-.43-4.92.48-.74.45-1.84-.24-2.76.43-.32.23-1.23-.4-1.59-.17-.56.35-1.11.12-1.59.31-4.12-.18-8.89.14-13.27-.05-3.74.59-7.47.46-11.26.53-.75.03-1.62.63-2.21.39-1.53-.41-2.86.46-4.14-.41-6.56.96-13.3.28-19.83 1.06-3.05.35-5.98.51-8.96.47-.56-.31-1.53-.28-2.14-.02-3.53 1.02-7.19.18-10.79.46-.76.02-1.63-.36-2.26.41-1.82-.77-3.7.65-5.39-.02-.95-.38-1.53.21-2.32.14-4.54-.17-9.18-.26-13.64.33-2.35.72-4.78-.63-7.18-.37-.55.33-.86.54-1.48.18-.45.04-.89.27-1.34.28-5.57.12-11.1.07-16.63-.47-1.13-.31-2.03.88-3.2.45-.64-.27-1.13-.84-1.91-.18-.37.31-1.03-.78-1.5.09-3.03-1-6.34.52-9.18-1.13-.41-.2-.94.58-1.22-.19-1.88 1.3-4.3.05-6.47.48-2.81.35-5.35-.68-8.09-.49-1.24-.11-2.53.33-3.71-.46-.65-.43-1.3.46-2.09.15-.64-.25-1.4-.17-2.13-.23l-.84-.84c-.25.14-.61.46-.73.39-2.16-.74-4.6-.43-6.66-1.02-1.32-.62-2.85.07-4.03-.89-.1-.08-.38-.08-.47 0-1.02.92-2.01.1-3.02 0-1-.1-2.07.22-2.97-.5-3.37.32-6.89-1.01-10.09-.57-1.58-1.21-3.73.43-5.25-.86-.49.86-1.1-.48-1.73.13-.53.52-1.13-.41-1.86-.21-.54.15-1.27.28-1.77-.38-.46-.6-.77.78-1.37.13-.24-.27-.78.34-1.25-.16-.23-.24-.92-.04-1.48-.04-.07.49-.14.94-.25 1.71-.26-.57-.39-.86-.56-1.24-.17.35-.32.66-.48.98-.35-2.15-7.85-1.99-10.17-1.76 2.15.76 4.24.92 6.41 1.09-2.32.11-5.54 1.01-7.3-.9-.42-.53-1.15-.94-2-.87-3.44-.11-6.97-.32-10.33-.95-.64-.08-1.49.23-1.9-.08-.52-.4-.88.04-1.28-.12-.56-.23-1.1-.49-1.67-.68-.29-.1-.7-.22-.91-.09-.88.52-1.72-.18-2.53 0-1.01.22-1.8-.44-2.73-.53-.91-.09-1.95.46-2.75-.45-.7 0-1.38.97-2.13.26-1.42-.81.16 1.04-3.63-.35-.33.02-.64-.41-1.09.03-.44.11-1.59-.52-2.16-.15-1.19.65-2.3-.86-3.89-.54-2.05-.61-4.15-.48-6.24-1.06-.45.61-.77-.2-1.23-.56-1.03-.21-7.22-.19-3.66 1.19-2.11.62-3.77-.29-5.63-1.04 1.49-.67 2.48.48 3.97.15-.92-.43-1.79-1.14-2.82-.83-.76.22-1.11-.97-1.94-.34-.57.43-1.15-.4-1.87-.22-.65.16-1.33-.12-2.01-.36-1.7-.85-3.87 1.38-.42.9-.56 1.29-5.5-.19-6.71-1.01-.7-.33-.16-.16.38.03 1.03.65 1.84.44 2.79-.23-.78-.28-1.66-.02-2.15-.34-2.7-1.12 1.02 1.48-3.34 1.06 1.6-2.57-2.25-1.12-3.51-2.37-.13-.1-.73.4-1.29.71 5.13 1.07-5.11.64-5.68-.27-.37-.36-1.28.43-2.55-.82-.21-.25 5.29 1.34 3.17-.72-.47 1.04-.86-.08-1.32.03-.94.42-4.5-1.13-1.85.69-1.19.65-3.32.06-5.39-.28-2.26-.37-4.64-.17-6.95-1.21.58-.1 1.03-.18 1.79-.31-.76-.38-1.3-.65-1.95-.97-.14 3.51-9.28-.37-12.82-.07 2.93-.49 1.37-1.33-.57-1.08 2.43 1.86-6.85-.07-7.77-.08-2.16-1.11-8.07.51-7.97-2.79-.26 2.93-6.3-.38-8.38-.27-7.09-1.04-14.08-2.96-21.11-4.37-2.98-.56-5.82-1.17-8.75-1.85-3.17-.86-6.94-.8-10.14-1.98-2.79.34-5.37-.98-8.12-1-1.35 0-2.5-.63-3.69-1.11-.18-.07-.21-.54-.32-.82-.73.04-1.49-.32-2.07.51-.34-2.69-2.85 1.11-3.72-1.47-.72.32-1.07.31-1.6-.02-.66.71-.61.3-.92-.53-1.29.74-2.64-.3-3.92-.44-5.22.02-3.73-4.65-6.52-1.42-.86-.62-2.2-.43-2.86-1.58-.69.55-1.53.06-2.16.53-.69-.1-.76-.84-1.34-1.53-.63-.54-1.6.9-2.47.08-1.73.06-3.18-1.13-4.89-1.14-.9-.88-2.1 0-3.18-.61-1.09-.87-2.71-.63-4.05-.79-3.29-2.02-7.49-1.64-10.86-3.81-1.58-.8-.88-1.93-3.25-2.84-1.1.13.19 1.75-1.3 1.86-.45-.49-1.41-1.07-2.11-1.37-.65.85-1.28-.58-1.96-.12-1.87-1.35-1.52.83-3.35-2.48-.5 2.01-1.38.53-2.45-.32-.88 1.12-1.77-.07-2.67-.12-.97-.05-1.93-.41-2.94-.64 1.02-.81-.62-.72-1.15-1.22-.54-.35-1.06.92-1.55-.08-.58 1.81-1.02.59-1.9-.45-2.25.61-1.41-1.8-3.4-1.46-1.31-2.9-2.41.73-7.71-3.44h-2.62c-1.38-1.5-3.52-1.36-5.11-2.42-1.26-.84-2.85-1.1-3.97-2.23-.07-.07-.46.28-.66.24-1.65-.83-3.51-.77-5.16-1.98-.21.14-.45.31-.9.62-2.9-2.35-6.75-3.19-9.96-4.89-.75-.58-1.5-1.15-2.5-1.03-.98.12-1.18-1.36-2.29-1.01-2.13.16-3.79-2-6.01-1.93-.73.1-1.24-.54-1.84-.85-1.37-1.42-1.6-.53-2.79-1.12-.68-.25-1.17-1.31-1.79-.49-.27-.94-.41-.97-1.25-.35-.71-.39-1.43-2.15-2.13-1.07-1.24-2.3-1.83-2.07-4.39-1.37.88-.99.84-.82-.13-1.58-.52.25-1.19.57-1.83.88-1.43-.54-2.24-.94-3.67-1.84-1.94.28-3.52-1.52-5.72-1.66-.15-1.55-2.13.03-2.14-1.67-.28-.02-.65-.09-1.02-.08-.32 0-.42-.76-.93-.24-1.05.32-1.31-1.74-2.21-.75-1.2-.4-2.23-.99-2.86-2.36-2.1.17-3.9-2.06-6.05-2.56-.41-.08-.73-.56-1.13-.8-.31-.19-.54.34-1.07 0-.91-.6-1.88-1.19-3.11-1.34-1.06-.13-1.88-1.23-3.12-1.28-.27 0-.47-.83-.78-.89-1.23-.24-2.13-1.35-3.29-1.44-4.13-1.61-7.78-4.31-12.16-5.43-2.61-1.75-5.53-3.4-8.27-4.75-2.24-.55-4-2.13-6.26-2.55-.6-.1-.1-1.14-1.02-1.03-9-3.32-17.44-8.54-26.11-12.86-9.31-5.07-17.37-12.15-26.93-16.84-2.6-1.57-5.52-2.65-7.85-4.63-.98-.84-2.06-1.83-3.25-2.1-5.12-2.29-9.17-6.44-13.95-9.32-1.95-2.4-4.71-2.87-7.09-4.85-1.1.53-1.76-.88-2.85-1.2-.34-.1-.56-.58-.88-.82-1.83-.43-3.19-1.67-4.71-2.75-3.47-2.25-7.17-4.21-10.32-6.89-7.3-4.53-14.29-9.56-21.44-14.17-2.87-2.25-5.1-5.2-8.32-7-1.25-.55-2.21-1.74-3.3-2.64-.83-.69-1.33-1.87-2.7-1.74-2.73-2.78-6.39-4.37-9.16-7.2-3.5-2.55-7.14-4.76-10.6-7.38-1.09-.75-2.09-1.63-3.14-2.44-1.17-.91-2.71-1.52-2.21-3.57-.62.29-1.02.47-1.58.73-.2-.34-.34-.77-.63-1.03-1.68-.44-.85-1.9-.58-3.12-3.2-1.71-1.6 1.32-4.99-2.05-.38-.44-1.19-.66-.87-1.69.19.13.34.23.57.39.24-.12.54-.28 1.03-.53.24.4.5.81.88 1.43 1.02-2.74 2.7-1.76 2.29.59 1.7.74 2.34 1.33 3.51 2.86 2.48-1.75-1.19-2.71-1.27-4.22-.82-.35-1.64-.7-2.8-1.12Zm34.86 25.75c-.95-.61-1.72-1.49-3.11-1.8 1.08.66 1.93 3 2.92 1.88.66 3.32 6.34 3.6.19-.08Zm1079.3-113.41c.49.49.96.97 1.55 1.55.88-.46 2.65-.57 1.15-1.58-.88 1.35-1.77-.26-2.61.32-.21-1.31-1.45-3.69-2.12-1.93-3.09-.6.67 1.28 2.02 1.64ZM639.67 293.75c-2.11-.17-5.82.18-4.89 1.7-.04.25-.63.27-.23.77 1.74-.74 3.67-.64 5.13-1.99 1.38.84 1.61.78 2.47-.76-.97-.2-1.98-1.09-2.47.27ZM983.05 68.09c-8.96-5.59-11.43-2.37-.58-.37.74 1.25 1.65 1.38 2.89 1.77.88.26 1.64 1.16 2.4 1.77 2.09.45 3.65 2.08 5.86 1.4-1.39-1.14-3.03-1.62-3.66-3.21-.78.4-1.56 1.19-1.91-.32-1.55-.66-3.6-.88-5-1.04ZM710.03 252.23c-.09.54-.01 1.15-.28 1.43-1.26 1.3-1.55 3.12-2.54 4.56-.33.48-.38 1 .29 1.52.83-.81 2.13-1.37.95-2.53 3.46-5.75 4.25-8.7-4.09 4.82 1.2-4.97 4.82-8.32 7.06-12.79.66-1.57 2.16-2.17 3.79-2.47.33-1.6-.72-1.3-1.84-1.46.7-1.38 2-.5 2.91-1 .89-.85.71-2.29 1.2-3.14.99-.97.84-1.94.58-3.14q-.71 1.29-1.85 1.83c.42-1.43 1.5-2.53 1.69-4.01.49-.63 2.24-.85.18-1.37 1.22-1.82 2.5-1.58 2.1-4.29-.53-2.44 3.07-1.92.62-4.4-.03 1.62-.12 2.18-1.76 2.6.81-2.71.39-5.9 1.89-7.78 1.22.07 1.8-.45 1.7-1.68.97-.47.01-1.21.23-1.69.33-.71.35-1.33.03-2-1.48 1.27-.23-2.04-1.15-2.71-.36-.46-.02-1.41-.11-2.13-.22-1.16-.63-2.26-.21-3.41-.2-.94-.71-1.86-.74-2.85-.06-.8.26-1.92-.16-2.34-1.03-1.25 1-1.15-.19-3.69-1.04-1.55-.07-3.41-2.1-4.05.04-1.9 1.21-1.75-.03-3.89-.29-1.53-4.06-3.25-2.37-4.5-1.7-1.15-2.34-2.98-1.32-4.74-.76.27-1.13.41-1.51.54-.09-.74-1.09-1.41-.52-2.13.99-1.26.02-2.09-.37-3.25-.33 1.19-.4.74-1.17.23.58-1.45.85-2.46-1.3-2.14 2-.68.8-.96-.23-1.79.94-1.24-.14-1.67-.73-2.46-1.18 1.14-.95-1.91-1.82-2.47-.81-.82-1.99-1.73-.85-3.16-.44-.86-.9-.6-1.66-.12-.42-2.24-4.03-1.89-2.23-3.88-.63.43-.47-.3-.65-.81-.49.54-.75.84-1.15 1.29-.07-.89-1.45-.95-.98-2.08.28.16.49.28.78.44-.38-1.55-.38-1.76-.93-1.91-1.68-.47-2.1-2.19-3.29-3.14-.09-1.32-.39-1.21-1.5-1.49-.68-.33-.42-.75.01-1.1-1.88-1.88-3.76-3.76-5.56-5.54-4.03.88-3.62-4.78-7.61-5.17-.85.69-2.01-1.24-3.03-1.69-1.27.13-2.14.09-2.07-1.46-.85 1.66-4.17-.08-5.46-.9-2.07.3-3.41-1.63-5.29-1.93-2.88-.15-5.06-2.36-8.01-2.53-.89-.07-1.73-.79-2.57-1.26-.41-.61-1.55-1.55-1.55-.32-2.73-.65-5.53-1.01-8.18-1.82-1.04-.71-2.7.13-3.13-1.29-2.58-.15-4.68-.86-7.16-1.55-1.27-.31-2.7.31-3.95-.51-.21.13-.83.51-1.23.46-.32-1.7-2.24-.32-1.74-2.58-.93.76-1.02.76-.32 1.56-2.27-.16-4.26 1.57-6.3.05-2.02 1.13-4.22.9-6.42 1.01-5.55 1.64-11.16 2.88-16.39 5.37-17.78 6.79-37.34 13.76-48.7 29.48-1.23 2.29-3.56 3.94-5.23 5.85-2.19 6.27-6.16 11.96-7.47 18.61-.2 1.39-.73 2.78-1.34 4.06-.66 1.38-.37 3-1.37 4.33-.5.66-.5 1.77-.52 2.68-.15 4.8-.02 9.59.95 14.22-1.26 2.72.34 5.73-.94 8.4-.14.6.75 2.1.4 2.66-.81 1.07-.21 2.39-.46 3.47-1.29 1.71-.3 5.79.9 7.3.32.53-.31.94-.55 1.46.86.67 1.57.89.55 1.67.67 1.17 1.41 2.39.97 4.08 1.37.57 1.47.76.48 1.85 1.9.55.66 2.53 1.21 3.74 2.46 6.22 3.67 12.77 7.49 18.37 5.35 7.3 9.09 15.68 15.74 21.99 1.48 2.38 3.54 3.72 6.05 4.71 2.41 1.3 4.93 2.12 7.38 3.38 1.53 1.2 3.3 1.92 5.15 2.2 1.6.55 2.98 1.09 4.69.88.56-.21 1.46.74 2.24.82 3.54.24 7 1.49 10.56.98 1.27-.16 2.46.87 3.78.09.29-.17.96.3 1.43.47.67-1.05 1.19-.73 2.12-.55 8.09-.27 16.1-3.12 24.24-3.9 4.05-1.26 8.4-1.67 12.43-3.01 2.38.05 9.4-4.11 8.97-.18 1.26-.82 1.51-.99.32-1.94 4.49-2.18 9.32-4.05 13.89-5.22 3.34-.75 6.52-2.21 9.83-3.43 4.97-1.09 10.08-2.95 14.76-4.95 3.73-3.38 9.27-4.89 11.58-9.56 5.61-7.42 1.24.11 10.07-14.19Zm-419.77-55.04c-.04 1.27-1.7 2.17-2.91 1.94.29-.66.32-1.29.1-2.2-1.33 2.63-4.34.08-.78 2.87-2.45 1.37-4.78 1.39-6.92 2.79-1.06 1.03-2.29 1.08-3.83.79 1.57-.66 1.84-.93 2.9-2.38-2.27-.17-3.85 2.39-5.36 1.59-2.35 1.77-4.15 2.93.13 1.91-1.85 1.89-4.41 2.19-6.71 3.7.38-2.05-.7-3.14-1.97-1.4 5.43 1.5-14.71 7.47-16.77 9.04.58-2.57 3.36-1.46 4.68-3.53-1.83-.06-1.89.32-3.35 1.03-1.55.57-3.22 1.14-4.64 2.11.71.92 1.2.47 1.97.33-.16.71-.46 1.21-.89 1.39-16.27 7.52-31.64 16.96-46.95 26.22-9.79 5.92-19.83 11.55-29.05 18.24-1.49 1.08-3.04 2.08-4.56 3.11-1.24 1.31-3.3.99-.4 2.7 1.73 1.25 3.83 1.93 5.42 3.41 1.27 1.17 3.12 1.25 4.37 2.42.35.33.75.93 1.07.89 1.21-.14 1.73.96 2.66 1.3.91.33 1.72.96 2.54 1.52 1.07.73 2.61.73 3.22 2.14 6.69 2.3 12.8 6.08 19.19 9.03 3.38 1.48 6.29 3.57 9.6 5.1 2.09.32 3.33 1.71 5.09 2.93 1.53-.52 4.46 1.33 5.74 2.46h1.93c.43 1.05 1.79 1.28 2.26 2.4.28-.15 2.76-.23 3.32.04 1.97.93 4.04 1.68 5.72 3.13-1.18.94 3.07 2.52 3.54 2.94.81 0 .88-1.24 1.8-.51-.15.17-.29.34-.52.6.75.29 1.71 1.57 2.27.63.99 1.36 2.42 1.63 3.44 1.52 4.42 1.87 7.97 4.22 12.67 4.96.95.01 1.91 1.23 2.84 1.21 1.37.1 2.51.91 3.49 1.54.88-.62 1.67.27 2.57.13.85-.13 1.67.63 2.48.98 3.67 1.07 7.2 2.66 10.87 3.76 11.89 3.38 23.2 6.27 35.28 9.3 3.61 1.34 7.52 1.32 11.17 2.51.8 1.31.52.46 1.79.48 3.53 1.37 7.29 1.37 10.74 2.92 5.52 2 11.12 3.36 16.76 4.91 7.45 2.45 14.67 3.11 22.19 5.76 2.18-.16 5.51 1.37 7.8 1.9 4.4 1.81 9.36 2.08 13.93 3.5 3.24.07 6.18 1.89 9.28 2.25 5.39 1.42 10.44 3.64 15.92 4.63 9.16 2.87 18.41 3.37 27.67 5.86 5.23 1.17 10.37 3.07 15.59 4.75 1.51.2 3 .96 4.54 1.05 1.92-.21 3.52 1.02 5.36 1.21.19.02.35.32.62.58-.58.11-1.07.21-1.56.31.55.34 1.3.11 1.61.38 1.61 1.48 3.59.47 5.34 1.3 4.39 1.54 9.26 1.17 13.48 3.25-2.36-.09-4.81.27-6.86-.98-.23-.22-.84-.32-1.11-.17-1.15.65-2.44.35-3.84.53 2.1 1.96 4.66 1.11 7 2.36.93.46 2.32-.04 3.01.57 1.36.82 2.71.31 4.03-.04.54 0 1.07.3 1.7.51.19-1.9-2.1-1.1-2.38-2.6 2.09.52 4.45-.2 5.88 1.36-1.34.71-1.74.84-3.25.26.57 1.01.98 1.73 1.4 2.48 1.55.29 4.89-.98 3.25 1.5 1.42-.52 1.51-2.24 3.02-2.25-.7-.92-1.11-.75-2.18-.97.74-1.39 3.32.77 3.01-1.11-1.63-.15-2.7-1.35-4.02-2.08-3.73-1.95-7.36-3.94-10.82-6.34-1.59-1.35-4.08-1.47-5.52-3.13-.53-.54-1.23-1.23-1.88-1.26-2.02.1-2.51-2.27-4.3-2.03-5.72-5.24-14.36-8.46-18.33-15.74-.27-.73-1.41-1.19-1.89-1.85-.95-2.05-2.15-3.74-3.42-5.62-.89-1.45-1.31-3.29-2.33-4.62-.7-.79-.71-1.5-.43-2.46 1.48 1.99 1.86 4.19 3.63 5.92.17-1.86-1.73-2.89-1.44-4.66.03-.18-.57-.47-.88-.7-.17-.13-.51-.28-.49-.35.3-1.24-1.23-1.5-1.51-2.48.1.6.21 1.21.34 1.99-1.89-1.24-2.7-4.7-4.22-6.6-1.37-3.26-3.95-5.77-5.42-8.91.44-.19.76-.33 1.41-.61-1.81-1.54-1.95-3.79-3.36-5.42.08-1.08.07-2.1-.91-2.72-.09-1 .31-2.12-.85-2.84-.32-2.39-1.7-3.73-2.5-6.14-.31 2.88.97 4.98 1.18 7.27-1.03.14-.97-1.52-1.25-2.2-.74-3.17-1.47-6.18-1.98-9.43-.01-.61.26-1.32-.45-1.76.82-.53-.09-1.01-.07-1.54-.45-2.49-1.09-5.07-.95-7.64-.18-2.22-1.29-4.35-.98-6.65-.69-1.01-.58-2.15-.43-3.22-.44-3.28-.84-6.51-1.02-9.84-.59-1.55-.51-1.03-.49-2.72-.42-1.34-.57-2.69-.01-3.97-.93-1.06-.24-2.33-.51-3.43-1.73-2.25-.57-4.68-.73-7.19-.58-3.91-.02-7.67.7-11.48.55-4.02.61-8.05 1.06-11.7.93-1.39-.14-3.24.92-4.25-.89-.69.14-1.33.13-2.02-.02-1.41.2-2.93 1.34-3.96-1-2.35.56-4.55.73-6.93.88-3.31 1.68-6.56 2.83-9.85 2.54-.21.23 2.3.43 3.63-.09 1.14-1.54 1.87-.87 3.2 1.16-1.28 2.7-5.76 2.77-8.39-2.39-1.52-.07-4.56 1.37-6.36 1.42 1.62 2.66-1.81 1.94-2.73-.81-1.39.26-2.37.17-3.56-.04-.59.7-1.23 1.15-1.96.18.46.3.74.51 1.28.29-1.35 1.75-1.97 1.18-3.36 1.35-1.19 2.07-2.58 2.5-4.21.08-.71.47-1.48 1.2-1.45-.4-1.03-.48-.99-1.23-.33-.21-1.59 1.79-5.06 2.23-2.19.04-1.05.91-1.43.54-2.32-.48.31-.68.64-1.09.17 1.02-.95 2.45-6.1 2.87-2.38 1.48-2.78 2.86-5.37 4.24-7.95-.53-.8-.8-1.46-.02-2.33 1.42-1.33 1.2-3.47 2.72-4.63.17.49.27.77.4 1.15.8-1.63 1.56-3.17 2.32-4.71-1.04-.4-1.07-.55-.36-1.24.21.18.37.32.89.77-.29-.96-.47-1.53-.71-2.31 2.13 2.13 3.84-5.17 5.43-6.83-.57-.45-.41-1.77.07-2.08 1.51-.52 1.96-1.74 2.31-3.2-8.68 2.16-17.18 6.26-25.85 8.26-1.71 1.33-4.01 1.24-6.04 1.89-1.65.69-3.44 1.2-5.21 1.53-20.05 4.33-39.61 10.95-58.51 18.38-11.56 4.35-23.05 8.81-34.91 12.3-5.62 2.34-12.08 2.62-17.51 5.43-12.72 3.75-24.74 10.26-37.17 15.09-1.1-.55.06-.73.78-1.13.44-2.19-1.72-.31-3.01-.08.48.32.8.54 1.12.76ZM789 154.27c2.39 2.77 3.29 6.53 4.85 9.7.2 1.97 1.21.7.53 3.32 1.41.23.92.82.46 1.66.59.84 1.02 2.09 1.06 2.95.91 1.04 2.65 1.26 1.17 2.44 1.01-.31 1.18.04 1.25.75-.06.66 1.31 1.33.46 1.84 1.43 1.04-.12 1.89 2.13 2.04-.78.69-.31 1.17-.22 1.72.1 2.71 2.58 4.74 2.88 7.31 0 1.9 1.15 3.2 1.93 4.74-.17-.89.58-1.87-.39-2.65.14-1.09-.86-1.81-.94-2.76-.03-2.01-1.54-3.55-1.5-5.48q-1.32-1.35-1.95-2.7c-.4-2.3-2.37-4.57-1.24-6.47 4.39 9.75 8.5 19.68 9.73 30.33-.23 1.09.03 1.88.72 2.74-.51.36-.12.77-.17 1.16-.06.53-.43 1.24-.21 1.56.59 1.92.92 3.95.92 5.97 1.18.93.07 2.38.88 3.56.63.91.39 2.41.59 3.63.56 1.06.31 2.42.53 3.42 1.09 3.23.74 6.57 1.32 9.93.69 8.46.88 17.31 1.54 25.62-.05 8.92-2.14 18.19-6.45 26.08-1.86 3.29-3.67 6.61-5.44 9.95-1.42 3.17-2.18 6.46-3.83 9.42-.97 3.86-3.92 7.06-6.16 10.35-2.77 4.32-6.44 8.09-10.32 11.23-.29 1.39-1.65 1.9-2.42 2.89-1.45 2.2-3.71 3.84-5.28 5.87-3.54 3.63-7.19 6.91-10.69 10.59-5.66 5.49-9.88 12.35-16.21 16.96-2.73.32-1.66 3.07-6.77 5.37-10.15 6.72-21.63 10.31-32.19 16.16 1.08-.17 2.17-.35 3.2-.51.09.42.13.64.21 1.03 1.11-.57 2.14.88 3.24-.09 1.61 1.39 3.48-.85 4.7.94 1.73.21 3.4-.32 4.98.41.29-.29.57-.58.8-.81.99.43 1.86 1.45 1.9-.2.87.22 1.67.43 2.47.63 1.54-1.21 2.15.49 3.42-1.66.25.53.41.86.6 1.26.98-.8 2 .3 2.98-.18q.64-1.21 2.16-2c.72 2.32 1.71-.64 4.31-.34.87.11 2.14-.16 2.86-.27.64.56.83-.61 1.43-.25.5.31.89-.98 1.66-.23 1.48 0 3.48-1.08 4.25 1.1 1.77-2.15 4.13-2.89 6.94-2.2.84.26 1.37-.24 2.07-.13.79.12 1.78.31 2.4-.04.86-.49 2.02-.02 2.45-.48 1.28-1.17 1.11.8 4.61-.33 1.61-.59 3.1-1.34 4.89-1.18 1.21-.85 2.44-1.38 3.84-.38 1.67-.59 3.34-.54 5.08-.22-.67.28-1.27.57-.29 1.15.89-.09.56-1.21 1.51-1.54 8.65-1.69 17.13-3.46 25.87-4.67.8-.38 1.93 0 2.89-.08 2.11-.26 4.25-.74 6.27-.99.62.14 1.42.26 1.92-.01 2.93-1.24 6.2-1.15 9.13-2.12 2.03-1.11 4.52-1.07 6.74-1.39 2.22-.93 4.76-1.22 7.06-1.78 7.04-.59 13.8-2.58 20.62-4.44 6.9-1.93 14.01-3.54 21.03-5.36 3.93-1.18 7.82-2.26 11.52-4 7.01-2.13 14.1-4.12 21.27-5.73 4.67-.54 9.17-1.55 13.81-2.08 3.01-.09 5.91-1.52 8.92-1.34.54-.84 1.48-.31 2.19-.61 1.42-.69 2.97-.82 4.53-.86 4.21-1.77 8.91-1.98 13.1-3.71 5.83-1.71 11.74-3.03 17.58-4.78-1.17-1.17 1.37-.54 1.96-1.03 6.55-2.54 13.21-4.5 19.77-7.04 5.31-.15 9.9-3.42 15.19-3.96 4.1-1.78 8.71-1.93 12.87-3.68 3.56-.85 6.86-2.24 10.45-2.99 2.53-.95 5.32-1.61 7.51-3.03 1.03-.07 2.05.18 3-.47 1.83-1.25 4.09-1.49 6.06-2.45.42.13-.03.62-.09 1.01 3.88-1.02 7.11-2.9 10.49-5.26-.8-.12-1.25-.19-1.7-.25 7.06-5.32-.98 3.01 7.4-2.23-.8-.09-1.45-.15-2.56-.27.99-.64 5.36-2.99 3.86-1.03 1.55.8 2.57-.59 3.83-.93-.03-.47-.95-.25-1.45-.43 7.31-4.16 16.28-5.79 23.76-9.81 2.27-.74 14.17-8.51 14.4-6.53-.52.71-1.64.45-1.67 1.34-2.06-.33-2.76.7-4.11 1.83 1.26-.01 2.36-.48 3.8-1.83 3.11 0 5.71-2.41 8.57-3.46.38-.96-2.38-.05.15-1.86 5.88-2.49 11.87-4.6 17.53-7.79 1.75-1.15 7.93-2.31 2.12.37 2.38-.38 4.34-.61 3.87-2.64 1.64-.82 3.24-1.61 4.85-2.42-3.67-3.01-7.82-5.21-11.09-8.68-4.75-4.31-8.87-9.12-14.41-12.53-2.52-2.6-19.37-10.28-16.66-13.39-1.74.95-2.32.07-3.7-.57-1.18-2.15-3.47-3.03-5.21-4.54-1.19-1.03-2.62-2.01-4.11-2.38-1.45-.36-1.68-1.47-2.37-2.33-.02-.03.27-.31.66-.74-1.39.24-2.4-.07-3.04-1.06-1.41 1.32-1.22-.83-1.86-1.91-.48 3.2-14.01-5.27-16.2-6.75-5.23-3.13-9.83-7.31-15.26-10.2-3.85-2.08-8.3-3.32-11.9-5.43-1.34-.19-2.59-.82-3.78-1.44-2.86-1.53-6.01-2.16-8.76-4 2.06-1.3-3.21-2.18-3.93-2.9-1.37 1.58-7.27-3.19-9.3-3.84-1.27-.71-2.33-2.01-3.66-2.31-2.09-.51-2.94-2.25-4.94-2.26-5.44-2.52-10.28-4.96-15.85-7.07-4.81-2.16-10.01-3.37-14.53-6.16-.6-.42-1.28-.87-2.14-.73-3.39-1.25-6.25-3.71-9.71-4.81-2.23-1.17-4.73-1.86-6.36-3.96-1.62 1.05-4.19-1.21-6.11-1.45-10.67-3.23-21.43-6.01-32.29-8.61-9.41-3.02-18.67-5.2-28.38-7.47-5.93-1.74-12.22-1.66-18.24-3.1-7.03-1.51-13.79-3.79-20.77-5.13-7.57-1.52-15.08-2.2-22.73-3.47-8.32-.75-16.25-1.66-24.61-2.46-1.36.17-2.61-.23-3.83-.74-.53-.08-1.37.42-1.61.19-1.51-.98-3.09-.17-4.73-.45-.77-.07-1.52-.47-2.28.02-1.04-.76-2.28-.36-3.34-.53-.6-.95-1.14-.78-1.95-.46-4.96-.06-9.73-1.07-14.77-1.14.64-.52.99-.8 1.6-1.28-2.05-.29-2.92 1.8-4.94.5-.77-.17-1.58.25-2.31-.36-.21-.18-1.19.48-1.38.3-.57-.56-.93.07-1.35.02-2.07-.88-4.33-.09-6.43-.94-1.29.76 4.28 1.4 1.96 3.44 1.61-.29 4.4.62 3.08 2.24.51.38 1.25-.08 1.73.66 1.19.9 2.26 2 3.34 2.94 2.41 1.95 3.59 5.17 6.53 6.52-1.78 2.26 2.34 1.28.01 4.23.16.68 1.18.22 1.09 1.17-.03.28.39.67-.03 1.03.93.21-.34.89.37 1.24 2.17-2.19 9.58 12.64 5.08 8.34l.22-.22c-.43-1.48-1.57-.49-2.43-.27-.54-.94-1-1.77-1.46-2.56-2.43 1.45 4.01 4.69 4.81 6.42.18-.84.33-1.57.69-2.51ZM520.12 377.35c-1.13-.73-.8.62-1.16.67-1.1-1.08-1.46-2.57-2.98-1.2.07-.99-1.29-.22-1.3-1.35-.45-.08-2.11.03-.76-1.29-6.7.08-5.31-4.58-7.24-2.96-1.09-.81-2.3-1.42-3.61-1.66 1.54-.36-5.17-3.67-5.43-3.37-.76-.1-1.31-.18-2.18-.3.71 1.14.66 1.35.24 2.36 1.84-.99 2.02.58 3.1 1.45 1.09.6 2.7 2.39 3.46.58.45.46 1 .75.41 1.15.55.62 1.07 1.2 1.57 1.77.8-.99 3.4-.3 2.22.79 1.8 1.72 3.21 1.2 5.07 2.62 1.44 1.64 1.16-.59 3.19.75.41 1.13 5.38 3.41 6.83 3.41.85 1.15 2.62.49 3.42 1.73 1.11-.38 1.71.57 2.63 1.25 1.64-1.97-1.94-2.13-3.39-3.24-.98-.67-4.84-.39-3.63-2.22-.74-.26-1.19-.29-.46-.95Zm666.99-182.25c-3.94.9-1.75-2.06-4.14-1.88-.46-1.65-.26 0-2.38-1.02.46.5.61.67.76.84-.92.69.87 2.22 1.51 1.1 1.99 1.32 2.15 4.27 4.68 4.89 1.41-.44 3.66 3.22 5.03 4.15 1.81 2.34 4.59 3.45 6.61 5.62 1.27 1.26 4.61 5.88 5.53 2.66-2.04-.74-2.64-2.76-4.62-3.68-.98-.41-1.75-1.29-2.65-1.99.65-.51.07-.82-.13-1.33-.36.26-.5.37-.71.53-.12-1.31-.25-1.76-1.65-1.55.23-.29.36-.45.41-.52-1.27-.82-2.28-2.86-3.92-2.83-.43-.53-.8-1.38-1.17-1.38-1.41-.04-1.06-1.37-2.65-1.19 2.01-1.71-2.94-.73-.53-2.44ZM657.76 459.05c4.46.03 7.8 1.04 11.97.4 1.57-1.46 3.78.96 4.82-.36.94.89 2.35.37 3.42.44 1.7-2.17-7.37-.14-8.66-1.24-1.57-.63-3.67 1.05-5.2-.18-.06-.05-.37.24-.58.28-2.22.8-3.62-.82-5.76.65Zm-167.78-97.57c-3.04-2.62-1.85.82-3.77-3.34-.94 1.06-2.83-1.13-3.59-1.85-.57-.82-1.23-1.27-1.96-1.81-.78-.58-.92-1.81-1.97-2.2-.55-.23-.5.64-.29.94 2.06 2.07 3.83 4.05 5.97 5.98.21.19.66.19.78.4.93 1.19 3.51 1.25 1.47 3.17 1.42-.54 2.31-.89 3.36-1.29Zm213.31 97.59c1.41-.15 3.4.34 4.55-.21 1.3-.96.57 1.03 3.86-.34.89-1.47-1.41-1.06-2.18-.92-1.37.43-8.99-1.16-6.23 1.48ZM944.32 53.38c-.21 1.18 3.13 1.28 3.69 2.14.43 1.5 1.92.94 2.77 1.63 1.01.82 2.34.65 3.67.16-.65-.27-1.3-.54-1.96-.81 0-1.39-1.43-.41-1.84-1.12-.53.88-.86-.6-1.35-.11-.7-1.2-1.88-1-2.92-.97-.63-.77-1.12-1.07-2.07-.93Zm94.29 41.86c-.4.55.21.79.39.86 2.2.92 2.98 3.53 5.93 2.96-1.17-.93-2.65-1.39-.67-2.14-1.4-.91-2.73-1.8-4.61-2.1.34.39.49.56.95 1.08-.93-.3-1.46-.47-2-.65Zm9.22 6.3c.87-.63 2.91.83 3.54 1.6.31.46.77 0 .83.03 1.27.62 2.88.42 3.9 1.71.43.41 1.58.79 2.23.46-.41-.58-.59-1.7-1.17-.81-1.08-.86-2.29-1.39-3.65-1.75-.91-.24-1.65-1.1-2.55-1.46-.91-.36-1.97-.28-2.71-1.15-1.4-.36-.92.55-.43 1.37ZM473.37 351.39c.74-.48-2.2-3.42-2.55-4.55.53-1.25-1.02-1.68-1.06-2.7-1.55-.38-.71-2.09-2.5-2.18 2.29 3.28 3.12 7.11 6.1 9.44Zm219.06 107.73c2.95-.2 5.74-.1 8.68-.06.57-1.47-3.25-1.38-4.29-.98-.47.14-1.12.47-1.39.28-.85-.58-1.72-.12-2.56-.27-.56.04-.43.41-.43 1.02Zm407.29-327.87c-1.47-.77-2.49-2.25-4.1-2.84-1.57-.58-2.65-2.17-4.48-2.43.37 1.23 1.75 1.32 2.09 2.39 2.34.28 4.54 3.13 6.49 2.88ZM534.65 393.23c-.78-1.44.54-.95 1.71-1.02-1.3-1.15.11-.55-.42-1.5-1.24 1.39-2.45-1.25-2.89 1.21-1.09-1-1.72-.08-2.75.53.87.78 1.48-.14 2.16-.21.79.4 1.24 1.12 2.19.99Zm144.07 65.84c1.3.1 2.79-.19 4.02.04.59.27.87.53 1.62.06.55-.35 1.72-.48 2.4.38 1.33-1.38 2.85.53 4.14-.72-1.83-.59-3.77-.09-5.79-.25-2.16.18-4.35-.47-6.4.49ZM962.46 60.91c2.4 1.11 4.53 2.17 7.41 2.16-1.25-.78-2.15-1.35-2.92-1.83-1.61.8-2.76-1.12-4.49-.33Zm-22.64-8.01c3.52-1.67-1.34-.77.72-2.74-1.8.56-2.53.8-4.12.3.53.6 1.53.66 1.7 1.06.35.84 1.08.9 1.69 1.37ZM787.63 454.68c2.71-.08 4.69.21 7.42-.17-1.95-1.37-1.8.12-2.3-.72-2.08 1.14-4.71-.29-6.69.71.99.12 1.02.77 1.12 1.64.51.02.26-.9.46-1.45ZM30.07 249.85c.3-1.2-2.86-2.67-3.95-3.4-1.32.99 1.23 1.43 1.4 2.37.3.6 1.72 1.18 2.56 1.03Zm580.25 50.11c.27-.64-4.08-.52-4.47-.3-1.54.71-1.32-1.28-2.64 1.05 2.69-.28 4.9-.52 7.11-.75ZM703.63 3.58c1.53.06 2.92-.24 4.39.37.18-.42.34-.79.76-1.76-2.33 2.11-4.05-1.13-5.15 1.39Zm52.29 452.73c.76-.6 1.07 1.13 2 .51.57-.38 1.49-.21 1.98-.27-.88-1.87-2.46-.58-3.98-.24Zm-35.08-231.68q1.48-1.98.94-3.55c-1.12.97-1.14 1.05-.94 3.55ZM16.48 239.36c-.35.14-.7.28-1.34.53 1.47.73 2.51 1.24 3.68 1.81-.16-1.8-1.7-1.83-2.33-2.35Zm1116.55-87.26c1.27.88 2.28 2.3 3.84 2.64-1.04-1.26-1.91-2.64-3.84-2.64Zm-31.62-19.65c1.36 1.02 1.81 1.99 3.68 1.72-3.16-1.33-.61-2.77-3.68-1.72ZM439.19 247.9v3.36c1.62.32.95-2.52 0-3.36Zm777.68-19.59c1.57.25 1.64-.35 2.19-1.79-1.57-.25-1.64.35-2.19 1.79Zm-767.61 74.17c.41-1.43-.86-2.19-1.25-3.27.31 1.04-.14 3.5 1.25 3.27Zm409.08 144.45c.33 1.12 2.69-.26 3.89-.19-.15-1.56-2.81.26-3.89.19ZM7.35 214.22c-1.2-1.9.82-1.44.19-2.81-.58.39-1.17.79-1.77 1.19 1 .13-.21 1.78 1.57 1.62Zm1.39-3.17c1.13-1.53 1.26.21 2.56-.37-.61-1.17-.97-1.28-1.93-.76-.69-1.93-.68-.24-.63 1.12Zm774.07 243.56c-1.43 1.91.42 1.36 1.77 1.43-.77-2.13-.76-.34-1.77-1.43Z" />
</svg>