<?xml version="1.0" standalone="no"?>
<!DOCTYPE svg PUBLIC "-//W3C//DTD SVG 20010904//EN"
 "http://www.w3.org/TR/2001/REC-SVG-20010904/DTD/svg10.dtd">
<svg version="1.0" xmlns="http://www.w3.org/2000/svg"
 width="960.000000pt" height="651.000000pt" viewBox="0 0 1920.000000 1302.000000"
 preserveAspectRatio="xMidYMid meet">

<g transform="translate(0.000000,1302.000000) scale(0.100000,-0.100000)"
fill="#000000" stroke="none">
<path d="M5523 11590 c-40 -3 -76 -10 -80 -13 -11 -12 -21 -269 -27 -702 -6
-444 -23 -1063 -34 -1225 l-7 -105 -150 0 -150 0 -1 235 c0 129 -4 245 -8 256
-9 27 -86 44 -205 44 -47 0 -102 5 -121 10 -45 13 -408 14 -442 1 -37 -14 -42
-44 -43 -306 -1 -254 -13 -702 -20 -780 -3 -27 -7 -447 -11 -933 -7 -979 -7
-983 49 -1017 29 -17 66 -19 447 -27 274 -6 423 -5 438 2 21 9 22 13 22 167 0
87 4 205 10 263 5 58 12 249 15 425 7 437 20 744 32 756 5 5 55 8 113 7 l104
-3 8 -35 c10 -48 37 -1380 36 -1772 -1 -344 -3 -334 56 -365 26 -14 73 -16
296 -17 279 0 302 3 340 49 10 12 13 391 15 2073 1 1131 5 2260 9 2507 8 445
8 450 -13 483 l-21 32 -292 -1 c-161 -1 -326 -5 -365 -9z"/>
<path d="M1636 11573 c-22 -7 -51 -13 -63 -13 -12 0 -42 -11 -65 -24 l-43 -24
-6 -148 c-4 -82 -3 -257 2 -389 6 -132 12 -337 15 -455 3 -118 7 -224 9 -236
9 -44 41 -46 736 -48 l654 -1 0 -200 c0 -110 -5 -328 -11 -485 -7 -173 -11
-716 -10 -1382 1 -1081 1 -1097 21 -1112 22 -16 207 -51 330 -62 44 -4 172 -8
284 -8 l204 -1 21 28 c20 27 21 43 28 415 3 213 9 972 13 1687 5 967 10 1302
18 1307 7 4 59 5 117 3 269 -12 650 -25 905 -31 263 -6 282 -5 303 12 22 18
23 28 33 254 8 163 8 333 1 553 -9 293 -11 319 -28 332 -13 10 -48 15 -114 15
-52 0 -115 5 -140 11 -70 16 -3160 18 -3214 2z"/>
<path d="M6585 10396 c-26 -20 -45 -96 -45 -181 0 -45 -5 -107 -11 -136 -5
-30 -12 -187 -14 -349 -2 -162 -6 -351 -9 -420 -6 -127 -12 -365 -22 -820 -3
-140 -9 -354 -14 -475 -6 -121 -9 -506 -9 -855 1 -679 2 -693 50 -717 19 -10
220 -11 909 -7 983 5 911 0 929 73 5 20 10 133 11 251 1 276 17 256 -199 254
-86 -1 -250 -7 -366 -13 -249 -13 -535 -14 -554 -2 -11 7 -14 67 -17 305 -2
162 -8 335 -14 383 -12 105 -13 250 -2 257 12 7 575 36 689 34 89 -1 105 2
132 21 l31 23 -2 226 -3 226 -30 9 c-17 6 -189 11 -393 13 -252 1 -367 5 -375
13 -13 13 -27 565 -18 711 l6 95 268 7 c148 3 279 9 292 12 13 3 139 6 280 6
270 1 303 5 320 47 10 24 27 609 23 815 -3 145 -5 170 -21 185 -17 17 -68 18
-913 19 -614 0 -900 -3 -909 -10z"/>
<path d="M1829 9955 c-3 -2 -68 -7 -145 -10 -158 -5 -169 -11 -178 -88 -8 -73
-26 -497 -26 -623 0 -67 -5 -168 -11 -225 -14 -131 -18 -455 -23 -1899 -3
-635 -10 -1522 -16 -1970 -6 -448 -13 -1024 -15 -1280 -5 -536 -20 -1202 -34
-1505 -5 -115 -10 -353 -10 -528 l-1 -317 32 -35 33 -34 1345 -5 c740 -4 1565
-9 1833 -12 542 -7 603 -2 644 45 13 14 23 33 23 41 3 301 -1 862 -6 874 -4 9
-21 24 -38 34 -28 15 -99 17 -756 23 -399 3 -732 8 -740 12 -8 3 -181 8 -385
11 -558 8 -834 17 -844 30 -9 11 -25 1056 -37 2331 -10 1185 -9 2583 4 3085
14 556 16 1041 6 1634 l-7 388 -33 14 c-26 11 -99 14 -322 14 -159 0 -291 -2
-293 -5z"/>
<path d="M9170 6950 c-52 -5 -175 -10 -272 -13 -200 -5 -219 -11 -238 -74 -6
-21 -15 -106 -19 -189 -5 -83 -11 -156 -15 -163 -4 -6 -9 -152 -11 -324 -2
-171 -8 -460 -14 -642 -6 -181 -13 -402 -16 -490 -3 -88 -10 -289 -16 -446
-10 -222 -9 -413 0 -860 8 -325 12 -936 10 -1409 -3 -802 -3 -836 15 -863 32
-48 62 -56 243 -67 92 -6 206 -15 253 -20 47 -6 133 -10 191 -10 59 0 131 -5
160 -11 67 -13 1140 -20 1219 -8 30 5 82 11 115 15 69 6 112 21 139 46 11 10
23 18 27 18 11 0 105 150 135 215 15 33 32 71 38 83 6 13 10 58 9 100 -1 43 4
203 12 357 8 154 17 395 20 535 3 140 10 345 15 455 13 269 34 2256 25 2342
-4 37 -11 208 -16 378 -9 326 -18 435 -45 550 -15 63 -27 93 -70 175 -26 49
-220 190 -261 190 -9 0 -41 8 -72 19 -106 35 -127 41 -154 41 -14 0 -37 4 -51
10 -14 5 -59 12 -99 14 -39 2 -121 9 -182 15 -60 6 -153 13 -205 16 -52 3
-131 10 -175 15 -92 11 -555 11 -695 0z m922 -803 c37 -7 79 -22 95 -33 27
-20 28 -26 34 -125 4 -57 8 -284 8 -504 1 -220 6 -605 12 -855 6 -250 12 -673
14 -940 3 -267 9 -554 14 -638 5 -84 5 -198 1 -255 -5 -56 -10 -176 -11 -267
-3 -204 -12 -227 -98 -257 -61 -23 -692 -44 -758 -27 l-23 6 0 242 c0 132 5
293 10 358 6 64 12 255 14 425 4 341 32 1292 41 1363 7 53 29 861 29 1035 0
66 -4 186 -9 267 l-8 147 29 11 c15 6 76 15 134 20 197 17 313 30 318 35 9 8
83 4 154 -8z"/>
<path d="M15509 6766 c-6 -5 -440 -20 -627 -21 -148 -1 -153 -2 -177 -26 l-24
-24 -11 -510 c-6 -280 -15 -580 -20 -665 -6 -85 -10 -350 -10 -590 0 -239 -5
-489 -10 -555 -6 -66 -12 -327 -15 -580 -2 -253 -6 -521 -9 -595 -3 -74 -8
-373 -11 -665 -3 -291 -8 -679 -10 -861 -5 -340 -1 -385 35 -400 39 -16 94
-24 205 -29 472 -21 594 -25 834 -25 205 0 272 3 278 13 4 6 6 587 4 1290 -2
910 0 1277 8 1277 15 0 36 -36 56 -100 10 -30 21 -64 26 -75 4 -11 22 -58 39
-105 18 -47 44 -110 57 -140 14 -30 32 -73 40 -95 8 -22 28 -68 44 -103 16
-35 29 -67 29 -73 0 -5 4 -17 9 -27 19 -35 58 -128 65 -152 4 -14 11 -34 16
-45 4 -11 22 -58 40 -105 18 -47 36 -94 40 -105 5 -11 23 -58 41 -105 17 -47
35 -94 39 -105 5 -11 22 -58 40 -105 18 -47 36 -94 40 -105 8 -20 66 -171 80
-210 4 -11 21 -54 39 -95 17 -41 31 -81 31 -88 0 -7 4 -20 9 -30 13 -25 37
-80 56 -132 9 -25 21 -54 25 -65 5 -11 19 -47 31 -80 13 -33 27 -64 31 -70 4
-5 8 -18 9 -30 1 -34 52 -116 91 -148 22 -18 52 -31 70 -33 223 -14 359 -16
406 -4 l52 12 0 52 c0 29 -7 66 -14 82 -8 16 -34 81 -56 144 -23 63 -59 162
-80 220 -21 58 -46 128 -55 155 -10 28 -21 59 -26 70 -4 11 -21 58 -39 105
-41 108 -43 114 -74 183 -14 32 -26 60 -26 63 0 3 -6 20 -14 37 -14 34 -73
178 -86 212 -4 11 -22 51 -39 88 -17 37 -31 72 -31 78 0 5 -4 17 -9 27 -13 25
-37 80 -56 132 -20 55 -28 75 -48 120 -9 19 -23 55 -32 80 -26 71 -69 170 -86
202 -5 10 -9 24 -9 31 0 7 -13 41 -30 75 -16 34 -30 67 -30 72 0 6 -4 18 -9
28 -15 28 -68 143 -87 187 -9 22 -29 67 -44 100 -26 55 -38 81 -100 220 -43
98 -78 172 -143 305 -36 74 -62 139 -58 143 5 5 89 13 187 18 603 30 551 22
627 96 83 81 92 132 83 476 -4 149 -11 434 -15 632 -3 198 -9 365 -13 370 -3
6 -9 62 -12 125 -13 247 -32 394 -53 426 -22 35 -125 84 -174 84 -24 0 -64 5
-89 11 -25 6 -92 12 -150 14 -58 1 -224 8 -370 13 -257 11 -722 16 -731 8z
m874 -706 c28 -4 58 -16 70 -29 21 -21 22 -29 25 -344 4 -351 0 -386 -47 -439
-27 -31 -30 -31 -152 -40 -68 -4 -161 -12 -207 -16 -45 -4 -89 -4 -97 1 -13 7
-15 67 -15 441 0 238 3 436 8 440 8 9 341 -2 415 -14z"/>
<path d="M12275 6689 c-384 -12 -526 -18 -617 -25 -83 -7 -89 -9 -112 -38 -16
-21 -25 -50 -29 -91 -3 -33 -10 -89 -16 -125 -6 -41 -10 -464 -10 -1165 0
-605 -5 -1462 -11 -1905 -6 -443 -13 -958 -15 -1145 -4 -357 8 -735 25 -797
13 -46 37 -54 175 -62 84 -5 1823 -21 2275 -21 152 0 201 10 220 46 12 22 38
334 40 478 0 58 4 109 7 114 3 5 10 138 14 296 5 157 12 331 15 386 8 145 12
143 -198 143 -191 0 -703 19 -768 29 -25 3 -274 9 -555 12 l-510 6 0 295 c1
301 13 640 24 640 3 0 308 0 676 0 809 0 834 3 835 83 0 16 5 37 10 47 21 39
30 264 15 365 -15 106 -18 107 -360 116 -433 11 -887 10 -1032 -3 -100 -8
-135 -9 -146 0 -19 16 -35 1035 -16 1058 10 12 142 14 903 14 530 0 919 4 959
10 126 18 142 40 152 200 3 47 10 141 15 210 5 69 13 249 16 400 6 290 -1 382
-33 405 -13 10 -140 14 -513 19 -1022 12 -1211 13 -1435 5z"/>
<path d="M3110 6662 c-14 -1 -58 -8 -98 -14 -63 -11 -78 -17 -103 -45 -27 -32
-29 -39 -29 -121 0 -48 -5 -116 -10 -152 -7 -43 -6 -372 1 -960 9 -735 9
-1037 -3 -1690 -8 -437 -12 -804 -8 -815 18 -49 27 -50 580 -50 570 0 537 -4
567 64 14 32 14 108 7 681 -4 355 -8 706 -8 780 l-1 135 130 0 c166 -1 287
-12 297 -28 5 -6 5 -129 1 -272 -10 -317 -9 -358 5 -805 12 -382 18 -450 36
-476 17 -22 169 -33 476 -33 254 0 259 1 281 55 20 52 -14 3591 -36 3612 -9 9
-181 31 -245 32 -36 0 -81 5 -101 10 -20 6 -83 12 -140 15 -57 2 -135 6 -174
9 -38 3 -151 10 -250 17 -99 6 -211 14 -250 19 -38 5 -110 10 -160 10 -49 0
-110 6 -135 12 -39 10 -553 18 -630 10z m1184 -793 c47 -13 57 -23 73 -70 14
-37 39 -187 53 -304 4 -38 11 -80 15 -91 4 -13 2 -25 -6 -29 -16 -10 -134 -7
-229 7 -41 6 -109 13 -150 17 l-75 6 -13 70 c-7 39 -17 130 -22 203 -5 72 -12
137 -15 142 -10 16 4 48 23 53 36 10 309 6 346 -4z"/>
<path d="M5674 6103 c-20 -3 -35 -12 -42 -26 -16 -35 -32 -339 -32 -617 0
-140 -5 -340 -10 -445 -5 -104 -12 -336 -15 -515 -2 -179 -9 -424 -14 -545
-15 -316 -26 -654 -26 -770 0 -188 32 -1447 41 -1594 5 -97 7 -106 32 -125 37
-30 69 -33 417 -50 350 -18 965 -20 1375 -6 151 5 343 10 425 11 218 3 248 11
315 79 51 52 65 73 89 133 11 27 29 299 40 627 17 475 18 573 12 1550 -2 305
0 771 4 1035 3 272 2 570 -3 687 -9 206 -10 207 -42 272 -34 67 -97 136 -124
136 -8 0 -17 4 -20 8 -9 15 -227 57 -372 71 -38 4 -75 10 -81 14 -6 4 -62 9
-124 12 -475 21 -589 26 -699 30 -69 3 -181 10 -250 15 -128 10 -840 20 -896
13z m1694 -879 c50 -4 85 -11 87 -17 11 -43 26 -130 29 -177 6 -95 36 -431 46
-516 6 -44 10 -154 11 -245 0 -90 6 -258 13 -374 15 -235 13 -602 -3 -684 -6
-29 -11 -103 -11 -163 0 -60 -4 -139 -9 -176 -6 -37 -15 -133 -21 -214 -6 -81
-17 -180 -25 -220 -35 -185 -31 -182 -245 -186 -243 -5 -680 14 -695 30 -10
10 -9 68 1 263 7 138 18 294 23 348 6 54 11 200 11 325 0 125 5 279 10 342 5
63 11 461 14 883 3 607 7 771 17 783 11 14 51 15 339 10 179 -4 362 -9 408
-12z"/>
</g>
</svg>
