<svg version="1.0" xmlns="http://www.w3.org/2000/svg"
 width="1168.000000pt" height="60.000000pt" viewBox="0 0 1168.000000 60.000000"
 preserveAspectRatio="xMidYMid meet">
<g transform="translate(0.000000,60.000000) scale(0.035000,-0.035000)"
fill="#000000" stroke="none">
<path d="M5158 374 c-8 -7 -283 -13 -553 -12 -104 1 -203 1 -220 1 -217 -4
-680 -2 -711 3 -44 6 -146 -11 -176 -29 -12 -8 -26 -8 -50 0 -22 8 -132 12
-333 13 -165 1 -304 1 -310 -1 -10 -1 -112 -3 -520 -7 -99 -1 -211 -6 -250
-11 -38 -6 -76 -6 -85 -1 -9 5 -43 9 -76 10 -110 3 -348 4 -489 3 -338 -3
-609 -2 -857 3 -272 5 -308 1 -235 -29 18 -8 62 -17 97 -21 53 -5 735 -20 910
-20 198 0 841 15 866 20 19 3 34 2 38 -5 10 -16 85 -14 152 4 44 11 67 12 97
4 59 -16 185 -18 252 -4 40 8 68 9 85 2 24 -9 392 -15 555 -9 103 4 212 6 250
4 92 -4 1097 -1 1245 3 96 3 182 6 190 6 8 0 45 -4 82 -10 41 -6 82 -6 108 0
23 5 46 7 51 3 13 -8 262 -6 364 3 91 8 161 9 255 3 75 -4 229 15 244 30 13
13 53 13 61 0 4 -6 -7 -10 -26 -10 -25 0 -30 -3 -22 -11 17 -17 173 -16 271 0
74 13 84 13 95 -2 10 -14 50 -16 309 -19 163 -2 291 0 285 4 -7 4 0 11 17 18
16 6 27 13 24 15 -2 3 -69 7 -149 9 -79 2 -270 10 -424 17 -154 7 -296 12
-315 11 -73 -3 -689 -13 -769 -12 -46 1 -102 7 -125 14 -43 14 -197 21 -208
10z"/>
<path d="M7554 340 c-6 -6 -84 -12 -185 -14 -96 -2 -180 -4 -186 -5 -19 -1
-16 -51 2 -51 8 0 15 5 15 11 0 6 8 8 18 5 9 -3 31 -5 47 -5 90 0 131 -3 140
-12 13 -13 60 -11 147 8 73 15 79 15 91 0 11 -15 17 -15 80 8 69 26 137 33
137 15 0 -5 -6 -10 -14 -10 -7 0 -38 -8 -67 -17 -47 -15 -50 -18 -29 -24 14
-4 41 -7 60 -7 21 0 27 2 15 5 -15 4 -9 9 25 19 57 17 99 18 105 1 4 -8 36
-13 105 -15 l100 -4 0 26 c0 22 4 26 30 26 17 0 30 -4 30 -8 0 -5 13 -7 29 -4
22 3 32 -1 41 -18 10 -20 16 -21 83 -14 40 4 80 11 91 16 12 6 73 6 175 -2
126 -10 163 -10 181 0 16 9 86 14 207 16 162 4 183 2 183 -12 0 -13 12 -15 83
-11 45 3 108 11 140 18 42 9 69 10 102 2 25 -6 48 -7 50 -2 9 14 -11 19 -71
19 -33 0 -99 0 -149 -1 -49 0 -265 6 -480 12 -425 13 -669 16 -755 10 -91 -6
-524 10 -534 20 -13 12 -29 12 -42 -1z"/>
</g>
</svg>
