<svg id="visual" viewBox="0 0 900 600" width="900" height="600" xmlns="http://www.w3.org/2000/svg" xmlns:xlink="http://www.w3.org/1999/xlink" version="1.1"><g><g transform="translate(65 474)"><path d="M0 -13.1L9.3 -9.3L13.1 0L9.3 9.3L0 13.1L-9.3 9.3L-13.1 0L-9.3 -9.3Z" fill="#001122"></path></g><g transform="translate(59 5)"><path d="M0 -11L7.8 -7.8L11 0L7.8 7.8L0 11L-7.8 7.8L-11 0L-7.8 -7.8Z" fill="#001122"></path></g><g transform="translate(45 231)"><path d="M0 -3L2.1 -2.1L3 0L2.1 2.1L0 3L-2.1 2.1L-3 0L-2.1 -2.1Z" fill="#001122"></path></g><g transform="translate(438 263)"><path d="M0 -8L5.7 -5.7L8 0L5.7 5.7L0 8L-5.7 5.7L-8 0L-5.7 -5.7Z" fill="#001122"></path></g><g transform="translate(453 482)"><path d="M0 -8L5.7 -5.7L8 0L5.7 5.7L0 8L-5.7 5.7L-8 0L-5.7 -5.7Z" fill="#001122"></path></g><g transform="translate(728 152)"><path d="M0 -12L8.5 -8.5L12 0L8.5 8.5L0 12L-8.5 8.5L-12 0L-8.5 -8.5Z" fill="#001122"></path></g><g transform="translate(128 255)"><path d="M0 -2L1.4 -1.4L2 0L1.4 1.4L0 2L-1.4 1.4L-2 0L-1.4 -1.4Z" fill="#001122"></path></g><g transform="translate(729 448)"><path d="M0 -11L7.8 -7.8L11 0L7.8 7.8L0 11L-7.8 7.8L-11 0L-7.8 -7.8Z" fill="#001122"></path></g><g transform="translate(10 519)"><path d="M0 -12L8.5 -8.5L12 0L8.5 8.5L0 12L-8.5 8.5L-12 0L-8.5 -8.5Z" fill="#001122"></path></g><g transform="translate(695 468)"><path d="M0 -3L2.1 -2.1L3 0L2.1 2.1L0 3L-2.1 2.1L-3 0L-2.1 -2.1Z" fill="#001122"></path></g><g transform="translate(279 72)"><path d="M0 -9L6.4 -6.4L9 0L6.4 6.4L0 9L-6.4 6.4L-9 0L-6.4 -6.4Z" fill="#001122"></path></g><g transform="translate(722 33)"><path d="M0 -12L8.5 -8.5L12 0L8.5 8.5L0 12L-8.5 8.5L-12 0L-8.5 -8.5Z" fill="#001122"></path></g><g transform="translate(358 210)"><path d="M0 -12L8.5 -8.5L12 0L8.5 8.5L0 12L-8.5 8.5L-12 0L-8.5 -8.5Z" fill="#001122"></path></g><g transform="translate(350 408)"><path d="M0 -12L8.5 -8.5L12 0L8.5 8.5L0 12L-8.5 8.5L-12 0L-8.5 -8.5Z" fill="#001122"></path></g><g transform="translate(657 202)"><path d="M0 -2L1.4 -1.4L2 0L1.4 1.4L0 2L-1.4 1.4L-2 0L-1.4 -1.4Z" fill="#001122"></path></g><g transform="translate(513 70)"><path d="M0 -1L0.7 -0.7L1 0L0.7 0.7L0 1L-0.7 0.7L-1 0L-0.7 -0.7Z" fill="#001122"></path></g><g transform="translate(65 283)"><path d="M0 -5L3.5 -3.5L5 0L3.5 3.5L0 5L-3.5 3.5L-5 0L-3.5 -3.5Z" fill="#001122"></path></g><g transform="translate(875 575)"><path d="M0 -5L3.5 -3.5L5 0L3.5 3.5L0 5L-3.5 3.5L-5 0L-3.5 -3.5Z" fill="#001122"></path></g><g transform="translate(553 383)"><path d="M0 -5L3.5 -3.5L5 0L3.5 3.5L0 5L-3.5 3.5L-5 0L-3.5 -3.5Z" fill="#001122"></path></g><g transform="translate(45 189)"><path d="M0 -1L0.7 -0.7L1 0L0.7 0.7L0 1L-0.7 0.7L-1 0L-0.7 -0.7Z" fill="#001122"></path></g><g transform="translate(885 205)"><path d="M0 -3L2.1 -2.1L3 0L2.1 2.1L0 3L-2.1 2.1L-3 0L-2.1 -2.1Z" fill="#001122"></path></g><g transform="translate(684 193)"><path d="M0 -2L1.4 -1.4L2 0L1.4 1.4L0 2L-1.4 1.4L-2 0L-1.4 -1.4Z" fill="#001122"></path></g><g transform="translate(281 41)"><path d="M0 -6L4.2 -4.2L6 0L4.2 4.2L0 6L-4.2 4.2L-6 0L-4.2 -4.2Z" fill="#001122"></path></g><g transform="translate(89 405)"><path d="M0 -2L1.4 -1.4L2 0L1.4 1.4L0 2L-1.4 1.4L-2 0L-1.4 -1.4Z" fill="#001122"></path></g><g transform="translate(272 383)"><path d="M0 -7L4.9 -4.9L7 0L4.9 4.9L0 7L-4.9 4.9L-7 0L-4.9 -4.9Z" fill="#001122"></path></g><g transform="translate(537 411)"><path d="M0 -12L8.5 -8.5L12 0L8.5 8.5L0 12L-8.5 8.5L-12 0L-8.5 -8.5Z" fill="#001122"></path></g><g transform="translate(687 111)"><path d="M0 -8L5.7 -5.7L8 0L5.7 5.7L0 8L-5.7 5.7L-8 0L-5.7 -5.7Z" fill="#001122"></path></g><g transform="translate(364 452)"><path d="M0 -10L7.1 -7.1L10 0L7.1 7.1L0 10L-7.1 7.1L-10 0L-7.1 -7.1Z" fill="#001122"></path></g><g transform="translate(578 417)"><path d="M0 -5L3.5 -3.5L5 0L3.5 3.5L0 5L-3.5 3.5L-5 0L-3.5 -3.5Z" fill="#001122"></path></g><g transform="translate(159 89)"><path d="M0 -1L0.7 -0.7L1 0L0.7 0.7L0 1L-0.7 0.7L-1 0L-0.7 -0.7Z" fill="#001122"></path></g><g transform="translate(155 188)"><path d="M0 -4L2.8 -2.8L4 0L2.8 2.8L0 4L-2.8 2.8L-4 0L-2.8 -2.8Z" fill="#001122"></path></g><g transform="translate(88 71)"><path d="M0 -12L8.5 -8.5L12 0L8.5 8.5L0 12L-8.5 8.5L-12 0L-8.5 -8.5Z" fill="#001122"></path></g><g transform="translate(805 91)"><path d="M0 -5L3.5 -3.5L5 0L3.5 3.5L0 5L-3.5 3.5L-5 0L-3.5 -3.5Z" fill="#001122"></path></g><g transform="translate(11 483)"><path d="M0 -10L7.1 -7.1L10 0L7.1 7.1L0 10L-7.1 7.1L-10 0L-7.1 -7.1Z" fill="#001122"></path></g><g transform="translate(867 60)"><path d="M0 -10L7.1 -7.1L10 0L7.1 7.1L0 10L-7.1 7.1L-10 0L-7.1 -7.1Z" fill="#001122"></path></g><g transform="translate(182 37)"><path d="M0 -6L4.2 -4.2L6 0L4.2 4.2L0 6L-4.2 4.2L-6 0L-4.2 -4.2Z" fill="#001122"></path></g><g transform="translate(592 545)"><path d="M0 -7L4.9 -4.9L7 0L4.9 4.9L0 7L-4.9 4.9L-7 0L-4.9 -4.9Z" fill="#001122"></path></g><g transform="translate(777 393)"><path d="M0 -8L5.7 -5.7L8 0L5.7 5.7L0 8L-5.7 5.7L-8 0L-5.7 -5.7Z" fill="#001122"></path></g><g transform="translate(747 186)"><path d="M0 -2L1.4 -1.4L2 0L1.4 1.4L0 2L-1.4 1.4L-2 0L-1.4 -1.4Z" fill="#001122"></path></g><g transform="translate(490 301)"><path d="M0 -2L1.4 -1.4L2 0L1.4 1.4L0 2L-1.4 1.4L-2 0L-1.4 -1.4Z" fill="#001122"></path></g><g transform="translate(804 383)"><path d="M0 -4L2.8 -2.8L4 0L2.8 2.8L0 4L-2.8 2.8L-4 0L-2.8 -2.8Z" fill="#001122"></path></g><g transform="translate(180 254)"><path d="M0 -5L3.5 -3.5L5 0L3.5 3.5L0 5L-3.5 3.5L-5 0L-3.5 -3.5Z" fill="#001122"></path></g><g transform="translate(61 382)"><path d="M0 -11L7.8 -7.8L11 0L7.8 7.8L0 11L-7.8 7.8L-11 0L-7.8 -7.8Z" fill="#001122"></path></g><g transform="translate(92 212)"><path d="M0 -10L7.1 -7.1L10 0L7.1 7.1L0 10L-7.1 7.1L-10 0L-7.1 -7.1Z" fill="#001122"></path></g><g transform="translate(866 171)"><path d="M0 -4L2.8 -2.8L4 0L2.8 2.8L0 4L-2.8 2.8L-4 0L-2.8 -2.8Z" fill="#001122"></path></g><g transform="translate(640 50)"><path d="M0 -1L0.7 -0.7L1 0L0.7 0.7L0 1L-0.7 0.7L-1 0L-0.7 -0.7Z" fill="#001122"></path></g><g transform="translate(134 388)"><path d="M0 -1L0.7 -0.7L1 0L0.7 0.7L0 1L-0.7 0.7L-1 0L-0.7 -0.7Z" fill="#001122"></path></g><g transform="translate(274 581)"><path d="M0 -4L2.8 -2.8L4 0L2.8 2.8L0 4L-2.8 2.8L-4 0L-2.8 -2.8Z" fill="#001122"></path></g><g transform="translate(637 352)"><path d="M0 -1L0.7 -0.7L1 0L0.7 0.7L0 1L-0.7 0.7L-1 0L-0.7 -0.7Z" fill="#001122"></path></g><g transform="translate(309 216)"><path d="M0 -9L6.4 -6.4L9 0L6.4 6.4L0 9L-6.4 6.4L-9 0L-6.4 -6.4Z" fill="#001122"></path></g><g transform="translate(6 398)"><path d="M0 -7L4.9 -4.9L7 0L4.9 4.9L0 7L-4.9 4.9L-7 0L-4.9 -4.9Z" fill="#001122"></path></g><g transform="translate(308 575)"><path d="M0 -11L7.8 -7.8L11 0L7.8 7.8L0 11L-7.8 7.8L-11 0L-7.8 -7.8Z" fill="#001122"></path></g><g transform="translate(67 325)"><path d="M0 -12L8.5 -8.5L12 0L8.5 8.5L0 12L-8.5 8.5L-12 0L-8.5 -8.5Z" fill="#001122"></path></g><g transform="translate(257 167)"><path d="M0 -11L7.8 -7.8L11 0L7.8 7.8L0 11L-7.8 7.8L-11 0L-7.8 -7.8Z" fill="#001122"></path></g><g transform="translate(235 551)"><path d="M0 -10L7.1 -7.1L10 0L7.1 7.1L0 10L-7.1 7.1L-10 0L-7.1 -7.1Z" fill="#001122"></path></g><g transform="translate(88 516)"><path d="M0 -1L0.7 -0.7L1 0L0.7 0.7L0 1L-0.7 0.7L-1 0L-0.7 -0.7Z" fill="#001122"></path></g><g transform="translate(484 401)"><path d="M0 -6L4.2 -4.2L6 0L4.2 4.2L0 6L-4.2 4.2L-6 0L-4.2 -4.2Z" fill="#001122"></path></g><g transform="translate(696 518)"><path d="M0 -5L3.5 -3.5L5 0L3.5 3.5L0 5L-3.5 3.5L-5 0L-3.5 -3.5Z" fill="#001122"></path></g><g transform="translate(615 393)"><path d="M0 -5L3.5 -3.5L5 0L3.5 3.5L0 5L-3.5 3.5L-5 0L-3.5 -3.5Z" fill="#001122"></path></g><g transform="translate(614 29)"><path d="M0 -11L7.8 -7.8L11 0L7.8 7.8L0 11L-7.8 7.8L-11 0L-7.8 -7.8Z" fill="#001122"></path></g><g transform="translate(823 157)"><path d="M0 -4L2.8 -2.8L4 0L2.8 2.8L0 4L-2.8 2.8L-4 0L-2.8 -2.8Z" fill="#001122"></path></g><g transform="translate(456 577)"><path d="M0 -7L4.9 -4.9L7 0L4.9 4.9L0 7L-4.9 4.9L-7 0L-4.9 -4.9Z" fill="#001122"></path></g><g transform="translate(825 277)"><path d="M0 -9L6.4 -6.4L9 0L6.4 6.4L0 9L-6.4 6.4L-9 0L-6.4 -6.4Z" fill="#001122"></path></g><g transform="translate(104 465)"><path d="M0 -9L6.4 -6.4L9 0L6.4 6.4L0 9L-6.4 6.4L-9 0L-6.4 -6.4Z" fill="#001122"></path></g><g transform="translate(175 402)"><path d="M0 -6L4.2 -4.2L6 0L4.2 4.2L0 6L-4.2 4.2L-6 0L-4.2 -4.2Z" fill="#001122"></path></g><g transform="translate(857 432)"><path d="M0 -9L6.4 -6.4L9 0L6.4 6.4L0 9L-6.4 6.4L-9 0L-6.4 -6.4Z" fill="#001122"></path></g><g transform="translate(93 571)"><path d="M0 -5L3.5 -3.5L5 0L3.5 3.5L0 5L-3.5 3.5L-5 0L-3.5 -3.5Z" fill="#001122"></path></g><g transform="translate(772 62)"><path d="M0 -6L4.2 -4.2L6 0L4.2 4.2L0 6L-4.2 4.2L-6 0L-4.2 -4.2Z" fill="#001122"></path></g><g transform="translate(496 15)"><path d="M0 -3L2.1 -2.1L3 0L2.1 2.1L0 3L-2.1 2.1L-3 0L-2.1 -2.1Z" fill="#001122"></path></g><g transform="translate(190 334)"><path d="M0 -7L4.9 -4.9L7 0L4.9 4.9L0 7L-4.9 4.9L-7 0L-4.9 -4.9Z" fill="#001122"></path></g><g transform="translate(687 8)"><path d="M0 -6L4.2 -4.2L6 0L4.2 4.2L0 6L-4.2 4.2L-6 0L-4.2 -4.2Z" fill="#001122"></path></g><g transform="translate(868 129)"><path d="M0 -11L7.8 -7.8L11 0L7.8 7.8L0 11L-7.8 7.8L-11 0L-7.8 -7.8Z" fill="#001122"></path></g><g transform="translate(302 368)"><path d="M0 -4L2.8 -2.8L4 0L2.8 2.8L0 4L-2.8 2.8L-4 0L-2.8 -2.8Z" fill="#001122"></path></g><g transform="translate(195 566)"><path d="M0 -4L2.8 -2.8L4 0L2.8 2.8L0 4L-2.8 2.8L-4 0L-2.8 -2.8Z" fill="#001122"></path></g><g transform="translate(775 105)"><path d="M0 -10L7.1 -7.1L10 0L7.1 7.1L0 10L-7.1 7.1L-10 0L-7.1 -7.1Z" fill="#001122"></path></g><g transform="translate(777 526)"><path d="M0 -8L5.7 -5.7L8 0L5.7 5.7L0 8L-5.7 5.7L-8 0L-5.7 -5.7Z" fill="#001122"></path></g><g transform="translate(472 374)"><path d="M0 -5L3.5 -3.5L5 0L3.5 3.5L0 5L-3.5 3.5L-5 0L-3.5 -3.5Z" fill="#001122"></path></g><g transform="translate(322 156)"><path d="M0 -3L2.1 -2.1L3 0L2.1 2.1L0 3L-2.1 2.1L-3 0L-2.1 -2.1Z" fill="#001122"></path></g><g transform="translate(310 399)"><path d="M0 -12L8.5 -8.5L12 0L8.5 8.5L0 12L-8.5 8.5L-12 0L-8.5 -8.5Z" fill="#001122"></path></g><g transform="translate(192 465)"><path d="M0 -6L4.2 -4.2L6 0L4.2 4.2L0 6L-4.2 4.2L-6 0L-4.2 -4.2Z" fill="#001122"></path></g><g transform="translate(243 139)"><path d="M0 -6L4.2 -4.2L6 0L4.2 4.2L0 6L-4.2 4.2L-6 0L-4.2 -4.2Z" fill="#001122"></path></g><g transform="translate(611 574)"><path d="M0 -9L6.4 -6.4L9 0L6.4 6.4L0 9L-6.4 6.4L-9 0L-6.4 -6.4Z" fill="#001122"></path></g><g transform="translate(656 149)"><path d="M0 -6L4.2 -4.2L6 0L4.2 4.2L0 6L-4.2 4.2L-6 0L-4.2 -4.2Z" fill="#001122"></path></g><g transform="translate(395 127)"><path d="M0 -3L2.1 -2.1L3 0L2.1 2.1L0 3L-2.1 2.1L-3 0L-2.1 -2.1Z" fill="#001122"></path></g><g transform="translate(236 34)"><path d="M0 -3L2.1 -2.1L3 0L2.1 2.1L0 3L-2.1 2.1L-3 0L-2.1 -2.1Z" fill="#001122"></path></g><g transform="translate(228 392)"><path d="M0 -9L6.4 -6.4L9 0L6.4 6.4L0 9L-6.4 6.4L-9 0L-6.4 -6.4Z" fill="#001122"></path></g><g transform="translate(195 206)"><path d="M0 -7L4.9 -4.9L7 0L4.9 4.9L0 7L-4.9 4.9L-7 0L-4.9 -4.9Z" fill="#001122"></path></g><g transform="translate(317 436)"><path d="M0 -3L2.1 -2.1L3 0L2.1 2.1L0 3L-2.1 2.1L-3 0L-2.1 -2.1Z" fill="#001122"></path></g><g transform="translate(657 311)"><path d="M0 -7L4.9 -4.9L7 0L4.9 4.9L0 7L-4.9 4.9L-7 0L-4.9 -4.9Z" fill="#001122"></path></g><g transform="translate(706 274)"><path d="M0 -7L4.9 -4.9L7 0L4.9 4.9L0 7L-4.9 4.9L-7 0L-4.9 -4.9Z" fill="#001122"></path></g><g transform="translate(826 199)"><path d="M0 -12L8.5 -8.5L12 0L8.5 8.5L0 12L-8.5 8.5L-12 0L-8.5 -8.5Z" fill="#001122"></path></g><g transform="translate(408 365)"><path d="M0 -10L7.1 -7.1L10 0L7.1 7.1L0 10L-7.1 7.1L-10 0L-7.1 -7.1Z" fill="#001122"></path></g><g transform="translate(739 383)"><path d="M0 -4L2.8 -2.8L4 0L2.8 2.8L0 4L-2.8 2.8L-4 0L-2.8 -2.8Z" fill="#001122"></path></g><g transform="translate(498 250)"><path d="M0 -7L4.9 -4.9L7 0L4.9 4.9L0 7L-4.9 4.9L-7 0L-4.9 -4.9Z" fill="#001122"></path></g><g transform="translate(890 91)"><path d="M0 -11L7.8 -7.8L11 0L7.8 7.8L0 11L-7.8 7.8L-11 0L-7.8 -7.8Z" fill="#001122"></path></g><g transform="translate(49 415)"><path d="M0 -3L2.1 -2.1L3 0L2.1 2.1L0 3L-2.1 2.1L-3 0L-2.1 -2.1Z" fill="#001122"></path></g><g transform="translate(402 555)"><path d="M0 -5L3.5 -3.5L5 0L3.5 3.5L0 5L-3.5 3.5L-5 0L-3.5 -3.5Z" fill="#001122"></path></g><g transform="translate(737 592)"><path d="M0 -8L5.7 -5.7L8 0L5.7 5.7L0 8L-5.7 5.7L-8 0L-5.7 -5.7Z" fill="#001122"></path></g><g transform="translate(384 383)"><path d="M0 -2L1.4 -1.4L2 0L1.4 1.4L0 2L-1.4 1.4L-2 0L-1.4 -1.4Z" fill="#001122"></path></g><g transform="translate(476 97)"><path d="M0 -12L8.5 -8.5L12 0L8.5 8.5L0 12L-8.5 8.5L-12 0L-8.5 -8.5Z" fill="#001122"></path></g><g transform="translate(847 569)"><path d="M0 -1L0.7 -0.7L1 0L0.7 0.7L0 1L-0.7 0.7L-1 0L-0.7 -0.7Z" fill="#001122"></path></g><g transform="translate(794 150)"><path d="M0 -6L4.2 -4.2L6 0L4.2 4.2L0 6L-4.2 4.2L-6 0L-4.2 -4.2Z" fill="#001122"></path></g><g transform="translate(800 430)"><path d="M0 -2L1.4 -1.4L2 0L1.4 1.4L0 2L-1.4 1.4L-2 0L-1.4 -1.4Z" fill="#001122"></path></g><g transform="translate(59 95)"><path d="M0 -1L0.7 -0.7L1 0L0.7 0.7L0 1L-0.7 0.7L-1 0L-0.7 -0.7Z" fill="#001122"></path></g><g transform="translate(242 417)"><path d="M0 -2L1.4 -1.4L2 0L1.4 1.4L0 2L-1.4 1.4L-2 0L-1.4 -1.4Z" fill="#001122"></path></g><g transform="translate(867 477)"><path d="M0 -2L1.4 -1.4L2 0L1.4 1.4L0 2L-1.4 1.4L-2 0L-1.4 -1.4Z" fill="#001122"></path></g><g transform="translate(334 511)"><path d="M0 -5L3.5 -3.5L5 0L3.5 3.5L0 5L-3.5 3.5L-5 0L-3.5 -3.5Z" fill="#001122"></path></g><g transform="translate(852 334)"><path d="M0 -6L4.2 -4.2L6 0L4.2 4.2L0 6L-4.2 4.2L-6 0L-4.2 -4.2Z" fill="#001122"></path></g><g transform="translate(160 322)"><path d="M0 -2L1.4 -1.4L2 0L1.4 1.4L0 2L-1.4 1.4L-2 0L-1.4 -1.4Z" fill="#001122"></path></g><g transform="translate(785 477)"><path d="M0 -4L2.8 -2.8L4 0L2.8 2.8L0 4L-2.8 2.8L-4 0L-2.8 -2.8Z" fill="#001122"></path></g><g transform="translate(575 73)"><path d="M0 -1L0.7 -0.7L1 0L0.7 0.7L0 1L-0.7 0.7L-1 0L-0.7 -0.7Z" fill="#001122"></path></g><g transform="translate(592 275)"><path d="M0 -9L6.4 -6.4L9 0L6.4 6.4L0 9L-6.4 6.4L-9 0L-6.4 -6.4Z" fill="#001122"></path></g><g transform="translate(439 308)"><path d="M0 -12L8.5 -8.5L12 0L8.5 8.5L0 12L-8.5 8.5L-12 0L-8.5 -8.5Z" fill="#001122"></path></g><g transform="translate(145 526)"><path d="M0 -11L7.8 -7.8L11 0L7.8 7.8L0 11L-7.8 7.8L-11 0L-7.8 -7.8Z" fill="#001122"></path></g><g transform="translate(891 30)"><path d="M0 -10L7.1 -7.1L10 0L7.1 7.1L0 10L-7.1 7.1L-10 0L-7.1 -7.1Z" fill="#001122"></path></g><g transform="translate(272 289)"><path d="M0 -12L8.5 -8.5L12 0L8.5 8.5L0 12L-8.5 8.5L-12 0L-8.5 -8.5Z" fill="#001122"></path></g><g transform="translate(460 509)"><path d="M0 -6L4.2 -4.2L6 0L4.2 4.2L0 6L-4.2 4.2L-6 0L-4.2 -4.2Z" fill="#001122"></path></g><g transform="translate(305 540)"><path d="M0 -10L7.1 -7.1L10 0L7.1 7.1L0 10L-7.1 7.1L-10 0L-7.1 -7.1Z" fill="#001122"></path></g><g transform="translate(366 587)"><path d="M0 -3L2.1 -2.1L3 0L2.1 2.1L0 3L-2.1 2.1L-3 0L-2.1 -2.1Z" fill="#001122"></path></g><g transform="translate(696 363)"><path d="M0 -9L6.4 -6.4L9 0L6.4 6.4L0 9L-6.4 6.4L-9 0L-6.4 -6.4Z" fill="#001122"></path></g><g transform="translate(271 3)"><path d="M0 -1L0.7 -0.7L1 0L0.7 0.7L0 1L-0.7 0.7L-1 0L-0.7 -0.7Z" fill="#001122"></path></g><g transform="translate(592 371)"><path d="M0 -2L1.4 -1.4L2 0L1.4 1.4L0 2L-1.4 1.4L-2 0L-1.4 -1.4Z" fill="#001122"></path></g><g transform="translate(453 11)"><path d="M0 -9L6.4 -6.4L9 0L6.4 6.4L0 9L-6.4 6.4L-9 0L-6.4 -6.4Z" fill="#001122"></path></g><g transform="translate(666 528)"><path d="M0 -6L4.2 -4.2L6 0L4.2 4.2L0 6L-4.2 4.2L-6 0L-4.2 -4.2Z" fill="#001122"></path></g><g transform="translate(718 423)"><path d="M0 -2L1.4 -1.4L2 0L1.4 1.4L0 2L-1.4 1.4L-2 0L-1.4 -1.4Z" fill="#001122"></path></g><g transform="translate(161 128)"><path d="M0 -12L8.5 -8.5L12 0L8.5 8.5L0 12L-8.5 8.5L-12 0L-8.5 -8.5Z" fill="#001122"></path></g><g transform="translate(787 300)"><path d="M0 -7L4.9 -4.9L7 0L4.9 4.9L0 7L-4.9 4.9L-7 0L-4.9 -4.9Z" fill="#001122"></path></g><g transform="translate(748 14)"><path d="M0 -7L4.9 -4.9L7 0L4.9 4.9L0 7L-4.9 4.9L-7 0L-4.9 -4.9Z" fill="#001122"></path></g><g transform="translate(682 597)"><path d="M0 -12L8.5 -8.5L12 0L8.5 8.5L0 12L-8.5 8.5L-12 0L-8.5 -8.5Z" fill="#001122"></path></g><g transform="translate(206 232)"><path d="M0 -1L0.7 -0.7L1 0L0.7 0.7L0 1L-0.7 0.7L-1 0L-0.7 -0.7Z" fill="#001122"></path></g><g transform="translate(32 129)"><path d="M0 -4L2.8 -2.8L4 0L2.8 2.8L0 4L-2.8 2.8L-4 0L-2.8 -2.8Z" fill="#001122"></path></g><g transform="translate(372 103)"><path d="M0 -7L4.9 -4.9L7 0L4.9 4.9L0 7L-4.9 4.9L-7 0L-4.9 -4.9Z" fill="#001122"></path></g><g transform="translate(679 566)"><path d="M0 -9L6.4 -6.4L9 0L6.4 6.4L0 9L-6.4 6.4L-9 0L-6.4 -6.4Z" fill="#001122"></path></g><g transform="translate(811 540)"><path d="M0 -7L4.9 -4.9L7 0L4.9 4.9L0 7L-4.9 4.9L-7 0L-4.9 -4.9Z" fill="#001122"></path></g><g transform="translate(292 462)"><path d="M0 -7L4.9 -4.9L7 0L4.9 4.9L0 7L-4.9 4.9L-7 0L-4.9 -4.9Z" fill="#001122"></path></g><g transform="translate(879 526)"><path d="M0 -11L7.8 -7.8L11 0L7.8 7.8L0 11L-7.8 7.8L-11 0L-7.8 -7.8Z" fill="#001122"></path></g><g transform="translate(728 112)"><path d="M0 -11L7.8 -7.8L11 0L7.8 7.8L0 11L-7.8 7.8L-11 0L-7.8 -7.8Z" fill="#001122"></path></g><g transform="translate(337 537)"><path d="M0 -10L7.1 -7.1L10 0L7.1 7.1L0 10L-7.1 7.1L-10 0L-7.1 -7.1Z" fill="#001122"></path></g><g transform="translate(543 216)"><path d="M0 -10L7.1 -7.1L10 0L7.1 7.1L0 10L-7.1 7.1L-10 0L-7.1 -7.1Z" fill="#001122"></path></g><g transform="translate(509 543)"><path d="M0 -1L0.7 -0.7L1 0L0.7 0.7L0 1L-0.7 0.7L-1 0L-0.7 -0.7Z" fill="#001122"></path></g><g transform="translate(267 326)"><path d="M0 -11L7.8 -7.8L11 0L7.8 7.8L0 11L-7.8 7.8L-11 0L-7.8 -7.8Z" fill="#001122"></path></g><g transform="translate(812 575)"><path d="M0 -1L0.7 -0.7L1 0L0.7 0.7L0 1L-0.7 0.7L-1 0L-0.7 -0.7Z" fill="#001122"></path></g><g transform="translate(405 527)"><path d="M0 -9L6.4 -6.4L9 0L6.4 6.4L0 9L-6.4 6.4L-9 0L-6.4 -6.4Z" fill="#001122"></path></g><g transform="translate(858 35)"><path d="M0 -6L4.2 -4.2L6 0L4.2 4.2L0 6L-4.2 4.2L-6 0L-4.2 -4.2Z" fill="#001122"></path></g><g transform="translate(153 4)"><path d="M0 -4L2.8 -2.8L4 0L2.8 2.8L0 4L-2.8 2.8L-4 0L-2.8 -2.8Z" fill="#001122"></path></g><g transform="translate(747 524)"><path d="M0 -10L7.1 -7.1L10 0L7.1 7.1L0 10L-7.1 7.1L-10 0L-7.1 -7.1Z" fill="#001122"></path></g><g transform="translate(369 260)"><path d="M0 -8L5.7 -5.7L8 0L5.7 5.7L0 8L-5.7 5.7L-8 0L-5.7 -5.7Z" fill="#001122"></path></g><g transform="translate(553 487)"><path d="M0 -7L4.9 -4.9L7 0L4.9 4.9L0 7L-4.9 4.9L-7 0L-4.9 -4.9Z" fill="#001122"></path></g><g transform="translate(752 320)"><path d="M0 -8L5.7 -5.7L8 0L5.7 5.7L0 8L-5.7 5.7L-8 0L-5.7 -5.7Z" fill="#001122"></path></g><g transform="translate(644 543)"><path d="M0 -7L4.9 -4.9L7 0L4.9 4.9L0 7L-4.9 4.9L-7 0L-4.9 -4.9Z" fill="#001122"></path></g><g transform="translate(516 391)"><path d="M0 -1L0.7 -0.7L1 0L0.7 0.7L0 1L-0.7 0.7L-1 0L-0.7 -0.7Z" fill="#001122"></path></g><g transform="translate(14 307)"><path d="M0 -12L8.5 -8.5L12 0L8.5 8.5L0 12L-8.5 8.5L-12 0L-8.5 -8.5Z" fill="#001122"></path></g><g transform="translate(537 533)"><path d="M0 -1L0.7 -0.7L1 0L0.7 0.7L0 1L-0.7 0.7L-1 0L-0.7 -0.7Z" fill="#001122"></path></g><g transform="translate(882 399)"><path d="M0 -7L4.9 -4.9L7 0L4.9 4.9L0 7L-4.9 4.9L-7 0L-4.9 -4.9Z" fill="#001122"></path></g><g transform="translate(150 587)"><path d="M0 -9L6.4 -6.4L9 0L6.4 6.4L0 9L-6.4 6.4L-9 0L-6.4 -6.4Z" fill="#001122"></path></g><g transform="translate(179 542)"><path d="M0 -3L2.1 -2.1L3 0L2.1 2.1L0 3L-2.1 2.1L-3 0L-2.1 -2.1Z" fill="#001122"></path></g><g transform="translate(1 113)"><path d="M0 -4L2.8 -2.8L4 0L2.8 2.8L0 4L-2.8 2.8L-4 0L-2.8 -2.8Z" fill="#001122"></path></g><g transform="translate(118 186)"><path d="M0 -11L7.8 -7.8L11 0L7.8 7.8L0 11L-7.8 7.8L-11 0L-7.8 -7.8Z" fill="#001122"></path></g><g transform="translate(285 161)"><path d="M0 -4L2.8 -2.8L4 0L2.8 2.8L0 4L-2.8 2.8L-4 0L-2.8 -2.8Z" fill="#001122"></path></g><g transform="translate(234 260)"><path d="M0 -10L7.1 -7.1L10 0L7.1 7.1L0 10L-7.1 7.1L-10 0L-7.1 -7.1Z" fill="#001122"></path></g><g transform="translate(229 476)"><path d="M0 -12L8.5 -8.5L12 0L8.5 8.5L0 12L-8.5 8.5L-12 0L-8.5 -8.5Z" fill="#001122"></path></g><g transform="translate(75 152)"><path d="M0 -9L6.4 -6.4L9 0L6.4 6.4L0 9L-6.4 6.4L-9 0L-6.4 -6.4Z" fill="#001122"></path></g><g transform="translate(52 599)"><path d="M0 -2L1.4 -1.4L2 0L1.4 1.4L0 2L-1.4 1.4L-2 0L-1.4 -1.4Z" fill="#001122"></path></g><g transform="translate(70 436)"><path d="M0 -11L7.8 -7.8L11 0L7.8 7.8L0 11L-7.8 7.8L-11 0L-7.8 -7.8Z" fill="#001122"></path></g><g transform="translate(241 360)"><path d="M0 -1L0.7 -0.7L1 0L0.7 0.7L0 1L-0.7 0.7L-1 0L-0.7 -0.7Z" fill="#001122"></path></g><g transform="translate(327 117)"><path d="M0 -10L7.1 -7.1L10 0L7.1 7.1L0 10L-7.1 7.1L-10 0L-7.1 -7.1Z" fill="#001122"></path></g><g transform="translate(262 446)"><path d="M0 -8L5.7 -5.7L8 0L5.7 5.7L0 8L-5.7 5.7L-8 0L-5.7 -5.7Z" fill="#001122"></path></g><g transform="translate(384 226)"><path d="M0 -3L2.1 -2.1L3 0L2.1 2.1L0 3L-2.1 2.1L-3 0L-2.1 -2.1Z" fill="#001122"></path></g><g transform="translate(792 27)"><path d="M0 -12L8.5 -8.5L12 0L8.5 8.5L0 12L-8.5 8.5L-12 0L-8.5 -8.5Z" fill="#001122"></path></g><g transform="translate(241 211)"><path d="M0 -6L4.2 -4.2L6 0L4.2 4.2L0 6L-4.2 4.2L-6 0L-4.2 -4.2Z" fill="#001122"></path></g><g transform="translate(434 33)"><path d="M0 -1L0.7 -0.7L1 0L0.7 0.7L0 1L-0.7 0.7L-1 0L-0.7 -0.7Z" fill="#001122"></path></g><g transform="translate(469 236)"><path d="M0 -3L2.1 -2.1L3 0L2.1 2.1L0 3L-2.1 2.1L-3 0L-2.1 -2.1Z" fill="#001122"></path></g><g transform="translate(202 402)"><path d="M0 -3L2.1 -2.1L3 0L2.1 2.1L0 3L-2.1 2.1L-3 0L-2.1 -2.1Z" fill="#001122"></path></g><g transform="translate(479 154)"><path d="M0 -3L2.1 -2.1L3 0L2.1 2.1L0 3L-2.1 2.1L-3 0L-2.1 -2.1Z" fill="#001122"></path></g><g transform="translate(413 187)"><path d="M0 -4L2.8 -2.8L4 0L2.8 2.8L0 4L-2.8 2.8L-4 0L-2.8 -2.8Z" fill="#001122"></path></g><g transform="translate(433 350)"><path d="M0 -1L0.7 -0.7L1 0L0.7 0.7L0 1L-0.7 0.7L-1 0L-0.7 -0.7Z" fill="#001122"></path></g><g transform="translate(237 72)"><path d="M0 -4L2.8 -2.8L4 0L2.8 2.8L0 4L-2.8 2.8L-4 0L-2.8 -2.8Z" fill="#001122"></path></g><g transform="translate(303 57)"><path d="M0 -4L2.8 -2.8L4 0L2.8 2.8L0 4L-2.8 2.8L-4 0L-2.8 -2.8Z" fill="#001122"></path></g><g transform="translate(301 121)"><path d="M0 -3L2.1 -2.1L3 0L2.1 2.1L0 3L-2.1 2.1L-3 0L-2.1 -2.1Z" fill="#001122"></path></g><g transform="translate(348 62)"><path d="M0 -2L1.4 -1.4L2 0L1.4 1.4L0 2L-1.4 1.4L-2 0L-1.4 -1.4Z" fill="#001122"></path></g><g transform="translate(834 2)"><path d="M0 -11L7.8 -7.8L11 0L7.8 7.8L0 11L-7.8 7.8L-11 0L-7.8 -7.8Z" fill="#001122"></path></g><g transform="translate(349 483)"><path d="M0 -8L5.7 -5.7L8 0L5.7 5.7L0 8L-5.7 5.7L-8 0L-5.7 -5.7Z" fill="#001122"></path></g><g transform="translate(13 213)"><path d="M0 -4L2.8 -2.8L4 0L2.8 2.8L0 4L-2.8 2.8L-4 0L-2.8 -2.8Z" fill="#001122"></path></g><g transform="translate(514 136)"><path d="M0 -2L1.4 -1.4L2 0L1.4 1.4L0 2L-1.4 1.4L-2 0L-1.4 -1.4Z" fill="#001122"></path></g><g transform="translate(3 42)"><path d="M0 -11L7.8 -7.8L11 0L7.8 7.8L0 11L-7.8 7.8L-11 0L-7.8 -7.8Z" fill="#001122"></path></g><g transform="translate(866 367)"><path d="M0 -12L8.5 -8.5L12 0L8.5 8.5L0 12L-8.5 8.5L-12 0L-8.5 -8.5Z" fill="#001122"></path></g><g transform="translate(651 247)"><path d="M0 -1L0.7 -0.7L1 0L0.7 0.7L0 1L-0.7 0.7L-1 0L-0.7 -0.7Z" fill="#001122"></path></g><g transform="translate(827 61)"><path d="M0 -11L7.8 -7.8L11 0L7.8 7.8L0 11L-7.8 7.8L-11 0L-7.8 -7.8Z" fill="#001122"></path></g><g transform="translate(504 423)"><path d="M0 -9L6.4 -6.4L9 0L6.4 6.4L0 9L-6.4 6.4L-9 0L-6.4 -6.4Z" fill="#001122"></path></g><g transform="translate(181 592)"><path d="M0 -5L3.5 -3.5L5 0L3.5 3.5L0 5L-3.5 3.5L-5 0L-3.5 -3.5Z" fill="#001122"></path></g><g transform="translate(767 583)"><path d="M0 -4L2.8 -2.8L4 0L2.8 2.8L0 4L-2.8 2.8L-4 0L-2.8 -2.8Z" fill="#001122"></path></g><g transform="translate(494 350)"><path d="M0 -7L4.9 -4.9L7 0L4.9 4.9L0 7L-4.9 4.9L-7 0L-4.9 -4.9Z" fill="#001122"></path></g><g transform="translate(272 206)"><path d="M0 -6L4.2 -4.2L6 0L4.2 4.2L0 6L-4.2 4.2L-6 0L-4.2 -4.2Z" fill="#001122"></path></g><g transform="translate(633 135)"><path d="M0 -5L3.5 -3.5L5 0L3.5 3.5L0 5L-3.5 3.5L-5 0L-3.5 -3.5Z" fill="#001122"></path></g><g transform="translate(167 223)"><path d="M0 -9L6.4 -6.4L9 0L6.4 6.4L0 9L-6.4 6.4L-9 0L-6.4 -6.4Z" fill="#001122"></path></g><g transform="translate(761 266)"><path d="M0 -9L6.4 -6.4L9 0L6.4 6.4L0 9L-6.4 6.4L-9 0L-6.4 -6.4Z" fill="#001122"></path></g><g transform="translate(118 349)"><path d="M0 -8L5.7 -5.7L8 0L5.7 5.7L0 8L-5.7 5.7L-8 0L-5.7 -5.7Z" fill="#001122"></path></g><g transform="translate(565 45)"><path d="M0 -9L6.4 -6.4L9 0L6.4 6.4L0 9L-6.4 6.4L-9 0L-6.4 -6.4Z" fill="#001122"></path></g><g transform="translate(15 558)"><path d="M0 -4L2.8 -2.8L4 0L2.8 2.8L0 4L-2.8 2.8L-4 0L-2.8 -2.8Z" fill="#001122"></path></g><g transform="translate(683 440)"><path d="M0 -12L8.5 -8.5L12 0L8.5 8.5L0 12L-8.5 8.5L-12 0L-8.5 -8.5Z" fill="#001122"></path></g><g transform="translate(21 279)"><path d="M0 -11L7.8 -7.8L11 0L7.8 7.8L0 11L-7.8 7.8L-11 0L-7.8 -7.8Z" fill="#001122"></path></g><g transform="translate(120 429)"><path d="M0 -5L3.5 -3.5L5 0L3.5 3.5L0 5L-3.5 3.5L-5 0L-3.5 -3.5Z" fill="#001122"></path></g><g transform="translate(24 80)"><path d="M0 -9L6.4 -6.4L9 0L6.4 6.4L0 9L-6.4 6.4L-9 0L-6.4 -6.4Z" fill="#001122"></path></g><g transform="translate(704 211)"><path d="M0 -7L4.9 -4.9L7 0L4.9 4.9L0 7L-4.9 4.9L-7 0L-4.9 -4.9Z" fill="#001122"></path></g><g transform="translate(192 306)"><path d="M0 -4L2.8 -2.8L4 0L2.8 2.8L0 4L-2.8 2.8L-4 0L-2.8 -2.8Z" fill="#001122"></path></g><g transform="translate(305 318)"><path d="M0 -8L5.7 -5.7L8 0L5.7 5.7L0 8L-5.7 5.7L-8 0L-5.7 -5.7Z" fill="#001122"></path></g><g transform="translate(605 70)"><path d="M0 -1L0.7 -0.7L1 0L0.7 0.7L0 1L-0.7 0.7L-1 0L-0.7 -0.7Z" fill="#001122"></path></g><g transform="translate(523 168)"><path d="M0 -1L0.7 -0.7L1 0L0.7 0.7L0 1L-0.7 0.7L-1 0L-0.7 -0.7Z" fill="#001122"></path></g><g transform="translate(517 453)"><path d="M0 -10L7.1 -7.1L10 0L7.1 7.1L0 10L-7.1 7.1L-10 0L-7.1 -7.1Z" fill="#001122"></path></g><g transform="translate(437 107)"><path d="M0 -11L7.8 -7.8L11 0L7.8 7.8L0 11L-7.8 7.8L-11 0L-7.8 -7.8Z" fill="#001122"></path></g><g transform="translate(330 380)"><path d="M0 -12L8.5 -8.5L12 0L8.5 8.5L0 12L-8.5 8.5L-12 0L-8.5 -8.5Z" fill="#001122"></path></g><g transform="translate(814 468)"><path d="M0 -4L2.8 -2.8L4 0L2.8 2.8L0 4L-2.8 2.8L-4 0L-2.8 -2.8Z" fill="#001122"></path></g><g transform="translate(211 7)"><path d="M0 -8L5.7 -5.7L8 0L5.7 5.7L0 8L-5.7 5.7L-8 0L-5.7 -5.7Z" fill="#001122"></path></g><g transform="translate(628 196)"><path d="M0 -12L8.5 -8.5L12 0L8.5 8.5L0 12L-8.5 8.5L-12 0L-8.5 -8.5Z" fill="#001122"></path></g><g transform="translate(595 598)"><path d="M0 -1L0.7 -0.7L1 0L0.7 0.7L0 1L-0.7 0.7L-1 0L-0.7 -0.7Z" fill="#001122"></path></g><g transform="translate(656 441)"><path d="M0 -8L5.7 -5.7L8 0L5.7 5.7L0 8L-5.7 5.7L-8 0L-5.7 -5.7Z" fill="#001122"></path></g><g transform="translate(101 327)"><path d="M0 -11L7.8 -7.8L11 0L7.8 7.8L0 11L-7.8 7.8L-11 0L-7.8 -7.8Z" fill="#001122"></path></g><g transform="translate(418 491)"><path d="M0 -12L8.5 -8.5L12 0L8.5 8.5L0 12L-8.5 8.5L-12 0L-8.5 -8.5Z" fill="#001122"></path></g><g transform="translate(127 501)"><path d="M0 -10L7.1 -7.1L10 0L7.1 7.1L0 10L-7.1 7.1L-10 0L-7.1 -7.1Z" fill="#001122"></path></g><g transform="translate(532 583)"><path d="M0 -2L1.4 -1.4L2 0L1.4 1.4L0 2L-1.4 1.4L-2 0L-1.4 -1.4Z" fill="#001122"></path></g><g transform="translate(359 297)"><path d="M0 -3L2.1 -2.1L3 0L2.1 2.1L0 3L-2.1 2.1L-3 0L-2.1 -2.1Z" fill="#001122"></path></g><g transform="translate(456 401)"><path d="M0 -5L3.5 -3.5L5 0L3.5 3.5L0 5L-3.5 3.5L-5 0L-3.5 -3.5Z" fill="#001122"></path></g><g transform="translate(741 552)"><path d="M0 -12L8.5 -8.5L12 0L8.5 8.5L0 12L-8.5 8.5L-12 0L-8.5 -8.5Z" fill="#001122"></path></g><g transform="translate(712 246)"><path d="M0 -11L7.8 -7.8L11 0L7.8 7.8L0 11L-7.8 7.8L-11 0L-7.8 -7.8Z" fill="#001122"></path></g><g transform="translate(409 422)"><path d="M0 -9L6.4 -6.4L9 0L6.4 6.4L0 9L-6.4 6.4L-9 0L-6.4 -6.4Z" fill="#001122"></path></g><g transform="translate(824 442)"><path d="M0 -8L5.7 -5.7L8 0L5.7 5.7L0 8L-5.7 5.7L-8 0L-5.7 -5.7Z" fill="#001122"></path></g><g transform="translate(564 136)"><path d="M0 -11L7.8 -7.8L11 0L7.8 7.8L0 11L-7.8 7.8L-11 0L-7.8 -7.8Z" fill="#001122"></path></g><g transform="translate(618 97)"><path d="M0 -5L3.5 -3.5L5 0L3.5 3.5L0 5L-3.5 3.5L-5 0L-3.5 -3.5Z" fill="#001122"></path></g><g transform="translate(196 160)"><path d="M0 -6L4.2 -4.2L6 0L4.2 4.2L0 6L-4.2 4.2L-6 0L-4.2 -4.2Z" fill="#001122"></path></g><g transform="translate(560 96)"><path d="M0 -7L4.9 -4.9L7 0L4.9 4.9L0 7L-4.9 4.9L-7 0L-4.9 -4.9Z" fill="#001122"></path></g><g transform="translate(66 351)"><path d="M0 -4L2.8 -2.8L4 0L2.8 2.8L0 4L-2.8 2.8L-4 0L-2.8 -2.8Z" fill="#001122"></path></g><g transform="translate(9 367)"><path d="M0 -6L4.2 -4.2L6 0L4.2 4.2L0 6L-4.2 4.2L-6 0L-4.2 -4.2Z" fill="#001122"></path></g><g transform="translate(608 307)"><path d="M0 -9L6.4 -6.4L9 0L6.4 6.4L0 9L-6.4 6.4L-9 0L-6.4 -6.4Z" fill="#001122"></path></g><g transform="translate(495 595)"><path d="M0 -9L6.4 -6.4L9 0L6.4 6.4L0 9L-6.4 6.4L-9 0L-6.4 -6.4Z" fill="#001122"></path></g><g transform="translate(66 568)"><path d="M0 -10L7.1 -7.1L10 0L7.1 7.1L0 10L-7.1 7.1L-10 0L-7.1 -7.1Z" fill="#001122"></path></g><g transform="translate(416 92)"><path d="M0 -3L2.1 -2.1L3 0L2.1 2.1L0 3L-2.1 2.1L-3 0L-2.1 -2.1Z" fill="#001122"></path></g><g transform="translate(526 492)"><path d="M0 -5L3.5 -3.5L5 0L3.5 3.5L0 5L-3.5 3.5L-5 0L-3.5 -3.5Z" fill="#001122"></path></g><g transform="translate(612 342)"><path d="M0 -12L8.5 -8.5L12 0L8.5 8.5L0 12L-8.5 8.5L-12 0L-8.5 -8.5Z" fill="#001122"></path></g><g transform="translate(438 526)"><path d="M0 -1L0.7 -0.7L1 0L0.7 0.7L0 1L-0.7 0.7L-1 0L-0.7 -0.7Z" fill="#001122"></path></g><g transform="translate(799 245)"><path d="M0 -9L6.4 -6.4L9 0L6.4 6.4L0 9L-6.4 6.4L-9 0L-6.4 -6.4Z" fill="#001122"></path></g><g transform="translate(45 541)"><path d="M0 -8L5.7 -5.7L8 0L5.7 5.7L0 8L-5.7 5.7L-8 0L-5.7 -5.7Z" fill="#001122"></path></g><g transform="translate(63 38)"><path d="M0 -8L5.7 -5.7L8 0L5.7 5.7L0 8L-5.7 5.7L-8 0L-5.7 -5.7Z" fill="#001122"></path></g><g transform="translate(464 340)"><path d="M0 -1L0.7 -0.7L1 0L0.7 0.7L0 1L-0.7 0.7L-1 0L-0.7 -0.7Z" fill="#001122"></path></g><g transform="translate(844 223)"><path d="M0 -10L7.1 -7.1L10 0L7.1 7.1L0 10L-7.1 7.1L-10 0L-7.1 -7.1Z" fill="#001122"></path></g><g transform="translate(842 380)"><path d="M0 -5L3.5 -3.5L5 0L3.5 3.5L0 5L-3.5 3.5L-5 0L-3.5 -3.5Z" fill="#001122"></path></g><g transform="translate(395 75)"><path d="M0 -7L4.9 -4.9L7 0L4.9 4.9L0 7L-4.9 4.9L-7 0L-4.9 -4.9Z" fill="#001122"></path></g><g transform="translate(481 51)"><path d="M0 -6L4.2 -4.2L6 0L4.2 4.2L0 6L-4.2 4.2L-6 0L-4.2 -4.2Z" fill="#001122"></path></g><g transform="translate(812 341)"><path d="M0 -3L2.1 -2.1L3 0L2.1 2.1L0 3L-2.1 2.1L-3 0L-2.1 -2.1Z" fill="#001122"></path></g><g transform="translate(81 183)"><path d="M0 -6L4.2 -4.2L6 0L4.2 4.2L0 6L-4.2 4.2L-6 0L-4.2 -4.2Z" fill="#001122"></path></g><g transform="translate(207 81)"><path d="M0 -10L7.1 -7.1L10 0L7.1 7.1L0 10L-7.1 7.1L-10 0L-7.1 -7.1Z" fill="#001122"></path></g><g transform="translate(131 23)"><path d="M0 -1L0.7 -0.7L1 0L0.7 0.7L0 1L-0.7 0.7L-1 0L-0.7 -0.7Z" fill="#001122"></path></g><g transform="translate(109 86)"><path d="M0 -11L7.8 -7.8L11 0L7.8 7.8L0 11L-7.8 7.8L-11 0L-7.8 -7.8Z" fill="#001122"></path></g><g transform="translate(414 278)"><path d="M0 -2L1.4 -1.4L2 0L1.4 1.4L0 2L-1.4 1.4L-2 0L-1.4 -1.4Z" fill="#001122"></path></g><g transform="translate(742 475)"><path d="M0 -4L2.8 -2.8L4 0L2.8 2.8L0 4L-2.8 2.8L-4 0L-2.8 -2.8Z" fill="#001122"></path></g><g transform="translate(684 257)"><path d="M0 -10L7.1 -7.1L10 0L7.1 7.1L0 10L-7.1 7.1L-10 0L-7.1 -7.1Z" fill="#001122"></path></g><g transform="translate(602 151)"><path d="M0 -2L1.4 -1.4L2 0L1.4 1.4L0 2L-1.4 1.4L-2 0L-1.4 -1.4Z" fill="#001122"></path></g><g transform="translate(757 498)"><path d="M0 -10L7.1 -7.1L10 0L7.1 7.1L0 10L-7.1 7.1L-10 0L-7.1 -7.1Z" fill="#001122"></path></g><g transform="translate(5 178)"><path d="M0 -2L1.4 -1.4L2 0L1.4 1.4L0 2L-1.4 1.4L-2 0L-1.4 -1.4Z" fill="#001122"></path></g><g transform="translate(95 4)"><path d="M0 -6L4.2 -4.2L6 0L4.2 4.2L0 6L-4.2 4.2L-6 0L-4.2 -4.2Z" fill="#001122"></path></g><g transform="translate(561 580)"><path d="M0 -2L1.4 -1.4L2 0L1.4 1.4L0 2L-1.4 1.4L-2 0L-1.4 -1.4Z" fill="#001122"></path></g><g transform="translate(512 280)"><path d="M0 -11L7.8 -7.8L11 0L7.8 7.8L0 11L-7.8 7.8L-11 0L-7.8 -7.8Z" fill="#001122"></path></g><g transform="translate(425 236)"><path d="M0 -6L4.2 -4.2L6 0L4.2 4.2L0 6L-4.2 4.2L-6 0L-4.2 -4.2Z" fill="#001122"></path></g><g transform="translate(280 512)"><path d="M0 -5L3.5 -3.5L5 0L3.5 3.5L0 5L-3.5 3.5L-5 0L-3.5 -3.5Z" fill="#001122"></path></g><g transform="translate(32 39)"><path d="M0 -3L2.1 -2.1L3 0L2.1 2.1L0 3L-2.1 2.1L-3 0L-2.1 -2.1Z" fill="#001122"></path></g><g transform="translate(385 37)"><path d="M0 -6L4.2 -4.2L6 0L4.2 4.2L0 6L-4.2 4.2L-6 0L-4.2 -4.2Z" fill="#001122"></path></g><g transform="translate(257 525)"><path d="M0 -7L4.9 -4.9L7 0L4.9 4.9L0 7L-4.9 4.9L-7 0L-4.9 -4.9Z" fill="#001122"></path></g><g transform="translate(864 255)"><path d="M0 -1L0.7 -0.7L1 0L0.7 0.7L0 1L-0.7 0.7L-1 0L-0.7 -0.7Z" fill="#001122"></path></g><g transform="translate(340 324)"><path d="M0 -7L4.9 -4.9L7 0L4.9 4.9L0 7L-4.9 4.9L-7 0L-4.9 -4.9Z" fill="#001122"></path></g><g transform="translate(532 93)"><path d="M0 -4L2.8 -2.8L4 0L2.8 2.8L0 4L-2.8 2.8L-4 0L-2.8 -2.8Z" fill="#001122"></path></g><g transform="translate(722 494)"><path d="M0 -9L6.4 -6.4L9 0L6.4 6.4L0 9L-6.4 6.4L-9 0L-6.4 -6.4Z" fill="#001122"></path></g><g transform="translate(653 586)"><path d="M0 -11L7.8 -7.8L11 0L7.8 7.8L0 11L-7.8 7.8L-11 0L-7.8 -7.8Z" fill="#001122"></path></g><g transform="translate(332 232)"><path d="M0 -2L1.4 -1.4L2 0L1.4 1.4L0 2L-1.4 1.4L-2 0L-1.4 -1.4Z" fill="#001122"></path></g><g transform="translate(92 245)"><path d="M0 -2L1.4 -1.4L2 0L1.4 1.4L0 2L-1.4 1.4L-2 0L-1.4 -1.4Z" fill="#001122"></path></g><g transform="translate(422 5)"><path d="M0 -3L2.1 -2.1L3 0L2.1 2.1L0 3L-2.1 2.1L-3 0L-2.1 -2.1Z" fill="#001122"></path></g><g transform="translate(319 89)"><path d="M0 -12L8.5 -8.5L12 0L8.5 8.5L0 12L-8.5 8.5L-12 0L-8.5 -8.5Z" fill="#001122"></path></g><g transform="translate(145 462)"><path d="M0 -1L0.7 -0.7L1 0L0.7 0.7L0 1L-0.7 0.7L-1 0L-0.7 -0.7Z" fill="#001122"></path></g><g transform="translate(415 145)"><path d="M0 -7L4.9 -4.9L7 0L4.9 4.9L0 7L-4.9 4.9L-7 0L-4.9 -4.9Z" fill="#001122"></path></g><g transform="translate(648 20)"><path d="M0 -9L6.4 -6.4L9 0L6.4 6.4L0 9L-6.4 6.4L-9 0L-6.4 -6.4Z" fill="#001122"></path></g><g transform="translate(691 325)"><path d="M0 -4L2.8 -2.8L4 0L2.8 2.8L0 4L-2.8 2.8L-4 0L-2.8 -2.8Z" fill="#001122"></path></g><g transform="translate(121 221)"><path d="M0 -5L3.5 -3.5L5 0L3.5 3.5L0 5L-3.5 3.5L-5 0L-3.5 -3.5Z" fill="#001122"></path></g><g transform="translate(294 271)"><path d="M0 -5L3.5 -3.5L5 0L3.5 3.5L0 5L-3.5 3.5L-5 0L-3.5 -3.5Z" fill="#001122"></path></g><g transform="translate(168 278)"><path d="M0 -7L4.9 -4.9L7 0L4.9 4.9L0 7L-4.9 4.9L-7 0L-4.9 -4.9Z" fill="#001122"></path></g><g transform="translate(779 190)"><path d="M0 -4L2.8 -2.8L4 0L2.8 2.8L0 4L-2.8 2.8L-4 0L-2.8 -2.8Z" fill="#001122"></path></g><g transform="translate(276 551)"><path d="M0 -2L1.4 -1.4L2 0L1.4 1.4L0 2L-1.4 1.4L-2 0L-1.4 -1.4Z" fill="#001122"></path></g><g transform="translate(403 253)"><path d="M0 -7L4.9 -4.9L7 0L4.9 4.9L0 7L-4.9 4.9L-7 0L-4.9 -4.9Z" fill="#001122"></path></g><g transform="translate(355 149)"><path d="M0 -10L7.1 -7.1L10 0L7.1 7.1L0 10L-7.1 7.1L-10 0L-7.1 -7.1Z" fill="#001122"></path></g><g transform="translate(339 593)"><path d="M0 -4L2.8 -2.8L4 0L2.8 2.8L0 4L-2.8 2.8L-4 0L-2.8 -2.8Z" fill="#001122"></path></g><g transform="translate(670 361)"><path d="M0 -11L7.8 -7.8L11 0L7.8 7.8L0 11L-7.8 7.8L-11 0L-7.8 -7.8Z" fill="#001122"></path></g><g transform="translate(582 185)"><path d="M0 -8L5.7 -5.7L8 0L5.7 5.7L0 8L-5.7 5.7L-8 0L-5.7 -5.7Z" fill="#001122"></path></g><g transform="translate(475 203)"><path d="M0 -8L5.7 -5.7L8 0L5.7 5.7L0 8L-5.7 5.7L-8 0L-5.7 -5.7Z" fill="#001122"></path></g><g transform="translate(686 44)"><path d="M0 -6L4.2 -4.2L6 0L4.2 4.2L0 6L-4.2 4.2L-6 0L-4.2 -4.2Z" fill="#001122"></path></g><g transform="translate(362 178)"><path d="M0 -6L4.2 -4.2L6 0L4.2 4.2L0 6L-4.2 4.2L-6 0L-4.2 -4.2Z" fill="#001122"></path></g><g transform="translate(174 492)"><path d="M0 -2L1.4 -1.4L2 0L1.4 1.4L0 2L-1.4 1.4L-2 0L-1.4 -1.4Z" fill="#001122"></path></g><g transform="translate(369 527)"><path d="M0 -10L7.1 -7.1L10 0L7.1 7.1L0 10L-7.1 7.1L-10 0L-7.1 -7.1Z" fill="#001122"></path></g><g transform="translate(504 569)"><path d="M0 -1L0.7 -0.7L1 0L0.7 0.7L0 1L-0.7 0.7L-1 0L-0.7 -0.7Z" fill="#001122"></path></g><g transform="translate(36 339)"><path d="M0 -6L4.2 -4.2L6 0L4.2 4.2L0 6L-4.2 4.2L-6 0L-4.2 -4.2Z" fill="#001122"></path></g><g transform="translate(173 365)"><path d="M0 -12L8.5 -8.5L12 0L8.5 8.5L0 12L-8.5 8.5L-12 0L-8.5 -8.5Z" fill="#001122"></path></g><g transform="translate(230 293)"><path d="M0 -7L4.9 -4.9L7 0L4.9 4.9L0 7L-4.9 4.9L-7 0L-4.9 -4.9Z" fill="#001122"></path></g><g transform="translate(456 76)"><path d="M0 -2L1.4 -1.4L2 0L1.4 1.4L0 2L-1.4 1.4L-2 0L-1.4 -1.4Z" fill="#001122"></path></g><g transform="translate(592 229)"><path d="M0 -11L7.8 -7.8L11 0L7.8 7.8L0 11L-7.8 7.8L-11 0L-7.8 -7.8Z" fill="#001122"></path></g><g transform="translate(452 453)"><path d="M0 -6L4.2 -4.2L6 0L4.2 4.2L0 6L-4.2 4.2L-6 0L-4.2 -4.2Z" fill="#001122"></path></g><g transform="translate(624 435)"><path d="M0 -10L7.1 -7.1L10 0L7.1 7.1L0 10L-7.1 7.1L-10 0L-7.1 -7.1Z" fill="#001122"></path></g><g transform="translate(5 252)"><path d="M0 -9L6.4 -6.4L9 0L6.4 6.4L0 9L-6.4 6.4L-9 0L-6.4 -6.4Z" fill="#001122"></path></g><g transform="translate(426 60)"><path d="M0 -8L5.7 -5.7L8 0L5.7 5.7L0 8L-5.7 5.7L-8 0L-5.7 -5.7Z" fill="#001122"></path></g></g></svg>