<svg version="1.0" xmlns="http://www.w3.org/2000/svg"
 width="530.000000pt" height="1991.000000pt" viewBox="0 0 530.000000 1991.000000"
 preserveAspectRatio="xMidYMid meet">

<g transform="translate(0.000000,1991.000000) scale(0.100000,-0.100000)"
fill="#BEBEBE" stroke="#BEBEBE">
<path d="M5038 15518 c-27 -16 -48 -34 -48 -38 0 -13 42 -40 62 -40 9 0 29 11
45 24 24 21 26 27 18 52 -6 15 -14 29 -20 30 -5 1 -31 -11 -57 -28z"/>
<path d="M5150 15360 c0 -13 5 -20 13 -17 6 2 12 10 12 17 0 7 -6 15 -12 18
-8 2 -13 -5 -13 -18z"/>
<path d="M4882 15308 c-16 -16 -15 -63 2 -77 8 -7 27 -11 43 -9 33 4 54 48 37
76 -13 21 -65 27 -82 10z"/>
<path d="M4660 15290 c-11 -7 -12 -12 -3 -21 13 -13 33 -4 33 17 0 16 -9 18
-30 4z"/>
<path d="M5249 15236 c-31 -15 -35 -47 -10 -70 32 -29 56 -17 59 30 3 47 -11
59 -49 40z"/>
<path d="M4665 15080 c-4 -7 -3 -16 3 -22 14 -14 45 -2 40 15 -6 16 -34 21
-43 7z"/>
<path d="M4325 15060 c-3 -5 1 -10 10 -10 9 0 13 5 10 10 -3 6 -8 10 -10 10
-2 0 -7 -4 -10 -10z"/>
<path d="M5125 15005 c-30 -30 -31 -54 -4 -89 28 -35 80 -36 103 -1 22 34 20
70 -6 95 -29 27 -64 25 -93 -5z"/>
<path d="M4155 14910 c-4 -7 -3 -16 3 -22 14 -14 45 -2 40 15 -6 16 -34 21
-43 7z"/>
<path d="M3928 14847 c-41 -24 -49 -51 -19 -67 45 -24 95 6 84 50 -9 35 -26
39 -65 17z"/>
<path d="M5109 14833 c-19 -36 -14 -67 15 -86 47 -31 104 6 97 63 -4 31 -28
49 -66 50 -23 0 -34 -7 -46 -27z"/>
<path d="M4660 14801 c-15 -30 -12 -56 9 -75 28 -26 75 -3 79 39 6 49 -65 78
-88 36z"/>
<path d="M3799 14683 c-19 -36 -14 -70 16 -89 44 -29 109 10 97 59 -14 61 -85
79 -113 30z"/>
<path d="M4170 14676 c0 -9 7 -16 16 -16 17 0 14 22 -4 28 -7 2 -12 -3 -12
-12z"/>
<path d="M3667 14662 c-33 -4 -60 -41 -55 -78 4 -37 46 -67 82 -58 85 21 61
146 -27 136z"/>
<path d="M4524 14655 c-14 -35 24 -68 51 -45 8 7 15 20 15 30 0 30 -56 42 -66
15z"/>
<path d="M4390 14521 c-27 -51 4 -103 55 -93 46 8 63 72 27 100 -25 19 -70 15
-82 -7z"/>
<path d="M4645 14492 c-24 -5 -54 -41 -55 -65 0 -10 12 -29 26 -42 29 -27 69
-25 91 4 35 45 -7 115 -62 103z"/>
<path d="M3317 14454 c-15 -16 -7 -53 14 -59 30 -10 58 19 43 43 -12 18 -45
28 -57 16z"/>
<path d="M5083 14453 c-31 -6 -55 -47 -47 -80 9 -36 31 -52 71 -53 61 0 87 81
40 121 -22 19 -26 19 -64 12z"/>
<path d="M3952 14418 c-27 -27 5 -61 34 -37 19 15 18 35 -2 43 -20 8 -18 8
-32 -6z"/>
<path d="M3551 14391 c-7 -13 -6 -23 3 -36 17 -24 50 -15 54 14 6 39 -39 56
-57 22z"/>
<path d="M4250 14380 c0 -5 5 -10 10 -10 6 0 10 5 10 10 0 6 -4 10 -10 10 -5
0 -10 -4 -10 -10z"/>
<path d="M3142 14368 c-27 -27 -2 -73 35 -66 25 5 42 56 23 68 -21 13 -44 12
-58 -2z"/>
<path d="M3741 14322 c-37 -6 -62 -41 -55 -77 8 -42 41 -66 79 -59 37 8 54 30
55 70 0 43 -35 73 -79 66z"/>
<path d="M4456 14313 c-4 -9 0 -23 8 -31 12 -13 18 -13 30 -2 20 16 20 36 0
44 -24 9 -31 7 -38 -11z"/>
<path d="M4744 14235 c-4 -10 -1 -21 7 -26 20 -12 34 -5 34 17 0 24 -33 31
-41 9z"/>
<path d="M3593 14184 c-9 -23 13 -40 32 -24 12 10 13 16 4 26 -15 18 -28 18
-36 -2z"/>
<path d="M3410 14163 c-65 -26 -46 -123 24 -123 59 0 80 73 32 112 -22 18 -31
20 -56 11z"/>
<path d="M4315 14150 c3 -5 8 -10 11 -10 2 0 4 5 4 10 0 6 -5 10 -11 10 -5 0
-7 -4 -4 -10z"/>
<path d="M3807 14112 c-26 -28 -22 -77 8 -96 32 -21 47 -20 79 5 22 17 26 27
21 48 -15 58 -74 81 -108 43z"/>
<path d="M5015 14109 c-10 -30 19 -53 47 -38 29 15 20 53 -14 57 -20 2 -28 -2
-33 -19z"/>
<path d="M2686 14076 c-27 -42 8 -100 53 -89 49 12 67 65 33 96 -27 25 -67 21
-86 -7z"/>
<path d="M4576 14079 c-24 -35 0 -79 45 -79 46 0 69 69 30 90 -31 16 -59 12
-75 -11z"/>
<path d="M3205 14070 c-4 -6 -3 -16 3 -22 6 -6 12 -6 17 2 4 6 3 16 -3 22 -6
6 -12 6 -17 -2z"/>
<path d="M2496 13979 c-35 -28 -35 -70 1 -99 49 -39 121 3 109 64 -11 55 -63
72 -110 35z"/>
<path d="M4788 13993 c-26 -6 -35 -53 -14 -69 29 -21 66 1 66 38 0 20 -28 36
-52 31z"/>
<path d="M3165 13942 c-58 -12 -76 -86 -27 -113 35 -20 67 -14 86 17 30 44 -9
106 -59 96z"/>
<path d="M3756 13931 c-27 -30 -4 -71 41 -71 26 0 46 31 36 57 -14 37 -50 44
-77 14z"/>
<path d="M5287 13943 c-11 -10 -8 -51 3 -58 6 -4 10 8 10 29 0 37 -2 41 -13
29z"/>
<path d="M4302 13898 c-17 -17 -15 -55 4 -62 34 -13 54 -6 60 21 10 40 -36 69
-64 41z"/>
<path d="M4474 13896 c-9 -24 4 -48 23 -44 12 2 18 12 18 28 0 29 -32 41 -41
16z"/>
<path d="M3390 13880 c0 -5 5 -10 10 -10 6 0 10 5 10 10 0 6 -4 10 -10 10 -5
0 -10 -4 -10 -10z"/>
<path d="M2898 13835 c-25 -34 -23 -83 5 -106 50 -42 127 -7 127 57 0 66 -95
101 -132 49z"/>
<path d="M5193 13812 c-26 -4 -53 -37 -53 -64 0 -51 85 -78 114 -36 36 51 -1
110 -61 100z"/>
<path d="M2325 13790 c-4 -7 -3 -16 3 -22 14 -14 45 -2 40 15 -6 16 -34 21
-43 7z"/>
<path d="M4060 13770 c0 -5 5 -10 10 -10 6 0 10 5 10 10 0 6 -4 10 -10 10 -5
0 -10 -4 -10 -10z"/>
<path d="M4894 13716 c-10 -26 1 -51 22 -54 28 -4 44 17 33 46 -9 25 -46 30
-55 8z"/>
<path d="M2494 13693 c-8 -32 6 -57 35 -61 28 -4 51 14 51 42 0 30 -18 46 -52
46 -22 0 -29 -6 -34 -27z"/>
<path d="M3355 13657 c-23 -17 -14 -47 15 -47 26 0 37 27 18 46 -12 12 -17 12
-33 1z"/>
<path d="M4240 13651 c0 -15 6 -21 21 -21 14 0 19 5 17 17 -5 26 -38 29 -38 4z"/>
<path d="M3090 13641 c-29 -55 7 -103 58 -79 16 8 28 23 30 36 7 50 -65 85
-88 43z"/>
<path d="M3831 13606 c-26 -27 -23 -66 6 -98 39 -43 113 -5 113 58 0 59 -77
85 -119 40z"/>
<path d="M4592 13610 c-19 -31 -15 -68 11 -82 64 -35 126 44 69 90 -24 19 -66
15 -80 -8z"/>
<path d="M4072 13598 c-27 -27 -6 -68 35 -68 16 0 24 7 29 25 11 43 -34 73
-64 43z"/>
<path d="M5019 13564 c-16 -20 -1 -48 29 -52 16 -3 23 3 28 23 10 41 -30 61
-57 29z"/>
<path d="M2445 13532 c-43 -10 -59 -66 -27 -95 27 -25 67 -21 86 8 28 43 -9
98 -59 87z"/>
<path d="M4420 13515 c-26 -32 13 -81 48 -59 34 22 22 74 -18 74 -10 0 -23 -7
-30 -15z"/>
<path d="M3677 13458 c-20 -11 -22 -41 -4 -56 19 -16 57 12 50 37 -6 24 -24
32 -46 19z"/>
<path d="M2245 13450 c3 -5 8 -10 11 -10 2 0 4 5 4 10 0 6 -5 10 -11 10 -5 0
-7 -4 -4 -10z"/>
<path d="M2995 13423 c-44 -12 -58 -60 -25 -93 38 -38 100 -14 100 38 0 19
-36 64 -49 61 -3 -1 -15 -4 -26 -6z"/>
<path d="M5077 13352 c-24 -26 -21 -59 7 -77 56 -37 111 40 58 83 -22 17 -46
15 -65 -6z"/>
<path d="M2504 13335 c-4 -9 -2 -21 4 -27 16 -16 47 -5 47 17 0 26 -42 34 -51
10z"/>
<path d="M4580 13343 c-42 -17 -54 -80 -23 -115 22 -25 75 -23 99 3 48 53 -9
137 -76 112z"/>
<path d="M3762 13288 c5 -15 28 -18 29 -3 0 6 -7 12 -17 13 -10 3 -15 -1 -12
-10z"/>
<path d="M2925 13252 c-53 -11 -72 -65 -35 -102 47 -47 126 -3 104 57 -11 31
-42 51 -69 45z"/>
<path d="M4350 13230 c-27 -27 -26 -75 2 -94 32 -22 55 -20 84 9 19 19 23 30
18 52 -13 53 -67 70 -104 33z"/>
<path d="M4750 13234 c-11 -12 -10 -18 3 -31 8 -9 23 -13 31 -10 21 8 21 43 0
51 -21 8 -20 8 -34 -10z"/>
<path d="M3870 13205 c-28 -53 44 -101 84 -56 19 20 14 59 -8 73 -24 17 -63 8
-76 -17z"/>
<path d="M3387 13163 c-16 -15 -6 -52 15 -59 28 -9 52 20 37 47 -10 19 -39 25
-52 12z"/>
<path d="M3200 13150 c0 -5 5 -10 10 -10 6 0 10 5 10 10 0 6 -4 10 -10 10 -5
0 -10 -4 -10 -10z"/>
<path d="M5090 13140 c0 -5 5 -10 10 -10 6 0 10 5 10 10 0 6 -4 10 -10 10 -5
0 -10 -4 -10 -10z"/>
<path d="M5245 13114 c-21 -32 -12 -77 20 -98 13 -9 27 -16 30 -16 3 0 5 32 5
70 0 62 -2 70 -19 70 -10 0 -26 -12 -36 -26z"/>
<path d="M4539 13047 c-34 -17 -37 -59 -6 -76 35 -19 67 0 67 39 0 37 -27 53
-61 37z"/>
<path d="M3820 13030 c0 -5 5 -10 10 -10 6 0 10 5 10 10 0 6 -4 10 -10 10 -5
0 -10 -4 -10 -10z"/>
<path d="M2586 13001 c-16 -17 -16 -23 -4 -48 25 -53 98 -38 98 20 0 43 -64
62 -94 28z"/>
<path d="M4090 13007 c-32 -16 -35 -32 -10 -57 16 -16 24 -18 40 -10 23 12 27
52 7 68 -9 8 -20 8 -37 -1z"/>
<path d="M3460 12972 c-30 -4 -59 -39 -60 -70 0 -13 11 -33 25 -46 30 -28 78
-24 100 7 38 54 -1 119 -65 109z"/>
<path d="M2943 12958 c2 -7 10 -13 17 -13 7 0 15 6 18 13 2 7 -5 12 -18 12
-13 0 -20 -5 -17 -12z"/>
<path d="M5036 12878 c-13 -19 -14 -25 -2 -43 18 -27 56 -32 73 -9 17 23 16
39 -3 58 -22 22 -50 20 -68 -6z"/>
<path d="M5285 12891 c-3 -5 -1 -12 5 -16 5 -3 10 1 10 9 0 18 -6 21 -15 7z"/>
<path d="M4263 12874 c-8 -21 13 -42 28 -27 13 13 5 43 -11 43 -6 0 -13 -7
-17 -16z"/>
<path d="M3700 12855 c-19 -23 -4 -64 27 -71 46 -12 78 52 39 78 -18 13 -53 9
-66 -7z"/>
<path d="M4628 12842 c-23 -4 -34 -48 -18 -67 23 -28 69 -4 70 35 0 19 -29 37
-52 32z"/>
<path d="M2680 12805 c-18 -21 -5 -47 22 -43 26 3 37 36 16 49 -18 12 -24 11
-38 -6z"/>
<path d="M2863 12804 c-3 -8 -1 -20 6 -27 14 -14 47 15 37 32 -10 16 -36 13
-43 -5z"/>
<path d="M4834 12796 c-8 -22 3 -33 18 -18 9 9 9 15 0 24 -9 9 -13 7 -18 -6z"/>
<path d="M4092 12767 c-12 -13 -22 -33 -22 -46 0 -28 46 -71 76 -71 58 0 87
92 39 124 -34 22 -68 20 -93 -7z"/>
<path d="M4285 12743 c-50 -13 -62 -91 -18 -120 77 -51 153 53 80 109 -23 18
-28 19 -62 11z"/>
<path d="M5196 12727 c-11 -8 -17 -23 -14 -38 2 -19 10 -25 35 -27 28 -3 33 0
39 24 5 20 2 31 -11 41 -23 16 -27 16 -49 0z"/>
<path d="M3046 12665 c-21 -31 -20 -37 5 -69 16 -21 26 -25 47 -20 51 12 69
65 34 97 -27 25 -67 21 -86 -8z"/>
<path d="M3733 12649 c-45 -17 -18 -87 27 -71 33 11 41 56 13 70 -10 6 -28 6
-40 1z"/>
<path d="M3268 12615 c-14 -30 3 -55 38 -55 17 0 25 7 30 25 13 51 -46 77 -68
30z"/>
<path d="M3957 12573 c-12 -11 -8 -23 8 -23 8 0 15 7 15 15 0 16 -12 20 -23 8z"/>
<path d="M5110 12560 c0 -5 5 -10 10 -10 6 0 10 5 10 10 0 6 -4 10 -10 10 -5
0 -10 -4 -10 -10z"/>
<path d="M3424 12536 c-9 -24 4 -48 23 -44 12 2 18 12 18 28 0 29 -32 41 -41
16z"/>
<path d="M4174 12523 c-29 -31 -26 -67 8 -95 29 -25 63 -22 91 7 42 46 11 115
-51 115 -12 0 -34 -12 -48 -27z"/>
<path d="M5242 12508 c-26 -26 2 -78 41 -78 13 0 17 10 17 45 0 40 -2 45 -23
45 -13 0 -28 -5 -35 -12z"/>
<path d="M3215 12410 c4 -6 11 -8 16 -5 14 9 11 15 -7 15 -8 0 -12 -5 -9 -10z"/>
<path d="M5013 12390 c-45 -18 -54 -87 -15 -117 28 -21 79 -16 96 9 23 33 20
76 -6 99 -25 20 -42 22 -75 9z"/>
<path d="M4460 12380 c0 -5 5 -10 11 -10 5 0 7 5 4 10 -3 6 -8 10 -11 10 -2 0
-4 -4 -4 -10z"/>
<path d="M4600 12350 c-39 -39 -14 -100 42 -100 26 0 58 35 58 64 0 20 -39 56
-62 56 -10 0 -27 -9 -38 -20z"/>
<path d="M3040 12331 c0 -21 26 -36 36 -20 9 15 -3 39 -21 39 -8 0 -15 -9 -15
-19z"/>
<path d="M3330 12331 c-27 -51 -3 -91 54 -91 48 0 67 66 28 98 -24 19 -70 15
-82 -7z"/>
<path d="M3988 12298 c-25 -46 1 -88 54 -88 30 0 48 23 48 64 0 47 -79 65
-102 24z"/>
<path d="M3785 12273 c-10 -23 -6 -56 9 -65 24 -16 56 -8 68 17 9 21 8 28 -7
45 -22 25 -60 26 -70 3z"/>
<path d="M3607 12254 c-4 -4 -7 -16 -7 -26 0 -13 7 -18 26 -18 21 0 25 4 22
22 -3 23 -27 35 -41 22z"/>
<path d="M3152 12205 c-33 -42 -3 -105 51 -105 28 0 66 47 60 73 -15 59 -76
77 -111 32z"/>
<path d="M3450 12171 c-27 -51 -3 -91 54 -91 48 0 67 66 28 98 -24 19 -70 15
-82 -7z"/>
<path d="M4302 12158 c-7 -7 -12 -24 -12 -38 0 -34 17 -50 52 -50 29 0 48 23
48 59 0 34 -62 55 -88 29z"/>
<path d="M5230 12080 c0 -5 5 -10 10 -10 6 0 10 5 10 10 0 6 -4 10 -10 10 -5
0 -10 -4 -10 -10z"/>
<path d="M3645 12052 c-36 -7 -57 -34 -50 -62 10 -37 24 -50 58 -50 54 0 76
60 35 97 -13 11 -32 18 -43 15z"/>
<path d="M3191 11956 c-14 -17 -7 -36 14 -36 22 0 29 20 13 36 -13 13 -16 13
-27 0z"/>
<path d="M4581 11956 c-17 -20 -2 -48 23 -44 24 3 34 37 14 49 -18 12 -24 11
-37 -5z"/>
<path d="M4774 11955 c-9 -23 3 -45 25 -45 23 0 32 18 19 43 -11 21 -37 22
-44 2z"/>
<path d="M4964 11923 c-15 -27 -6 -52 23 -59 33 -9 55 18 44 49 -10 28 -52 34
-67 10z"/>
<path d="M3952 11897 c-28 -29 -28 -57 -1 -91 40 -51 119 -18 119 51 0 58 -77
84 -118 40z"/>
<path d="M3750 11853 c-42 -17 -44 -77 -4 -95 52 -24 98 47 56 85 -19 18 -27
19 -52 10z"/>
<path d="M3314 11826 c-8 -22 3 -33 18 -18 9 9 9 15 0 24 -9 9 -13 7 -18 -6z"/>
<path d="M4290 11815 c-19 -23 -8 -50 22 -53 34 -4 50 34 22 55 -23 17 -29 16
-44 -2z"/>
<path d="M4667 11813 c-11 -10 -8 -38 4 -50 14 -14 46 -5 53 14 11 29 -36 58
-57 36z"/>
<path d="M3585 11739 c-5 -14 -2 -25 6 -30 19 -12 25 -11 39 6 10 12 10 18 0
30 -18 21 -38 19 -45 -6z"/>
<path d="M4127 11722 c-22 -24 -11 -61 21 -69 48 -12 81 37 47 71 -21 21 -48
20 -68 -2z"/>
<path d="M4620 11657 c-32 -16 -40 -65 -14 -84 27 -19 62 -16 74 8 26 48 -14
99 -60 76z"/>
<path d="M4017 11594 c-12 -12 -8 -52 6 -57 27 -9 48 5 45 32 -3 26 -35 41
-51 25z"/>
<path d="M4795 11543 c-11 -3 -28 -15 -37 -26 -58 -73 44 -155 105 -85 27 32
22 73 -12 97 -16 12 -31 20 -33 20 -1 -1 -12 -3 -23 -6z"/>
<path d="M4515 11502 c-36 -7 -57 -34 -50 -62 10 -37 24 -50 58 -50 54 0 76
60 35 97 -13 11 -32 18 -43 15z"/>
<path d="M4986 11493 c-8 -21 17 -48 38 -40 21 8 21 43 0 51 -24 9 -31 7 -38
-11z"/>
<path d="M3637 11403 c-13 -13 -7 -61 9 -67 42 -16 74 16 54 54 -10 19 -49 27
-63 13z"/>
<path d="M5190 11310 c0 -5 5 -10 10 -10 6 0 10 5 10 10 0 6 -4 10 -10 10 -5
0 -10 -4 -10 -10z"/>
<path d="M4320 11277 c0 -27 19 -40 39 -27 20 12 8 45 -17 48 -18 3 -22 -1
-22 -21z"/>
<path d="M4890 11255 c-17 -20 -5 -45 20 -45 11 0 23 7 26 15 6 15 -11 45 -26
45 -4 0 -13 -7 -20 -15z"/>
<path d="M4427 11174 c-14 -14 -7 -54 12 -64 28 -15 71 21 55 47 -11 19 -54
29 -67 17z"/>
<path d="M3665 11146 c-19 -14 -19 -15 0 -51 25 -45 30 -49 54 -35 28 15 35
47 17 75 -18 28 -43 32 -71 11z"/>
<path d="M5142 11141 c-19 -12 -11 -45 12 -49 24 -5 37 17 25 40 -11 20 -18
22 -37 9z"/>
<path d="M4917 10970 c-29 -42 9 -104 56 -93 46 11 64 73 30 99 -27 20 -70 17
-86 -6z"/>
<path d="M3870 10950 c0 -5 5 -10 10 -10 6 0 10 5 10 10 0 6 -4 10 -10 10 -5
0 -10 -4 -10 -10z"/>
<path d="M3980 10800 c0 -5 5 -10 10 -10 6 0 10 5 10 10 0 6 -4 10 -10 10 -5
0 -10 -4 -10 -10z"/>
<path d="M4242 10774 c-14 -25 -3 -53 25 -60 30 -8 44 9 41 46 -4 31 -51 41
-66 14z"/>
<path d="M5002 10778 c-28 -28 -7 -78 33 -78 27 0 45 18 45 45 0 27 -18 45
-45 45 -12 0 -26 -5 -33 -12z"/>
<path d="M5115 10672 c-57 -12 -77 -91 -30 -124 50 -37 117 5 108 68 -5 34
-45 63 -78 56z"/>
<path d="M4147 10592 c-23 -25 -21 -55 4 -78 19 -17 23 -17 47 -3 34 18 42 64
15 85 -25 19 -47 17 -66 -4z"/>
<path d="M4422 10508 c-27 -27 -6 -68 34 -68 22 0 34 17 34 50 0 28 -46 40
-68 18z"/>
<path d="M5005 10460 c-4 -6 -3 -16 3 -22 6 -6 12 -6 17 2 4 6 3 16 -3 22 -6
6 -12 6 -17 -2z"/>
<path d="M4580 10435 c-19 -23 -8 -50 22 -53 34 -4 50 34 22 55 -23 17 -29 16
-44 -2z"/>
<path d="M5210 10393 c-41 -15 -54 -78 -22 -106 42 -38 118 1 105 53 -12 49
-41 68 -83 53z"/>
<path d="M4210 10340 c-27 -27 -26 -75 2 -94 31 -22 64 -20 88 6 25 28 25 48
-1 82 -25 31 -61 34 -89 6z"/>
<path d="M4726 10295 c-9 -24 1 -35 30 -35 21 0 25 4 22 23 -4 27 -42 36 -52
12z"/>
<path d="M4952 10272 c-35 -5 -49 -45 -28 -77 22 -33 60 -33 82 0 27 41 -3 85
-54 77z"/>
<path d="M4401 10251 c-15 -27 -14 -47 5 -65 21 -22 57 -20 78 3 16 17 16 23
4 48 -17 36 -71 45 -87 14z"/>
<path d="M5110 10181 c0 -19 23 -35 34 -24 14 15 5 43 -14 43 -13 0 -20 -7
-20 -19z"/>
<path d="M4245 10160 c-8 -13 56 -120 71 -120 7 0 19 11 28 25 19 28 12 73
-13 92 -19 15 -77 17 -86 3z"/>
<path d="M5010 10061 c-35 -67 29 -124 88 -78 20 15 15 75 -7 87 -31 16 -69
12 -81 -9z"/>
<path d="M4846 10034 c-25 -24 -20 -71 8 -90 22 -13 29 -14 53 -2 35 17 45 74
17 95 -24 18 -59 16 -78 -3z"/>
<path d="M4704 10002 c-57 -9 -72 -88 -24 -123 50 -36 116 7 104 69 -7 32 -47
60 -80 54z"/>
<path d="M5240 9939 c0 -25 33 -22 38 4 2 12 -3 17 -17 17 -15 0 -21 -6 -21
-21z"/>
<path d="M4451 9852 c-12 -23 7 -65 32 -70 22 -4 57 25 57 48 0 39 -70 57 -89
22z"/>
<path d="M4931 9852 c-12 -23 7 -65 32 -70 22 -4 57 25 57 48 0 39 -70 57 -89
22z"/>
<path d="M4613 9704 c-5 -14 11 -33 28 -34 10 0 20 31 13 41 -9 15 -34 10 -41
-7z"/>
<path d="M4976 9624 c-15 -40 -1 -64 39 -64 23 0 38 37 25 60 -13 24 -55 27
-64 4z"/>
<path d="M5273 9340 c-42 -17 -49 -64 -15 -102 30 -35 42 -22 42 47 0 36 -1
65 -2 64 -2 0 -13 -4 -25 -9z"/>
<path d="M5013 9173 c-18 -7 -16 -42 2 -49 24 -10 47 14 34 37 -10 19 -15 21
-36 12z"/>
</g>
</svg>
