<svg version="1.0" xmlns="http://www.w3.org/2000/svg"
 width="528.000000pt" height="1995.000000pt" viewBox="0 0 528.000000 1995.000000"
 preserveAspectRatio="xMidYMid meet">

<g transform="translate(0.000000,1995.000000) scale(0.100000,-0.100000)"
fill="#BEBEBE" stroke="#BEBEBE">
<path d="M12 11598 c-20 -20 -14 -44 14 -57 20 -9 30 -9 40 0 27 22 10 69 -26
69 -9 0 -21 -5 -28 -12z"/>
<path d="M90 11395 c0 -9 5 -15 11 -13 6 2 11 8 11 13 0 5 -5 11 -11 13 -6 2
-11 -4 -11 -13z"/>
<path d="M285 11287 c-23 -17 -14 -47 15 -47 26 0 37 27 18 46 -12 12 -17 12
-33 1z"/>
<path d="M12 11213 c2 -10 10 -18 18 -18 22 0 18 29 -3 33 -14 3 -18 -1 -15
-15z"/>
<path d="M197 11152 c-22 -24 -21 -35 3 -57 17 -15 24 -16 45 -7 31 14 34 56
6 72 -27 14 -35 13 -54 -8z"/>
<path d="M352 11148 c7 -19 38 -22 38 -4 0 10 -9 16 -21 16 -12 0 -19 -5 -17
-12z"/>
<path d="M1030 11145 c0 -8 5 -15 10 -15 6 0 10 7 10 15 0 8 -4 15 -10 15 -5
0 -10 -7 -10 -15z"/>
<path d="M781 11086 c-13 -16 -4 -46 14 -46 19 0 36 25 29 44 -8 20 -28 21
-43 2z"/>
<path d="M1142 11078 c-28 -28 -3 -72 39 -66 30 4 47 33 33 56 -14 21 -55 27
-72 10z"/>
<path d="M565 11030 c-3 -5 -1 -10 4 -10 6 0 11 5 11 10 0 6 -2 10 -4 10 -3 0
-8 -4 -11 -10z"/>
<path d="M337 11002 c-10 -10 -17 -28 -17 -39 0 -22 32 -56 58 -59 23 -4 62
35 62 61 0 48 -70 73 -103 37z"/>
<path d="M1357 10954 c-8 -8 1 -24 14 -24 5 0 9 7 9 15 0 15 -12 20 -23 9z"/>
<path d="M914 10896 c-12 -31 0 -51 31 -51 27 0 30 3 30 30 0 25 -4 30 -28 33
-17 2 -29 -2 -33 -12z"/>
<path d="M744 10890 c-7 -7 -9 -21 -7 -31 4 -15 13 -19 32 -17 20 2 26 8 26
28 0 28 -31 40 -51 20z"/>
<path d="M220 10844 c0 -8 5 -12 10 -9 6 3 10 10 10 16 0 5 -4 9 -10 9 -5 0
-10 -7 -10 -16z"/>
<path d="M326 10844 c-34 -34 -9 -78 40 -72 38 4 52 30 34 62 -15 30 -50 34
-74 10z"/>
<path d="M1198 10818 c-9 -23 3 -38 29 -38 20 0 24 4 21 23 -3 25 -42 37 -50
15z"/>
<path d="M574 10806 c-11 -29 0 -51 26 -51 21 0 25 5 25 30 0 24 -5 31 -23 33
-13 2 -24 -3 -28 -12z"/>
<path d="M820 10745 c0 -9 5 -15 11 -13 6 2 11 8 11 13 0 5 -5 11 -11 13 -6 2
-11 -4 -11 -13z"/>
<path d="M1045 10740 c-3 -5 -1 -10 4 -10 6 0 11 5 11 10 0 6 -2 10 -4 10 -3
0 -8 -4 -11 -10z"/>
<path d="M54 10699 c-8 -14 11 -33 25 -25 6 4 11 14 11 22 0 16 -26 19 -36 3z"/>
<path d="M1602 10688 c-23 -23 -14 -55 17 -66 31 -11 41 -5 54 30 12 35 -44
63 -71 36z"/>
<path d="M862 10668 c-15 -15 -15 -61 0 -76 7 -7 24 -12 38 -12 33 0 50 17 50
50 0 33 -17 50 -50 50 -14 0 -31 -5 -38 -12z"/>
<path d="M1860 10665 c-20 -24 -21 -47 -3 -67 37 -41 105 -2 87 50 -11 33 -62
43 -84 17z"/>
<path d="M1071 10644 c-41 -29 -16 -104 36 -104 27 0 53 31 53 62 0 45 -51 68
-89 42z"/>
<path d="M240 10640 c0 -5 7 -10 15 -10 8 0 15 5 15 10 0 6 -7 10 -15 10 -8 0
-15 -4 -15 -10z"/>
<path d="M392 10638 c-15 -15 -15 -51 0 -66 28 -28 78 -7 78 33 0 27 -18 45
-45 45 -12 0 -26 -5 -33 -12z"/>
<path d="M2047 10632 c-30 -33 -15 -72 28 -72 43 0 59 44 27 73 -24 22 -35 21
-55 -1z"/>
<path d="M647 10634 c-8 -8 1 -24 14 -24 5 0 9 7 9 15 0 15 -12 20 -23 9z"/>
<path d="M2264 10596 c-9 -24 4 -48 23 -44 12 2 18 12 18 28 0 29 -32 41 -41
16z"/>
<path d="M691 10516 c-6 -7 -9 -20 -5 -29 15 -39 72 -19 60 21 -8 25 -38 29
-55 8z"/>
<path d="M1367 10513 c-4 -3 -7 -12 -7 -20 0 -17 26 -17 33 1 8 21 -11 35 -26
19z"/>
<path d="M373 10464 c-4 -11 1 -22 12 -31 16 -11 21 -11 33 1 8 8 12 22 9 30
-8 21 -46 21 -54 0z"/>
<path d="M1477 10453 c-11 -10 -8 -38 4 -50 14 -14 46 -5 53 14 11 29 -36 58
-57 36z"/>
<path d="M2542 10451 c-8 -4 -12 -19 -10 -32 2 -18 9 -24 28 -24 19 0 26 6 28
24 3 20 -11 41 -28 41 -3 0 -11 -4 -18 -9z"/>
<path d="M2360 10430 c-39 -34 -14 -100 39 -100 28 0 46 18 53 52 9 48 -54 81
-92 48z"/>
<path d="M2184 10426 c-9 -24 4 -48 23 -44 12 2 18 12 18 28 0 29 -32 41 -41
16z"/>
<path d="M40 10416 c-16 -20 -9 -56 13 -70 39 -24 79 44 41 71 -23 17 -39 16
-54 -1z"/>
<path d="M277 10352 c-35 -38 -9 -102 40 -102 47 0 71 71 35 103 -24 22 -55
21 -75 -1z"/>
<path d="M990 10325 c0 -8 5 -15 10 -15 6 0 10 7 10 15 0 8 -4 15 -10 15 -5 0
-10 -7 -10 -15z"/>
<path d="M1761 10321 c-17 -11 -7 -41 13 -41 22 0 30 20 15 36 -9 8 -19 10
-28 5z"/>
<path d="M2702 10314 c-28 -20 -28 -55 1 -82 29 -27 47 -28 75 -2 58 54 -11
130 -76 84z"/>
<path d="M2940 10302 c0 -15 5 -33 12 -40 24 -24 88 -9 88 20 0 7 -82 48 -96
48 -2 0 -4 -13 -4 -28z"/>
<path d="M600 10306 c0 -10 9 -16 21 -16 24 0 21 23 -4 28 -10 2 -17 -3 -17
-12z"/>
<path d="M1402 10268 c-7 -7 -12 -24 -12 -38 0 -33 17 -50 50 -50 33 0 50 17
50 50 0 33 -17 50 -50 50 -14 0 -31 -5 -38 -12z"/>
<path d="M135 10260 c3 -5 8 -10 11 -10 2 0 4 5 4 10 0 6 -5 10 -11 10 -5 0
-7 -4 -4 -10z"/>
<path d="M390 10180 c0 -5 7 -10 15 -10 8 0 15 5 15 10 0 6 -7 10 -15 10 -8 0
-15 -4 -15 -10z"/>
<path d="M2563 10173 c-7 -3 -13 -16 -13 -30 0 -20 4 -24 23 -21 13 2 23 11
25 24 3 22 -13 34 -35 27z"/>
<path d="M850 10125 c-26 -32 13 -81 48 -59 34 22 22 74 -18 74 -10 0 -23 -7
-30 -15z"/>
<path d="M2040 10115 c-13 -16 -6 -51 13 -58 21 -8 57 12 57 31 0 38 -46 56
-70 27z"/>
<path d="M1750 10105 c-10 -11 -10 -19 -2 -27 15 -15 44 -2 40 19 -4 23 -22
27 -38 8z"/>
<path d="M3013 10104 c-3 -8 -1 -20 5 -26 16 -16 42 -2 42 22 0 24 -38 28 -47
4z"/>
<path d="M3167 10082 c-22 -24 -21 -45 1 -65 26 -24 49 -21 68 8 34 52 -28
102 -69 57z"/>
<path d="M232 10078 c-32 -32 18 -87 53 -58 28 23 12 70 -25 70 -9 0 -21 -5
-28 -12z"/>
<path d="M2797 10072 c-20 -22 -22 -56 -4 -69 39 -31 97 -12 97 31 0 48 -61
73 -93 38z"/>
<path d="M554 10065 c-9 -23 4 -47 23 -43 22 4 30 38 11 49 -19 13 -28 11 -34
-6z"/>
<path d="M2226 10041 c-32 -35 -7 -91 41 -91 41 0 62 59 31 86 -27 25 -53 27
-72 5z"/>
<path d="M410 10036 c-27 -33 18 -72 48 -42 13 13 14 20 6 34 -15 23 -38 26
-54 8z"/>
<path d="M1832 10001 c-20 -12 -10 -46 13 -46 14 0 20 7 20 24 0 27 -13 35
-33 22z"/>
<path d="M2993 9995 c-29 -32 -9 -85 32 -85 29 0 45 19 45 52 0 41 -51 63 -77
33z"/>
<path d="M1390 9985 c-14 -17 -5 -51 16 -59 22 -8 54 11 54 32 0 38 -46 56
-70 27z"/>
<path d="M2465 9970 c-15 -16 -17 -26 -9 -48 13 -38 57 -42 80 -8 15 24 15 28
0 51 -20 30 -47 32 -71 5z"/>
<path d="M772 9961 c2 -7 7 -12 11 -12 12 1 9 15 -3 20 -7 2 -11 -2 -8 -8z"/>
<path d="M2656 9963 c-3 -4 -6 -15 -6 -25 0 -24 33 -21 38 3 3 17 -21 33 -32
22z"/>
<path d="M1147 9938 c-20 -10 -23 -58 -5 -76 28 -28 78 -7 78 34 0 37 -41 61
-73 42z"/>
<path d="M552 9918 c-28 -28 1 -64 43 -54 40 10 27 66 -15 66 -9 0 -21 -5 -28
-12z"/>
<path d="M125 9900 c-3 -5 1 -10 9 -10 9 0 16 5 16 10 0 6 -4 10 -9 10 -6 0
-13 -4 -16 -10z"/>
<path d="M1576 9854 c-20 -19 -21 -61 -2 -80 18 -17 68 -18 84 -2 7 7 12 26
12 43 0 17 -5 36 -12 43 -17 17 -64 15 -82 -4z"/>
<path d="M2137 9852 c-35 -38 -8 -92 46 -92 27 0 57 32 57 61 0 43 -73 65
-103 31z"/>
<path d="M864 9846 c-10 -26 4 -48 28 -44 17 2 23 10 23 28 0 18 -6 26 -23 28
-13 2 -25 -3 -28 -12z"/>
<path d="M0 9810 c0 -18 4 -29 10 -25 13 8 13 42 0 50 -6 4 -10 -7 -10 -25z"/>
<path d="M3037 9802 c-22 -24 -21 -55 1 -75 24 -22 45 -21 65 1 22 24 21 55
-1 75 -24 22 -45 21 -65 -1z"/>
<path d="M1340 9775 c-29 -35 -7 -95 35 -95 27 0 55 29 55 57 0 43 -64 70 -90
38z"/>
<path d="M456 9725 c-28 -28 -29 -55 -5 -81 27 -29 60 -31 82 -6 49 54 -26
138 -77 87z"/>
<path d="M2488 9712 c-22 -4 -24 -40 -2 -49 8 -3 20 -1 26 5 16 16 -3 49 -24
44z"/>
<path d="M856 9694 c-19 -19 -20 -43 -2 -67 21 -27 67 -19 85 15 14 24 14 28
-3 47 -23 25 -58 27 -80 5z"/>
<path d="M2853 9666 c-22 -25 -23 -47 -4 -70 29 -34 91 -6 91 41 0 42 -59 62
-87 29z"/>
<path d="M1913 9604 c-6 -17 6 -45 23 -51 5 -2 19 3 29 11 16 12 18 18 9 33
-15 24 -52 29 -61 7z"/>
<path d="M2600 9596 c0 -8 4 -17 9 -20 11 -7 33 18 24 27 -12 12 -33 7 -33 -7z"/>
<path d="M1250 9545 c-14 -17 -6 -61 13 -68 20 -7 62 16 61 33 -3 47 -47 68
-74 35z"/>
<path d="M2324 9539 c-10 -17 13 -36 27 -22 12 12 4 33 -11 33 -5 0 -12 -5
-16 -11z"/>
<path d="M192 9508 c-15 -15 -15 -51 0 -66 35 -35 96 9 76 54 -12 26 -55 33
-76 12z"/>
<path d="M1722 9448 c-22 -22 -14 -67 13 -80 21 -9 28 -8 45 7 36 32 20 85
-25 85 -12 0 -26 -5 -33 -12z"/>
<path d="M1876 9444 c-32 -31 -10 -94 33 -94 23 0 51 31 51 57 0 23 -29 53
-53 53 -8 0 -23 -7 -31 -16z"/>
<path d="M2774 9449 c-10 -17 13 -36 27 -22 12 12 4 33 -11 33 -5 0 -12 -5
-16 -11z"/>
<path d="M2507 9432 c-35 -38 -9 -102 40 -102 47 0 71 71 35 103 -24 22 -55
21 -75 -1z"/>
<path d="M643 9393 c-7 -2 -13 -13 -13 -23 0 -26 21 -39 48 -29 24 9 29 28 10
47 -13 13 -24 14 -45 5z"/>
<path d="M1260 9366 c-28 -35 11 -93 48 -70 35 22 22 84 -18 84 -10 0 -23 -7
-30 -14z"/>
<path d="M490 9300 c0 -13 7 -20 20 -20 13 0 20 7 20 20 0 13 -7 20 -20 20
-13 0 -20 -7 -20 -20z"/>
<path d="M1795 9300 c-7 -23 10 -50 32 -50 18 0 34 41 21 58 -16 19 -46 14
-53 -8z"/>
<path d="M2547 9272 c-22 -24 -22 -51 1 -68 24 -19 46 -17 65 4 22 24 21 45
-1 65 -24 22 -45 21 -65 -1z"/>
<path d="M2290 9256 c-6 -8 -10 -25 -8 -38 2 -19 9 -23 38 -23 31 0 35 3 38
29 5 42 -41 64 -68 32z"/>
<path d="M80 9236 c-28 -34 11 -93 47 -70 32 20 39 41 19 63 -22 24 -49 27
-66 7z"/>
<path d="M1490 9235 c-16 -19 -3 -55 19 -55 29 0 44 25 31 49 -13 25 -33 27
-50 6z"/>
<path d="M2062 9233 c-22 -41 16 -75 62 -57 19 7 21 45 4 62 -18 18 -56 15
-66 -5z"/>
<path d="M2800 9240 c0 -5 5 -10 10 -10 6 0 10 5 10 10 0 6 -4 10 -10 10 -5 0
-10 -4 -10 -10z"/>
<path d="M362 9208 c2 -12 10 -23 18 -23 22 0 19 39 -3 43 -15 3 -18 -1 -15
-20z"/>
<path d="M1197 9202 c-35 -38 -9 -102 40 -102 47 0 71 71 35 103 -24 22 -55
21 -75 -1z"/>
<path d="M490 9165 c-17 -20 -5 -45 20 -45 11 0 23 7 26 15 6 15 -11 45 -26
45 -4 0 -13 -7 -20 -15z"/>
<path d="M855 9100 c-4 -7 -3 -16 3 -22 14 -14 45 -2 40 15 -6 16 -34 21 -43
7z"/>
<path d="M1630 9075 c0 -8 7 -15 15 -15 8 0 15 7 15 15 0 8 -7 15 -15 15 -8 0
-15 -7 -15 -15z"/>
<path d="M2344 9049 c-20 -22 -13 -43 19 -63 36 -23 75 36 47 70 -17 20 -44
17 -66 -7z"/>
<path d="M530 9035 c-28 -34 11 -92 48 -69 20 13 28 52 13 67 -17 17 -48 18
-61 2z"/>
<path d="M696 9028 c-22 -31 -20 -54 6 -78 28 -26 49 -25 76 3 28 30 28 62 0
81 -32 22 -64 20 -82 -6z"/>
<path d="M2124 9016 c-11 -29 0 -51 26 -51 21 0 25 5 25 30 0 24 -5 31 -23 33
-13 2 -24 -3 -28 -12z"/>
<path d="M1911 8992 c-13 -24 11 -61 36 -58 26 4 40 32 27 54 -16 25 -51 27
-63 4z"/>
<path d="M230 8985 c-11 -13 -11 -18 2 -31 20 -20 50 -7 46 20 -4 26 -30 32
-48 11z"/>
<path d="M1432 8988 c-7 -7 -12 -24 -12 -38 0 -33 17 -50 50 -50 33 0 50 17
50 50 0 33 -17 50 -50 50 -14 0 -31 -5 -38 -12z"/>
<path d="M1124 8925 c-4 -9 -2 -21 4 -27 15 -15 44 -1 40 19 -4 23 -36 29 -44
8z"/>
<path d="M1562 8918 c-34 -34 6 -90 48 -68 35 19 20 80 -20 80 -9 0 -21 -5
-28 -12z"/>
<path d="M0 8866 c0 -63 11 -74 45 -52 44 29 23 106 -28 106 -14 0 -17 -10
-17 -54z"/>
<path d="M903 8884 c-7 -18 11 -39 26 -30 17 11 13 46 -4 46 -9 0 -18 -7 -22
-16z"/>
<path d="M522 8868 c-7 -7 -12 -21 -12 -33 0 -58 88 -63 97 -6 6 42 -54 70
-85 39z"/>
<path d="M170 8855 c-15 -18 -10 -45 12 -59 26 -16 53 14 44 48 -7 29 -36 35
-56 11z"/>
<path d="M2172 8749 c2 -6 8 -10 13 -10 5 0 11 4 13 10 2 6 -4 11 -13 11 -9 0
-15 -5 -13 -11z"/>
<path d="M1063 8724 c-13 -21 -14 -29 -3 -49 23 -43 90 -26 90 23 0 22 -15 37
-48 45 -17 4 -27 -1 -39 -19z"/>
<path d="M2364 8716 c-9 -24 4 -48 23 -44 12 2 18 12 18 28 0 29 -32 41 -41
16z"/>
<path d="M152 8707 c-9 -10 -8 -18 2 -32 18 -25 48 -13 44 17 -4 27 -30 35
-46 15z"/>
<path d="M1734 8709 c-7 -12 15 -31 28 -23 4 3 8 12 8 20 0 17 -26 19 -36 3z"/>
<path d="M507 8654 c-15 -15 -7 -45 11 -42 9 2 17 12 17 22 0 20 -16 31 -28
20z"/>
<path d="M1212 8628 c-18 -18 -14 -46 7 -58 25 -13 48 -4 56 21 12 38 -35 65
-63 37z"/>
<path d="M631 8612 c-8 -15 -7 -23 4 -32 23 -19 50 -8 50 20 0 32 -39 41 -54
12z"/>
<path d="M1885 8606 c-20 -15 -17 -45 8 -60 34 -22 75 29 45 56 -19 18 -33 19
-53 4z"/>
<path d="M1327 8592 c-51 -56 25 -132 79 -81 26 24 26 50 1 79 -21 25 -59 26
-80 2z"/>
<path d="M2043 8575 c-7 -20 2 -29 21 -22 9 4 13 13 10 22 -8 19 -23 19 -31 0z"/>
<path d="M1560 8560 c0 -5 5 -10 10 -10 6 0 10 5 10 10 0 6 -4 10 -10 10 -5 0
-10 -4 -10 -10z"/>
<path d="M2348 8559 c-21 -12 -24 -69 -6 -87 17 -17 64 -15 82 4 48 47 -17
118 -76 83z"/>
<path d="M2224 8515 c-7 -18 3 -35 21 -35 18 0 26 15 19 34 -8 20 -33 21 -40
1z"/>
<path d="M1532 8458 c-29 -29 -8 -86 35 -93 42 -7 71 59 39 91 -18 17 -58 18
-74 2z"/>
<path d="M0 8376 c0 -39 18 -48 41 -20 15 18 2 47 -25 52 -12 3 -16 -4 -16
-32z"/>
<path d="M1357 8404 c-8 -8 1 -24 14 -24 5 0 9 7 9 15 0 15 -12 20 -23 9z"/>
<path d="M2364 8345 c-9 -23 3 -45 24 -45 25 0 44 23 36 44 -8 20 -53 21 -60
1z"/>
<path d="M2006 8277 c-21 -16 -18 -45 7 -61 37 -23 77 35 41 61 -10 7 -21 13
-24 13 -3 0 -14 -6 -24 -13z"/>
<path d="M703 8273 c-22 -8 -15 -51 8 -58 29 -10 50 13 38 43 -8 21 -21 26
-46 15z"/>
<path d="M1560 8260 c0 -13 5 -18 15 -14 8 4 15 12 15 20 0 8 -7 14 -15 14 -8
0 -15 -9 -15 -20z"/>
<path d="M2173 8255 c-18 -20 -16 -39 6 -59 25 -23 59 -13 67 20 11 45 -43 74
-73 39z"/>
<path d="M1410 8246 c-28 -35 11 -93 48 -70 35 22 22 84 -18 84 -10 0 -23 -7
-30 -14z"/>
<path d="M127 8244 c-16 -16 -6 -45 20 -55 37 -14 55 -4 51 28 -2 23 -9 29
-33 31 -17 2 -34 0 -38 -4z"/>
<path d="M350 8190 c0 -5 5 -10 10 -10 6 0 10 5 10 10 0 6 -4 10 -10 10 -5 0
-10 -4 -10 -10z"/>
<path d="M1084 8186 c-9 -24 4 -48 23 -44 12 2 18 12 18 28 0 29 -32 41 -41
16z"/>
<path d="M947 8174 c-23 -23 7 -69 37 -58 25 10 17 58 -9 62 -12 2 -24 0 -28
-4z"/>
<path d="M1252 8158 c2 -12 10 -23 18 -23 22 0 19 39 -3 43 -15 3 -18 -1 -15
-20z"/>
<path d="M1757 8174 c-9 -10 2 -24 19 -24 8 0 14 7 14 15 0 15 -21 21 -33 9z"/>
<path d="M1560 8156 c-15 -19 -9 -56 11 -69 23 -14 66 -1 72 22 11 45 -53 82
-83 47z"/>
<path d="M1913 8155 c-7 -20 2 -29 21 -22 9 4 13 13 10 22 -8 19 -23 19 -31 0z"/>
<path d="M720 8095 c-7 -8 -10 -25 -6 -40 5 -20 13 -25 37 -25 33 0 44 17 35
55 -7 29 -46 35 -66 10z"/>
<path d="M1462 8058 c-25 -25 -1 -88 33 -83 30 5 45 19 45 44 0 32 -16 51 -45
51 -12 0 -26 -5 -33 -12z"/>
<path d="M1060 7996 c-28 -35 11 -93 48 -70 35 22 22 84 -18 84 -10 0 -23 -7
-30 -14z"/>
<path d="M1603 7967 c-21 -46 34 -78 61 -34 8 12 8 22 0 35 -17 27 -49 27 -61
-1z"/>
<path d="M887 7962 c-22 -24 -21 -55 1 -75 26 -23 58 -21 76 5 21 29 20 51 -2
71 -24 22 -55 21 -75 -1z"/>
<path d="M1367 7942 c-22 -25 -21 -55 2 -76 28 -25 53 -26 79 -3 26 24 28 44
6 75 -19 27 -64 29 -87 4z"/>
<path d="M997 7852 c-10 -10 -17 -21 -17 -24 0 -9 100 -52 106 -45 11 11 7 56
-6 72 -17 21 -63 19 -83 -3z"/>
<path d="M1739 7834 c-9 -11 -10 -20 -2 -32 14 -22 43 -22 57 1 9 15 7 21 -8
33 -25 18 -31 18 -47 -2z"/>
<path d="M2075 7770 c-28 -31 -10 -74 33 -78 55 -6 83 46 44 81 -25 23 -55 21
-77 -3z"/>
<path d="M1281 7746 c-16 -19 -11 -46 11 -60 26 -16 68 26 52 52 -14 22 -48
27 -63 8z"/>
<path d="M1454 7709 c-3 -6 -1 -16 5 -22 9 -9 14 -8 21 3 9 15 4 30 -10 30 -5
0 -12 -5 -16 -11z"/>
<path d="M1974 7525 c-4 -9 -2 -21 4 -27 15 -15 44 -1 40 19 -4 23 -36 29 -44
8z"/>
</g>
</svg>
