<?xml version="1.0" standalone="no"?>
<!DOCTYPE svg PUBLIC "-//W3C//DTD SVG 20010904//EN"
 "http://www.w3.org/TR/2001/REC-SVG-20010904/DTD/svg10.dtd">
<svg version="1.0" xmlns="http://www.w3.org/2000/svg"
 width="300.000000pt" height="15.000000pt" viewBox="0 0 300.000000 15.000000"
 preserveAspectRatio="xMidYMid meet">
<metadata>
Created by potrace 1.10, written by Peter Selinger 2001-2011
</metadata>
<g transform="translate(0.000000,15.000000) scale(0.100000,-0.100000)"
fill="#000000" stroke="none">
<path d="M1328 94 c-3 -2 -290 -4 -639 -5 -419 0 -628 -3 -617 -10 11 -6 287
-9 750 -8 403 0 801 0 883 -1 482 -5 777 -5 781 2 3 4 -61 8 -143 9 -320 1
-930 9 -969 13 -23 3 -44 3 -46 0z"/>
<path d="M2514 68 c-3 -5 14 -6 43 -2 63 8 67 14 9 12 -25 0 -49 -5 -52 -10z"/>
</g>
</svg>
