<svg version="1.0" xmlns="http://www.w3.org/2000/svg"
 width="1000.000000pt" height="2000.000000pt" viewBox="0 0 1000.000000 2000.000000"
 preserveAspectRatio="xMidYMid meet">

<g transform="translate(0.000000,2000.000000) scale(0.100000,-0.100000)"
fill="#BEBEBE" stroke="#BEBEBE">
<path d="M9738 15518 c-27 -16 -48 -34 -48 -38 0 -13 42 -40 62 -40 9 0 29 11
45 24 24 21 26 27 18 52 -6 15 -14 29 -20 30 -5 1 -31 -11 -57 -28z"/>
<path d="M9850 15360 c0 -13 5 -20 13 -17 6 2 12 10 12 17 0 7 -6 15 -12 18
-8 2 -13 -5 -13 -18z"/>
<path d="M9582 15308 c-16 -16 -15 -63 2 -77 8 -7 27 -11 43 -9 33 4 54 48 37
76 -13 21 -65 27 -82 10z"/>
<path d="M9360 15290 c-11 -7 -12 -12 -3 -21 13 -13 33 -4 33 17 0 16 -9 18
-30 4z"/>
<path d="M9949 15236 c-31 -15 -35 -47 -10 -70 32 -29 56 -17 59 30 3 47 -11
59 -49 40z"/>
<path d="M9365 15080 c-4 -7 -3 -16 3 -22 14 -14 45 -2 40 15 -6 16 -34 21
-43 7z"/>
<path d="M9025 15060 c-3 -5 1 -10 10 -10 9 0 13 5 10 10 -3 6 -8 10 -10 10
-2 0 -7 -4 -10 -10z"/>
<path d="M9825 15005 c-30 -30 -31 -54 -4 -89 28 -35 80 -36 103 -1 22 34 20
70 -6 95 -29 27 -64 25 -93 -5z"/>
<path d="M8855 14910 c-4 -7 -3 -16 3 -22 14 -14 45 -2 40 15 -6 16 -34 21
-43 7z"/>
<path d="M8628 14847 c-41 -24 -49 -51 -19 -67 45 -24 95 6 84 50 -9 35 -26
39 -65 17z"/>
<path d="M9809 14833 c-19 -36 -14 -67 15 -86 47 -31 104 6 97 63 -4 31 -28
49 -66 50 -23 0 -34 -7 -46 -27z"/>
<path d="M9360 14801 c-15 -30 -12 -56 9 -75 28 -26 75 -3 79 39 6 49 -65 78
-88 36z"/>
<path d="M8499 14683 c-19 -36 -14 -70 16 -89 44 -29 109 10 97 59 -14 61 -85
79 -113 30z"/>
<path d="M8870 14676 c0 -9 7 -16 16 -16 17 0 14 22 -4 28 -7 2 -12 -3 -12
-12z"/>
<path d="M8367 14662 c-33 -4 -60 -41 -55 -78 4 -37 46 -67 82 -58 85 21 61
146 -27 136z"/>
<path d="M9224 14655 c-14 -35 24 -68 51 -45 8 7 15 20 15 30 0 30 -56 42 -66
15z"/>
<path d="M9090 14521 c-27 -51 4 -103 55 -93 46 8 63 72 27 100 -25 19 -70 15
-82 -7z"/>
<path d="M9345 14492 c-24 -5 -54 -41 -55 -65 0 -10 12 -29 26 -42 29 -27 69
-25 91 4 35 45 -7 115 -62 103z"/>
<path d="M8017 14454 c-15 -16 -7 -53 14 -59 30 -10 58 19 43 43 -12 18 -45
28 -57 16z"/>
<path d="M9783 14453 c-31 -6 -55 -47 -47 -80 9 -36 31 -52 71 -53 61 0 87 81
40 121 -22 19 -26 19 -64 12z"/>
<path d="M8652 14418 c-27 -27 5 -61 34 -37 19 15 18 35 -2 43 -20 8 -18 8
-32 -6z"/>
<path d="M8251 14391 c-7 -13 -6 -23 3 -36 17 -24 50 -15 54 14 6 39 -39 56
-57 22z"/>
<path d="M8950 14380 c0 -5 5 -10 10 -10 6 0 10 5 10 10 0 6 -4 10 -10 10 -5
0 -10 -4 -10 -10z"/>
<path d="M7842 14368 c-27 -27 -2 -73 35 -66 25 5 42 56 23 68 -21 13 -44 12
-58 -2z"/>
<path d="M8441 14322 c-37 -6 -62 -41 -55 -77 8 -42 41 -66 79 -59 37 8 54 30
55 70 0 43 -35 73 -79 66z"/>
<path d="M9156 14313 c-4 -9 0 -23 8 -31 12 -13 18 -13 30 -2 20 16 20 36 0
44 -24 9 -31 7 -38 -11z"/>
<path d="M9444 14235 c-4 -10 -1 -21 7 -26 20 -12 34 -5 34 17 0 24 -33 31
-41 9z"/>
<path d="M8293 14184 c-9 -23 13 -40 32 -24 12 10 13 16 4 26 -15 18 -28 18
-36 -2z"/>
<path d="M8110 14163 c-65 -26 -46 -123 24 -123 59 0 80 73 32 112 -22 18 -31
20 -56 11z"/>
<path d="M9015 14150 c3 -5 8 -10 11 -10 2 0 4 5 4 10 0 6 -5 10 -11 10 -5 0
-7 -4 -4 -10z"/>
<path d="M8507 14112 c-26 -28 -22 -77 8 -96 32 -21 47 -20 79 5 22 17 26 27
21 48 -15 58 -74 81 -108 43z"/>
<path d="M9715 14109 c-10 -30 19 -53 47 -38 29 15 20 53 -14 57 -20 2 -28 -2
-33 -19z"/>
<path d="M7386 14076 c-27 -42 8 -100 53 -89 49 12 67 65 33 96 -27 25 -67 21
-86 -7z"/>
<path d="M9276 14079 c-24 -35 0 -79 45 -79 46 0 69 69 30 90 -31 16 -59 12
-75 -11z"/>
<path d="M7905 14070 c-4 -6 -3 -16 3 -22 6 -6 12 -6 17 2 4 6 3 16 -3 22 -6
6 -12 6 -17 -2z"/>
<path d="M7196 13979 c-35 -28 -35 -70 1 -99 49 -39 121 3 109 64 -11 55 -63
72 -110 35z"/>
<path d="M9488 13993 c-26 -6 -35 -53 -14 -69 29 -21 66 1 66 38 0 20 -28 36
-52 31z"/>
<path d="M7865 13942 c-58 -12 -76 -86 -27 -113 35 -20 67 -14 86 17 30 44 -9
106 -59 96z"/>
<path d="M8456 13931 c-27 -30 -4 -71 41 -71 26 0 46 31 36 57 -14 37 -50 44
-77 14z"/>
<path d="M9987 13943 c-11 -10 -8 -51 3 -58 6 -4 10 8 10 29 0 37 -2 41 -13
29z"/>
<path d="M9002 13898 c-17 -17 -15 -55 4 -62 34 -13 54 -6 60 21 10 40 -36 69
-64 41z"/>
<path d="M9174 13896 c-9 -24 4 -48 23 -44 12 2 18 12 18 28 0 29 -32 41 -41
16z"/>
<path d="M8090 13880 c0 -5 5 -10 10 -10 6 0 10 5 10 10 0 6 -4 10 -10 10 -5
0 -10 -4 -10 -10z"/>
<path d="M7598 13835 c-25 -34 -23 -83 5 -106 50 -42 127 -7 127 57 0 66 -95
101 -132 49z"/>
<path d="M9893 13812 c-26 -4 -53 -37 -53 -64 0 -51 85 -78 114 -36 36 51 -1
110 -61 100z"/>
<path d="M7025 13790 c-4 -7 -3 -16 3 -22 14 -14 45 -2 40 15 -6 16 -34 21
-43 7z"/>
<path d="M8760 13770 c0 -5 5 -10 10 -10 6 0 10 5 10 10 0 6 -4 10 -10 10 -5
0 -10 -4 -10 -10z"/>
<path d="M9594 13716 c-10 -26 1 -51 22 -54 28 -4 44 17 33 46 -9 25 -46 30
-55 8z"/>
<path d="M7194 13693 c-8 -32 6 -57 35 -61 28 -4 51 14 51 42 0 30 -18 46 -52
46 -22 0 -29 -6 -34 -27z"/>
<path d="M8055 13657 c-23 -17 -14 -47 15 -47 26 0 37 27 18 46 -12 12 -17 12
-33 1z"/>
<path d="M8940 13651 c0 -15 6 -21 21 -21 14 0 19 5 17 17 -5 26 -38 29 -38 4z"/>
<path d="M7790 13641 c-29 -55 7 -103 58 -79 16 8 28 23 30 36 7 50 -65 85
-88 43z"/>
<path d="M8531 13606 c-26 -27 -23 -66 6 -98 39 -43 113 -5 113 58 0 59 -77
85 -119 40z"/>
<path d="M9292 13610 c-19 -31 -15 -68 11 -82 64 -35 126 44 69 90 -24 19 -66
15 -80 -8z"/>
<path d="M8772 13598 c-27 -27 -6 -68 35 -68 16 0 24 7 29 25 11 43 -34 73
-64 43z"/>
<path d="M9719 13564 c-16 -20 -1 -48 29 -52 16 -3 23 3 28 23 10 41 -30 61
-57 29z"/>
<path d="M7145 13532 c-43 -10 -59 -66 -27 -95 27 -25 67 -21 86 8 28 43 -9
98 -59 87z"/>
<path d="M9120 13515 c-26 -32 13 -81 48 -59 34 22 22 74 -18 74 -10 0 -23 -7
-30 -15z"/>
<path d="M8377 13458 c-20 -11 -22 -41 -4 -56 19 -16 57 12 50 37 -6 24 -24
32 -46 19z"/>
<path d="M6945 13450 c3 -5 8 -10 11 -10 2 0 4 5 4 10 0 6 -5 10 -11 10 -5 0
-7 -4 -4 -10z"/>
<path d="M7695 13423 c-44 -12 -58 -60 -25 -93 38 -38 100 -14 100 38 0 19
-36 64 -49 61 -3 -1 -15 -4 -26 -6z"/>
<path d="M9777 13352 c-24 -26 -21 -59 7 -77 56 -37 111 40 58 83 -22 17 -46
15 -65 -6z"/>
<path d="M7204 13335 c-4 -9 -2 -21 4 -27 16 -16 47 -5 47 17 0 26 -42 34 -51
10z"/>
<path d="M9280 13343 c-42 -17 -54 -80 -23 -115 22 -25 75 -23 99 3 48 53 -9
137 -76 112z"/>
<path d="M8462 13288 c5 -15 28 -18 29 -3 0 6 -7 12 -17 13 -10 3 -15 -1 -12
-10z"/>
<path d="M7625 13252 c-53 -11 -72 -65 -35 -102 47 -47 126 -3 104 57 -11 31
-42 51 -69 45z"/>
<path d="M9050 13230 c-27 -27 -26 -75 2 -94 32 -22 55 -20 84 9 19 19 23 30
18 52 -13 53 -67 70 -104 33z"/>
<path d="M9450 13234 c-11 -12 -10 -18 3 -31 8 -9 23 -13 31 -10 21 8 21 43 0
51 -21 8 -20 8 -34 -10z"/>
<path d="M8570 13205 c-28 -53 44 -101 84 -56 19 20 14 59 -8 73 -24 17 -63 8
-76 -17z"/>
<path d="M8087 13163 c-16 -15 -6 -52 15 -59 28 -9 52 20 37 47 -10 19 -39 25
-52 12z"/>
<path d="M7900 13150 c0 -5 5 -10 10 -10 6 0 10 5 10 10 0 6 -4 10 -10 10 -5
0 -10 -4 -10 -10z"/>
<path d="M9790 13140 c0 -5 5 -10 10 -10 6 0 10 5 10 10 0 6 -4 10 -10 10 -5
0 -10 -4 -10 -10z"/>
<path d="M9945 13114 c-21 -32 -12 -77 20 -98 13 -9 27 -16 30 -16 3 0 5 32 5
70 0 62 -2 70 -19 70 -10 0 -26 -12 -36 -26z"/>
<path d="M9239 13047 c-34 -17 -37 -59 -6 -76 35 -19 67 0 67 39 0 37 -27 53
-61 37z"/>
<path d="M8520 13030 c0 -5 5 -10 10 -10 6 0 10 5 10 10 0 6 -4 10 -10 10 -5
0 -10 -4 -10 -10z"/>
<path d="M7286 13001 c-16 -17 -16 -23 -4 -48 25 -53 98 -38 98 20 0 43 -64
62 -94 28z"/>
<path d="M8790 13007 c-32 -16 -35 -32 -10 -57 16 -16 24 -18 40 -10 23 12 27
52 7 68 -9 8 -20 8 -37 -1z"/>
<path d="M8160 12972 c-30 -4 -59 -39 -60 -70 0 -13 11 -33 25 -46 30 -28 78
-24 100 7 38 54 -1 119 -65 109z"/>
<path d="M7643 12958 c2 -7 10 -13 17 -13 7 0 15 6 18 13 2 7 -5 12 -18 12
-13 0 -20 -5 -17 -12z"/>
<path d="M9736 12878 c-13 -19 -14 -25 -2 -43 18 -27 56 -32 73 -9 17 23 16
39 -3 58 -22 22 -50 20 -68 -6z"/>
<path d="M9985 12891 c-3 -5 -1 -12 5 -16 5 -3 10 1 10 9 0 18 -6 21 -15 7z"/>
<path d="M8963 12874 c-8 -21 13 -42 28 -27 13 13 5 43 -11 43 -6 0 -13 -7
-17 -16z"/>
<path d="M8400 12855 c-19 -23 -4 -64 27 -71 46 -12 78 52 39 78 -18 13 -53 9
-66 -7z"/>
<path d="M9328 12842 c-23 -4 -34 -48 -18 -67 23 -28 69 -4 70 35 0 19 -29 37
-52 32z"/>
<path d="M7380 12805 c-18 -21 -5 -47 22 -43 26 3 37 36 16 49 -18 12 -24 11
-38 -6z"/>
<path d="M7563 12804 c-3 -8 -1 -20 6 -27 14 -14 47 15 37 32 -10 16 -36 13
-43 -5z"/>
<path d="M9534 12796 c-8 -22 3 -33 18 -18 9 9 9 15 0 24 -9 9 -13 7 -18 -6z"/>
<path d="M8792 12767 c-12 -13 -22 -33 -22 -46 0 -28 46 -71 76 -71 58 0 87
92 39 124 -34 22 -68 20 -93 -7z"/>
<path d="M8985 12743 c-50 -13 -62 -91 -18 -120 77 -51 153 53 80 109 -23 18
-28 19 -62 11z"/>
<path d="M9896 12727 c-11 -8 -17 -23 -14 -38 2 -19 10 -25 35 -27 28 -3 33 0
39 24 5 20 2 31 -11 41 -23 16 -27 16 -49 0z"/>
<path d="M7746 12665 c-21 -31 -20 -37 5 -69 16 -21 26 -25 47 -20 51 12 69
65 34 97 -27 25 -67 21 -86 -8z"/>
<path d="M8433 12649 c-45 -17 -18 -87 27 -71 33 11 41 56 13 70 -10 6 -28 6
-40 1z"/>
<path d="M7968 12615 c-14 -30 3 -55 38 -55 17 0 25 7 30 25 13 51 -46 77 -68
30z"/>
<path d="M8657 12573 c-12 -11 -8 -23 8 -23 8 0 15 7 15 15 0 16 -12 20 -23 8z"/>
<path d="M9810 12560 c0 -5 5 -10 10 -10 6 0 10 5 10 10 0 6 -4 10 -10 10 -5
0 -10 -4 -10 -10z"/>
<path d="M8124 12536 c-9 -24 4 -48 23 -44 12 2 18 12 18 28 0 29 -32 41 -41
16z"/>
<path d="M8874 12523 c-29 -31 -26 -67 8 -95 29 -25 63 -22 91 7 42 46 11 115
-51 115 -12 0 -34 -12 -48 -27z"/>
<path d="M9942 12508 c-26 -26 2 -78 41 -78 13 0 17 10 17 45 0 40 -2 45 -23
45 -13 0 -28 -5 -35 -12z"/>
<path d="M7915 12410 c4 -6 11 -8 16 -5 14 9 11 15 -7 15 -8 0 -12 -5 -9 -10z"/>
<path d="M9713 12390 c-45 -18 -54 -87 -15 -117 28 -21 79 -16 96 9 23 33 20
76 -6 99 -25 20 -42 22 -75 9z"/>
<path d="M9160 12380 c0 -5 5 -10 11 -10 5 0 7 5 4 10 -3 6 -8 10 -11 10 -2 0
-4 -4 -4 -10z"/>
<path d="M9300 12350 c-39 -39 -14 -100 42 -100 26 0 58 35 58 64 0 20 -39 56
-62 56 -10 0 -27 -9 -38 -20z"/>
<path d="M7740 12331 c0 -21 26 -36 36 -20 9 15 -3 39 -21 39 -8 0 -15 -9 -15
-19z"/>
<path d="M8030 12331 c-27 -51 -3 -91 54 -91 48 0 67 66 28 98 -24 19 -70 15
-82 -7z"/>
<path d="M8688 12298 c-25 -46 1 -88 54 -88 30 0 48 23 48 64 0 47 -79 65
-102 24z"/>
<path d="M8485 12273 c-10 -23 -6 -56 9 -65 24 -16 56 -8 68 17 9 21 8 28 -7
45 -22 25 -60 26 -70 3z"/>
<path d="M8307 12254 c-4 -4 -7 -16 -7 -26 0 -13 7 -18 26 -18 21 0 25 4 22
22 -3 23 -27 35 -41 22z"/>
<path d="M7852 12205 c-33 -42 -3 -105 51 -105 28 0 66 47 60 73 -15 59 -76
77 -111 32z"/>
<path d="M8150 12171 c-27 -51 -3 -91 54 -91 48 0 67 66 28 98 -24 19 -70 15
-82 -7z"/>
<path d="M9002 12158 c-7 -7 -12 -24 -12 -38 0 -34 17 -50 52 -50 29 0 48 23
48 59 0 34 -62 55 -88 29z"/>
<path d="M9930 12080 c0 -5 5 -10 10 -10 6 0 10 5 10 10 0 6 -4 10 -10 10 -5
0 -10 -4 -10 -10z"/>
<path d="M8345 12052 c-36 -7 -57 -34 -50 -62 10 -37 24 -50 58 -50 54 0 76
60 35 97 -13 11 -32 18 -43 15z"/>
<path d="M7891 11956 c-14 -17 -7 -36 14 -36 22 0 29 20 13 36 -13 13 -16 13
-27 0z"/>
<path d="M9281 11956 c-17 -20 -2 -48 23 -44 24 3 34 37 14 49 -18 12 -24 11
-37 -5z"/>
<path d="M9474 11955 c-9 -23 3 -45 25 -45 23 0 32 18 19 43 -11 21 -37 22
-44 2z"/>
<path d="M9664 11923 c-15 -27 -6 -52 23 -59 33 -9 55 18 44 49 -10 28 -52 34
-67 10z"/>
<path d="M8652 11897 c-28 -29 -28 -57 -1 -91 40 -51 119 -18 119 51 0 58 -77
84 -118 40z"/>
<path d="M8450 11853 c-42 -17 -44 -77 -4 -95 52 -24 98 47 56 85 -19 18 -27
19 -52 10z"/>
<path d="M8014 11826 c-8 -22 3 -33 18 -18 9 9 9 15 0 24 -9 9 -13 7 -18 -6z"/>
<path d="M8990 11815 c-19 -23 -8 -50 22 -53 34 -4 50 34 22 55 -23 17 -29 16
-44 -2z"/>
<path d="M9367 11813 c-11 -10 -8 -38 4 -50 14 -14 46 -5 53 14 11 29 -36 58
-57 36z"/>
<path d="M8285 11739 c-5 -14 -2 -25 6 -30 19 -12 25 -11 39 6 10 12 10 18 0
30 -18 21 -38 19 -45 -6z"/>
<path d="M8827 11722 c-22 -24 -11 -61 21 -69 48 -12 81 37 47 71 -21 21 -48
20 -68 -2z"/>
<path d="M9320 11657 c-32 -16 -40 -65 -14 -84 27 -19 62 -16 74 8 26 48 -14
99 -60 76z"/>
<path d="M12 11598 c-20 -20 -14 -44 14 -57 20 -9 30 -9 40 0 27 22 10 69 -26
69 -9 0 -21 -5 -28 -12z"/>
<path d="M8717 11594 c-12 -12 -8 -52 6 -57 27 -9 48 5 45 32 -3 26 -35 41
-51 25z"/>
<path d="M9495 11543 c-11 -3 -28 -15 -37 -26 -58 -73 44 -155 105 -85 27 32
22 73 -12 97 -16 12 -31 20 -33 20 -1 -1 -12 -3 -23 -6z"/>
<path d="M9215 11502 c-36 -7 -57 -34 -50 -62 10 -37 24 -50 58 -50 54 0 76
60 35 97 -13 11 -32 18 -43 15z"/>
<path d="M9686 11493 c-8 -21 17 -48 38 -40 21 8 21 43 0 51 -24 9 -31 7 -38
-11z"/>
<path d="M90 11395 c0 -9 5 -15 11 -13 6 2 11 8 11 13 0 5 -5 11 -11 13 -6 2
-11 -4 -11 -13z"/>
<path d="M8337 11403 c-13 -13 -7 -61 9 -67 42 -16 74 16 54 54 -10 19 -49 27
-63 13z"/>
<path d="M9890 11310 c0 -5 5 -10 10 -10 6 0 10 5 10 10 0 6 -4 10 -10 10 -5
0 -10 -4 -10 -10z"/>
<path d="M285 11287 c-23 -17 -14 -47 15 -47 26 0 37 27 18 46 -12 12 -17 12
-33 1z"/>
<path d="M9020 11277 c0 -27 19 -40 39 -27 20 12 8 45 -17 48 -18 3 -22 -1
-22 -21z"/>
<path d="M9590 11255 c-17 -20 -5 -45 20 -45 11 0 23 7 26 15 6 15 -11 45 -26
45 -4 0 -13 -7 -20 -15z"/>
<path d="M12 11213 c2 -10 10 -18 18 -18 22 0 18 29 -3 33 -14 3 -18 -1 -15
-15z"/>
<path d="M9127 11174 c-14 -14 -7 -54 12 -64 28 -15 71 21 55 47 -11 19 -54
29 -67 17z"/>
<path d="M197 11152 c-22 -24 -21 -35 3 -57 17 -15 24 -16 45 -7 31 14 34 56
6 72 -27 14 -35 13 -54 -8z"/>
<path d="M352 11148 c7 -19 38 -22 38 -4 0 10 -9 16 -21 16 -12 0 -19 -5 -17
-12z"/>
<path d="M1030 11145 c0 -8 5 -15 10 -15 6 0 10 7 10 15 0 8 -4 15 -10 15 -5
0 -10 -7 -10 -15z"/>
<path d="M8365 11146 c-19 -14 -19 -15 0 -51 25 -45 30 -49 54 -35 28 15 35
47 17 75 -18 28 -43 32 -71 11z"/>
<path d="M9842 11141 c-19 -12 -11 -45 12 -49 24 -5 37 17 25 40 -11 20 -18
22 -37 9z"/>
<path d="M781 11086 c-13 -16 -4 -46 14 -46 19 0 36 25 29 44 -8 20 -28 21
-43 2z"/>
<path d="M1142 11078 c-28 -28 -3 -72 39 -66 30 4 47 33 33 56 -14 21 -55 27
-72 10z"/>
<path d="M565 11030 c-3 -5 -1 -10 4 -10 6 0 11 5 11 10 0 6 -2 10 -4 10 -3 0
-8 -4 -11 -10z"/>
<path d="M337 11002 c-10 -10 -17 -28 -17 -39 0 -22 32 -56 58 -59 23 -4 62
35 62 61 0 48 -70 73 -103 37z"/>
<path d="M9617 10970 c-29 -42 9 -104 56 -93 46 11 64 73 30 99 -27 20 -70 17
-86 -6z"/>
<path d="M1357 10954 c-8 -8 1 -24 14 -24 5 0 9 7 9 15 0 15 -12 20 -23 9z"/>
<path d="M8570 10950 c0 -5 5 -10 10 -10 6 0 10 5 10 10 0 6 -4 10 -10 10 -5
0 -10 -4 -10 -10z"/>
<path d="M914 10896 c-12 -31 0 -51 31 -51 27 0 30 3 30 30 0 25 -4 30 -28 33
-17 2 -29 -2 -33 -12z"/>
<path d="M744 10890 c-7 -7 -9 -21 -7 -31 4 -15 13 -19 32 -17 20 2 26 8 26
28 0 28 -31 40 -51 20z"/>
<path d="M220 10844 c0 -8 5 -12 10 -9 6 3 10 10 10 16 0 5 -4 9 -10 9 -5 0
-10 -7 -10 -16z"/>
<path d="M326 10844 c-34 -34 -9 -78 40 -72 38 4 52 30 34 62 -15 30 -50 34
-74 10z"/>
<path d="M1198 10818 c-9 -23 3 -38 29 -38 20 0 24 4 21 23 -3 25 -42 37 -50
15z"/>
<path d="M574 10806 c-11 -29 0 -51 26 -51 21 0 25 5 25 30 0 24 -5 31 -23 33
-13 2 -24 -3 -28 -12z"/>
<path d="M8680 10800 c0 -5 5 -10 10 -10 6 0 10 5 10 10 0 6 -4 10 -10 10 -5
0 -10 -4 -10 -10z"/>
<path d="M8942 10774 c-14 -25 -3 -53 25 -60 30 -8 44 9 41 46 -4 31 -51 41
-66 14z"/>
<path d="M9702 10778 c-28 -28 -7 -78 33 -78 27 0 45 18 45 45 0 27 -18 45
-45 45 -12 0 -26 -5 -33 -12z"/>
<path d="M820 10745 c0 -9 5 -15 11 -13 6 2 11 8 11 13 0 5 -5 11 -11 13 -6 2
-11 -4 -11 -13z"/>
<path d="M1045 10740 c-3 -5 -1 -10 4 -10 6 0 11 5 11 10 0 6 -2 10 -4 10 -3
0 -8 -4 -11 -10z"/>
<path d="M54 10699 c-8 -14 11 -33 25 -25 6 4 11 14 11 22 0 16 -26 19 -36 3z"/>
<path d="M1602 10688 c-23 -23 -14 -55 17 -66 31 -11 41 -5 54 30 12 35 -44
63 -71 36z"/>
<path d="M862 10668 c-15 -15 -15 -61 0 -76 7 -7 24 -12 38 -12 33 0 50 17 50
50 0 33 -17 50 -50 50 -14 0 -31 -5 -38 -12z"/>
<path d="M1860 10665 c-20 -24 -21 -47 -3 -67 37 -41 105 -2 87 50 -11 33 -62
43 -84 17z"/>
<path d="M9815 10672 c-57 -12 -77 -91 -30 -124 50 -37 117 5 108 68 -5 34
-45 63 -78 56z"/>
<path d="M1071 10644 c-41 -29 -16 -104 36 -104 27 0 53 31 53 62 0 45 -51 68
-89 42z"/>
<path d="M240 10640 c0 -5 7 -10 15 -10 8 0 15 5 15 10 0 6 -7 10 -15 10 -8 0
-15 -4 -15 -10z"/>
<path d="M392 10638 c-15 -15 -15 -51 0 -66 28 -28 78 -7 78 33 0 27 -18 45
-45 45 -12 0 -26 -5 -33 -12z"/>
<path d="M2047 10632 c-30 -33 -15 -72 28 -72 43 0 59 44 27 73 -24 22 -35 21
-55 -1z"/>
<path d="M647 10634 c-8 -8 1 -24 14 -24 5 0 9 7 9 15 0 15 -12 20 -23 9z"/>
<path d="M2264 10596 c-9 -24 4 -48 23 -44 12 2 18 12 18 28 0 29 -32 41 -41
16z"/>
<path d="M8847 10592 c-23 -25 -21 -55 4 -78 19 -17 23 -17 47 -3 34 18 42 64
15 85 -25 19 -47 17 -66 -4z"/>
<path d="M691 10516 c-6 -7 -9 -20 -5 -29 15 -39 72 -19 60 21 -8 25 -38 29
-55 8z"/>
<path d="M1367 10513 c-4 -3 -7 -12 -7 -20 0 -17 26 -17 33 1 8 21 -11 35 -26
19z"/>
<path d="M9122 10508 c-27 -27 -6 -68 34 -68 22 0 34 17 34 50 0 28 -46 40
-68 18z"/>
<path d="M373 10464 c-4 -11 1 -22 12 -31 16 -11 21 -11 33 1 8 8 12 22 9 30
-8 21 -46 21 -54 0z"/>
<path d="M9705 10460 c-4 -6 -3 -16 3 -22 6 -6 12 -6 17 2 4 6 3 16 -3 22 -6
6 -12 6 -17 -2z"/>
<path d="M1477 10453 c-11 -10 -8 -38 4 -50 14 -14 46 -5 53 14 11 29 -36 58
-57 36z"/>
<path d="M2542 10451 c-8 -4 -12 -19 -10 -32 2 -18 9 -24 28 -24 19 0 26 6 28
24 3 20 -11 41 -28 41 -3 0 -11 -4 -18 -9z"/>
<path d="M2360 10430 c-39 -34 -14 -100 39 -100 28 0 46 18 53 52 9 48 -54 81
-92 48z"/>
<path d="M9280 10435 c-19 -23 -8 -50 22 -53 34 -4 50 34 22 55 -23 17 -29 16
-44 -2z"/>
<path d="M2184 10426 c-9 -24 4 -48 23 -44 12 2 18 12 18 28 0 29 -32 41 -41
16z"/>
<path d="M40 10416 c-16 -20 -9 -56 13 -70 39 -24 79 44 41 71 -23 17 -39 16
-54 -1z"/>
<path d="M9910 10393 c-41 -15 -54 -78 -22 -106 42 -38 118 1 105 53 -12 49
-41 68 -83 53z"/>
<path d="M277 10352 c-35 -38 -9 -102 40 -102 47 0 71 71 35 103 -24 22 -55
21 -75 -1z"/>
<path d="M8910 10340 c-27 -27 -26 -75 2 -94 31 -22 64 -20 88 6 25 28 25 48
-1 82 -25 31 -61 34 -89 6z"/>
<path d="M990 10325 c0 -8 5 -15 10 -15 6 0 10 7 10 15 0 8 -4 15 -10 15 -5 0
-10 -7 -10 -15z"/>
<path d="M1761 10321 c-17 -11 -7 -41 13 -41 22 0 30 20 15 36 -9 8 -19 10
-28 5z"/>
<path d="M2702 10314 c-28 -20 -28 -55 1 -82 29 -27 47 -28 75 -2 58 54 -11
130 -76 84z"/>
<path d="M2940 10302 c0 -15 5 -33 12 -40 24 -24 88 -9 88 20 0 7 -82 48 -96
48 -2 0 -4 -13 -4 -28z"/>
<path d="M600 10306 c0 -10 9 -16 21 -16 24 0 21 23 -4 28 -10 2 -17 -3 -17
-12z"/>
<path d="M9426 10295 c-9 -24 1 -35 30 -35 21 0 25 4 22 23 -4 27 -42 36 -52
12z"/>
<path d="M1402 10268 c-7 -7 -12 -24 -12 -38 0 -33 17 -50 50 -50 33 0 50 17
50 50 0 33 -17 50 -50 50 -14 0 -31 -5 -38 -12z"/>
<path d="M9652 10272 c-35 -5 -49 -45 -28 -77 22 -33 60 -33 82 0 27 41 -3 85
-54 77z"/>
<path d="M135 10260 c3 -5 8 -10 11 -10 2 0 4 5 4 10 0 6 -5 10 -11 10 -5 0
-7 -4 -4 -10z"/>
<path d="M9101 10251 c-15 -27 -14 -47 5 -65 21 -22 57 -20 78 3 16 17 16 23
4 48 -17 36 -71 45 -87 14z"/>
<path d="M9810 10181 c0 -19 23 -35 34 -24 14 15 5 43 -14 43 -13 0 -20 -7
-20 -19z"/>
<path d="M390 10180 c0 -5 7 -10 15 -10 8 0 15 5 15 10 0 6 -7 10 -15 10 -8 0
-15 -4 -15 -10z"/>
<path d="M2563 10173 c-7 -3 -13 -16 -13 -30 0 -20 4 -24 23 -21 13 2 23 11
25 24 3 22 -13 34 -35 27z"/>
<path d="M8945 10160 c-8 -13 56 -120 71 -120 7 0 19 11 28 25 19 28 12 73
-13 92 -19 15 -77 17 -86 3z"/>
<path d="M850 10125 c-26 -32 13 -81 48 -59 34 22 22 74 -18 74 -10 0 -23 -7
-30 -15z"/>
<path d="M2040 10115 c-13 -16 -6 -51 13 -58 21 -8 57 12 57 31 0 38 -46 56
-70 27z"/>
<path d="M1750 10105 c-10 -11 -10 -19 -2 -27 15 -15 44 -2 40 19 -4 23 -22
27 -38 8z"/>
<path d="M3013 10104 c-3 -8 -1 -20 5 -26 16 -16 42 -2 42 22 0 24 -38 28 -47
4z"/>
<path d="M3167 10082 c-22 -24 -21 -45 1 -65 26 -24 49 -21 68 8 34 52 -28
102 -69 57z"/>
<path d="M232 10078 c-32 -32 18 -87 53 -58 28 23 12 70 -25 70 -9 0 -21 -5
-28 -12z"/>
<path d="M2797 10072 c-20 -22 -22 -56 -4 -69 39 -31 97 -12 97 31 0 48 -61
73 -93 38z"/>
<path d="M554 10065 c-9 -23 4 -47 23 -43 22 4 30 38 11 49 -19 13 -28 11 -34
-6z"/>
<path d="M9710 10061 c-35 -67 29 -124 88 -78 20 15 15 75 -7 87 -31 16 -69
12 -81 -9z"/>
<path d="M2226 10041 c-32 -35 -7 -91 41 -91 41 0 62 59 31 86 -27 25 -53 27
-72 5z"/>
<path d="M410 10036 c-27 -33 18 -72 48 -42 13 13 14 20 6 34 -15 23 -38 26
-54 8z"/>
<path d="M9546 10034 c-25 -24 -20 -71 8 -90 22 -13 29 -14 53 -2 35 17 45 74
17 95 -24 18 -59 16 -78 -3z"/>
<path d="M1832 10001 c-20 -12 -10 -46 13 -46 14 0 20 7 20 24 0 27 -13 35
-33 22z"/>
<path d="M2993 9995 c-29 -32 -9 -85 32 -85 29 0 45 19 45 52 0 41 -51 63 -77
33z"/>
<path d="M9404 10002 c-57 -9 -72 -88 -24 -123 50 -36 116 7 104 69 -7 32 -47
60 -80 54z"/>
<path d="M1390 9985 c-14 -17 -5 -51 16 -59 22 -8 54 11 54 32 0 38 -46 56
-70 27z"/>
<path d="M2465 9970 c-15 -16 -17 -26 -9 -48 13 -38 57 -42 80 -8 15 24 15 28
0 51 -20 30 -47 32 -71 5z"/>
<path d="M772 9961 c2 -7 7 -12 11 -12 12 1 9 15 -3 20 -7 2 -11 -2 -8 -8z"/>
<path d="M2656 9963 c-3 -4 -6 -15 -6 -25 0 -24 33 -21 38 3 3 17 -21 33 -32
22z"/>
<path d="M9940 9939 c0 -25 33 -22 38 4 2 12 -3 17 -17 17 -15 0 -21 -6 -21
-21z"/>
<path d="M1147 9938 c-20 -10 -23 -58 -5 -76 28 -28 78 -7 78 34 0 37 -41 61
-73 42z"/>
<path d="M552 9918 c-28 -28 1 -64 43 -54 40 10 27 66 -15 66 -9 0 -21 -5 -28
-12z"/>
<path d="M125 9900 c-3 -5 1 -10 9 -10 9 0 16 5 16 10 0 6 -4 10 -9 10 -6 0
-13 -4 -16 -10z"/>
<path d="M1576 9854 c-20 -19 -21 -61 -2 -80 18 -17 68 -18 84 -2 7 7 12 26
12 43 0 17 -5 36 -12 43 -17 17 -64 15 -82 -4z"/>
<path d="M2137 9852 c-35 -38 -8 -92 46 -92 27 0 57 32 57 61 0 43 -73 65
-103 31z"/>
<path d="M9151 9852 c-12 -23 7 -65 32 -70 22 -4 57 25 57 48 0 39 -70 57 -89
22z"/>
<path d="M9631 9852 c-12 -23 7 -65 32 -70 22 -4 57 25 57 48 0 39 -70 57 -89
22z"/>
<path d="M864 9846 c-10 -26 4 -48 28 -44 17 2 23 10 23 28 0 18 -6 26 -23 28
-13 2 -25 -3 -28 -12z"/>
<path d="M0 9810 c0 -18 4 -29 10 -25 13 8 13 42 0 50 -6 4 -10 -7 -10 -25z"/>
<path d="M3037 9802 c-22 -24 -21 -55 1 -75 24 -22 45 -21 65 1 22 24 21 55
-1 75 -24 22 -45 21 -65 -1z"/>
<path d="M1340 9775 c-29 -35 -7 -95 35 -95 27 0 55 29 55 57 0 43 -64 70 -90
38z"/>
<path d="M456 9725 c-28 -28 -29 -55 -5 -81 27 -29 60 -31 82 -6 49 54 -26
138 -77 87z"/>
<path d="M2488 9712 c-22 -4 -24 -40 -2 -49 8 -3 20 -1 26 5 16 16 -3 49 -24
44z"/>
<path d="M9313 9704 c-5 -14 11 -33 28 -34 10 0 20 31 13 41 -9 15 -34 10 -41
-7z"/>
<path d="M856 9694 c-19 -19 -20 -43 -2 -67 21 -27 67 -19 85 15 14 24 14 28
-3 47 -23 25 -58 27 -80 5z"/>
<path d="M2853 9666 c-22 -25 -23 -47 -4 -70 29 -34 91 -6 91 41 0 42 -59 62
-87 29z"/>
<path d="M9676 9624 c-15 -40 -1 -64 39 -64 23 0 38 37 25 60 -13 24 -55 27
-64 4z"/>
<path d="M1913 9604 c-6 -17 6 -45 23 -51 5 -2 19 3 29 11 16 12 18 18 9 33
-15 24 -52 29 -61 7z"/>
<path d="M2600 9596 c0 -8 4 -17 9 -20 11 -7 33 18 24 27 -12 12 -33 7 -33 -7z"/>
<path d="M1250 9545 c-14 -17 -6 -61 13 -68 20 -7 62 16 61 33 -3 47 -47 68
-74 35z"/>
<path d="M2324 9539 c-10 -17 13 -36 27 -22 12 12 4 33 -11 33 -5 0 -12 -5
-16 -11z"/>
<path d="M192 9508 c-15 -15 -15 -51 0 -66 35 -35 96 9 76 54 -12 26 -55 33
-76 12z"/>
<path d="M1722 9448 c-22 -22 -14 -67 13 -80 21 -9 28 -8 45 7 36 32 20 85
-25 85 -12 0 -26 -5 -33 -12z"/>
<path d="M1876 9444 c-32 -31 -10 -94 33 -94 23 0 51 31 51 57 0 23 -29 53
-53 53 -8 0 -23 -7 -31 -16z"/>
<path d="M2774 9449 c-10 -17 13 -36 27 -22 12 12 4 33 -11 33 -5 0 -12 -5
-16 -11z"/>
<path d="M2507 9432 c-35 -38 -9 -102 40 -102 47 0 71 71 35 103 -24 22 -55
21 -75 -1z"/>
<path d="M643 9393 c-7 -2 -13 -13 -13 -23 0 -26 21 -39 48 -29 24 9 29 28 10
47 -13 13 -24 14 -45 5z"/>
<path d="M1260 9366 c-28 -35 11 -93 48 -70 35 22 22 84 -18 84 -10 0 -23 -7
-30 -14z"/>
<path d="M9973 9340 c-42 -17 -49 -64 -15 -102 30 -35 42 -22 42 47 0 36 -1
65 -2 64 -2 0 -13 -4 -25 -9z"/>
<path d="M490 9300 c0 -13 7 -20 20 -20 13 0 20 7 20 20 0 13 -7 20 -20 20
-13 0 -20 -7 -20 -20z"/>
<path d="M1795 9300 c-7 -23 10 -50 32 -50 18 0 34 41 21 58 -16 19 -46 14
-53 -8z"/>
<path d="M2547 9272 c-22 -24 -22 -51 1 -68 24 -19 46 -17 65 4 22 24 21 45
-1 65 -24 22 -45 21 -65 -1z"/>
<path d="M2290 9256 c-6 -8 -10 -25 -8 -38 2 -19 9 -23 38 -23 31 0 35 3 38
29 5 42 -41 64 -68 32z"/>
<path d="M80 9236 c-28 -34 11 -93 47 -70 32 20 39 41 19 63 -22 24 -49 27
-66 7z"/>
<path d="M1490 9235 c-16 -19 -3 -55 19 -55 29 0 44 25 31 49 -13 25 -33 27
-50 6z"/>
<path d="M2062 9233 c-22 -41 16 -75 62 -57 19 7 21 45 4 62 -18 18 -56 15
-66 -5z"/>
<path d="M2800 9240 c0 -5 5 -10 10 -10 6 0 10 5 10 10 0 6 -4 10 -10 10 -5 0
-10 -4 -10 -10z"/>
<path d="M362 9208 c2 -12 10 -23 18 -23 22 0 19 39 -3 43 -15 3 -18 -1 -15
-20z"/>
<path d="M1197 9202 c-35 -38 -9 -102 40 -102 47 0 71 71 35 103 -24 22 -55
21 -75 -1z"/>
<path d="M490 9165 c-17 -20 -5 -45 20 -45 11 0 23 7 26 15 6 15 -11 45 -26
45 -4 0 -13 -7 -20 -15z"/>
<path d="M9713 9173 c-18 -7 -16 -42 2 -49 24 -10 47 14 34 37 -10 19 -15 21
-36 12z"/>
<path d="M855 9100 c-4 -7 -3 -16 3 -22 14 -14 45 -2 40 15 -6 16 -34 21 -43
7z"/>
<path d="M1630 9075 c0 -8 7 -15 15 -15 8 0 15 7 15 15 0 8 -7 15 -15 15 -8 0
-15 -7 -15 -15z"/>
<path d="M2344 9049 c-20 -22 -13 -43 19 -63 36 -23 75 36 47 70 -17 20 -44
17 -66 -7z"/>
<path d="M530 9035 c-28 -34 11 -92 48 -69 20 13 28 52 13 67 -17 17 -48 18
-61 2z"/>
<path d="M696 9028 c-22 -31 -20 -54 6 -78 28 -26 49 -25 76 3 28 30 28 62 0
81 -32 22 -64 20 -82 -6z"/>
<path d="M2124 9016 c-11 -29 0 -51 26 -51 21 0 25 5 25 30 0 24 -5 31 -23 33
-13 2 -24 -3 -28 -12z"/>
<path d="M1911 8992 c-13 -24 11 -61 36 -58 26 4 40 32 27 54 -16 25 -51 27
-63 4z"/>
<path d="M230 8985 c-11 -13 -11 -18 2 -31 20 -20 50 -7 46 20 -4 26 -30 32
-48 11z"/>
<path d="M1432 8988 c-7 -7 -12 -24 -12 -38 0 -33 17 -50 50 -50 33 0 50 17
50 50 0 33 -17 50 -50 50 -14 0 -31 -5 -38 -12z"/>
<path d="M1124 8925 c-4 -9 -2 -21 4 -27 15 -15 44 -1 40 19 -4 23 -36 29 -44
8z"/>
<path d="M1562 8918 c-34 -34 6 -90 48 -68 35 19 20 80 -20 80 -9 0 -21 -5
-28 -12z"/>
<path d="M0 8866 c0 -63 11 -74 45 -52 44 29 23 106 -28 106 -14 0 -17 -10
-17 -54z"/>
<path d="M903 8884 c-7 -18 11 -39 26 -30 17 11 13 46 -4 46 -9 0 -18 -7 -22
-16z"/>
<path d="M522 8868 c-7 -7 -12 -21 -12 -33 0 -58 88 -63 97 -6 6 42 -54 70
-85 39z"/>
<path d="M170 8855 c-15 -18 -10 -45 12 -59 26 -16 53 14 44 48 -7 29 -36 35
-56 11z"/>
<path d="M2172 8749 c2 -6 8 -10 13 -10 5 0 11 4 13 10 2 6 -4 11 -13 11 -9 0
-15 -5 -13 -11z"/>
<path d="M1063 8724 c-13 -21 -14 -29 -3 -49 23 -43 90 -26 90 23 0 22 -15 37
-48 45 -17 4 -27 -1 -39 -19z"/>
<path d="M2364 8716 c-9 -24 4 -48 23 -44 12 2 18 12 18 28 0 29 -32 41 -41
16z"/>
<path d="M152 8707 c-9 -10 -8 -18 2 -32 18 -25 48 -13 44 17 -4 27 -30 35
-46 15z"/>
<path d="M1734 8709 c-7 -12 15 -31 28 -23 4 3 8 12 8 20 0 17 -26 19 -36 3z"/>
<path d="M507 8654 c-15 -15 -7 -45 11 -42 9 2 17 12 17 22 0 20 -16 31 -28
20z"/>
<path d="M1212 8628 c-18 -18 -14 -46 7 -58 25 -13 48 -4 56 21 12 38 -35 65
-63 37z"/>
<path d="M631 8612 c-8 -15 -7 -23 4 -32 23 -19 50 -8 50 20 0 32 -39 41 -54
12z"/>
<path d="M1885 8606 c-20 -15 -17 -45 8 -60 34 -22 75 29 45 56 -19 18 -33 19
-53 4z"/>
<path d="M1327 8592 c-51 -56 25 -132 79 -81 26 24 26 50 1 79 -21 25 -59 26
-80 2z"/>
<path d="M2043 8575 c-7 -20 2 -29 21 -22 9 4 13 13 10 22 -8 19 -23 19 -31 0z"/>
<path d="M1560 8560 c0 -5 5 -10 10 -10 6 0 10 5 10 10 0 6 -4 10 -10 10 -5 0
-10 -4 -10 -10z"/>
<path d="M2348 8559 c-21 -12 -24 -69 -6 -87 17 -17 64 -15 82 4 48 47 -17
118 -76 83z"/>
<path d="M2224 8515 c-7 -18 3 -35 21 -35 18 0 26 15 19 34 -8 20 -33 21 -40
1z"/>
<path d="M1532 8458 c-29 -29 -8 -86 35 -93 42 -7 71 59 39 91 -18 17 -58 18
-74 2z"/>
<path d="M0 8376 c0 -39 18 -48 41 -20 15 18 2 47 -25 52 -12 3 -16 -4 -16
-32z"/>
<path d="M1357 8404 c-8 -8 1 -24 14 -24 5 0 9 7 9 15 0 15 -12 20 -23 9z"/>
<path d="M2364 8345 c-9 -23 3 -45 24 -45 25 0 44 23 36 44 -8 20 -53 21 -60
1z"/>
<path d="M2006 8277 c-21 -16 -18 -45 7 -61 37 -23 77 35 41 61 -10 7 -21 13
-24 13 -3 0 -14 -6 -24 -13z"/>
<path d="M703 8273 c-22 -8 -15 -51 8 -58 29 -10 50 13 38 43 -8 21 -21 26
-46 15z"/>
<path d="M1560 8260 c0 -13 5 -18 15 -14 8 4 15 12 15 20 0 8 -7 14 -15 14 -8
0 -15 -9 -15 -20z"/>
<path d="M2173 8255 c-18 -20 -16 -39 6 -59 25 -23 59 -13 67 20 11 45 -43 74
-73 39z"/>
<path d="M1410 8246 c-28 -35 11 -93 48 -70 35 22 22 84 -18 84 -10 0 -23 -7
-30 -14z"/>
<path d="M127 8244 c-16 -16 -6 -45 20 -55 37 -14 55 -4 51 28 -2 23 -9 29
-33 31 -17 2 -34 0 -38 -4z"/>
<path d="M350 8190 c0 -5 5 -10 10 -10 6 0 10 5 10 10 0 6 -4 10 -10 10 -5 0
-10 -4 -10 -10z"/>
<path d="M1084 8186 c-9 -24 4 -48 23 -44 12 2 18 12 18 28 0 29 -32 41 -41
16z"/>
<path d="M947 8174 c-23 -23 7 -69 37 -58 25 10 17 58 -9 62 -12 2 -24 0 -28
-4z"/>
<path d="M1252 8158 c2 -12 10 -23 18 -23 22 0 19 39 -3 43 -15 3 -18 -1 -15
-20z"/>
<path d="M1757 8174 c-9 -10 2 -24 19 -24 8 0 14 7 14 15 0 15 -21 21 -33 9z"/>
<path d="M1560 8156 c-15 -19 -9 -56 11 -69 23 -14 66 -1 72 22 11 45 -53 82
-83 47z"/>
<path d="M1913 8155 c-7 -20 2 -29 21 -22 9 4 13 13 10 22 -8 19 -23 19 -31 0z"/>
<path d="M720 8095 c-7 -8 -10 -25 -6 -40 5 -20 13 -25 37 -25 33 0 44 17 35
55 -7 29 -46 35 -66 10z"/>
<path d="M1462 8058 c-25 -25 -1 -88 33 -83 30 5 45 19 45 44 0 32 -16 51 -45
51 -12 0 -26 -5 -33 -12z"/>
<path d="M1060 7996 c-28 -35 11 -93 48 -70 35 22 22 84 -18 84 -10 0 -23 -7
-30 -14z"/>
<path d="M1603 7967 c-21 -46 34 -78 61 -34 8 12 8 22 0 35 -17 27 -49 27 -61
-1z"/>
<path d="M887 7962 c-22 -24 -21 -55 1 -75 26 -23 58 -21 76 5 21 29 20 51 -2
71 -24 22 -55 21 -75 -1z"/>
<path d="M1367 7942 c-22 -25 -21 -55 2 -76 28 -25 53 -26 79 -3 26 24 28 44
6 75 -19 27 -64 29 -87 4z"/>
<path d="M997 7852 c-10 -10 -17 -21 -17 -24 0 -9 100 -52 106 -45 11 11 7 56
-6 72 -17 21 -63 19 -83 -3z"/>
<path d="M1739 7834 c-9 -11 -10 -20 -2 -32 14 -22 43 -22 57 1 9 15 7 21 -8
33 -25 18 -31 18 -47 -2z"/>
<path d="M2075 7770 c-28 -31 -10 -74 33 -78 55 -6 83 46 44 81 -25 23 -55 21
-77 -3z"/>
<path d="M1281 7746 c-16 -19 -11 -46 11 -60 26 -16 68 26 52 52 -14 22 -48
27 -63 8z"/>
<path d="M1454 7709 c-3 -6 -1 -16 5 -22 9 -9 14 -8 21 3 9 15 4 30 -10 30 -5
0 -12 -5 -16 -11z"/>
<path d="M1974 7525 c-4 -9 -2 -21 4 -27 15 -15 44 -1 40 19 -4 23 -36 29 -44
8z"/>
</g>
</svg>
